<svg width="65" height="58" viewBox="0 0 65 58" fill="none" xmlns="http://www.w3.org/2000/svg">
<path d="M60.205 23.6001V21.7472V17.4318H55.3143V14.5616V11.9762H50.1311V10.5379V4.21402H41.6113V3.35504V2.06175H37.5733L32.4416 0.219238L27.3099 2.06175H23.2719V3.35504V4.21402H14.7526V10.5379V11.9762H9.56977V14.5616V17.4318H4.6786V21.7472V23.6001H0.442669L0.747566 24.1899L1.50014 25.6218L2.58336 27.6885H3.31664V42.7918H1.44825L1.86336 44.0554L2.28531 45.3515H3.31664V46.8224H1.44825L1.86336 48.0791L2.28531 49.3684H3.31664V52.3575C4.02859 51.9795 4.79847 51.7862 5.60857 51.7862H9.34975C10.844 51.7862 12.2338 51.9558 13.4795 52.2904C14.7843 52.6408 15.9504 53.1711 16.9443 53.8666C17.9547 54.5741 18.8103 55.4511 19.4873 56.474C19.511 56.5098 19.5307 56.5496 19.554 56.5857C20.2849 55.685 21.1963 54.9144 22.2667 54.2965L22.2985 54.2784C23.1512 53.8059 24.0249 53.4716 24.9106 53.2699C24.9082 52.3294 24.9066 51.4885 24.9066 50.746C24.9066 49.3917 24.9126 48.3402 24.9283 47.5074C24.9283 47.5009 24.9283 47.4945 24.9283 47.4881C24.9311 47.3338 24.9347 47.1884 24.9383 47.049C24.9387 47.0361 24.9387 47.022 24.9395 47.0092C24.9432 46.871 24.9472 46.7404 24.952 46.6159C24.9524 46.6074 24.9524 46.5982 24.9528 46.5901C24.9576 46.4576 24.9629 46.3318 24.9689 46.2133V46.1554C24.9757 46.0514 24.9818 45.9477 24.9886 45.8573C24.9886 45.7725 24.995 45.6954 25.0015 45.6239C25.0079 45.5789 25.0079 45.5399 25.0144 45.4945C25.0272 45.3519 25.0401 45.2289 25.053 45.1124C25.0594 45.0606 25.0658 45.0088 25.0723 44.9634C25.0787 44.9308 25.0856 44.8983 25.0856 44.8726C25.0916 44.8336 25.0984 44.7946 25.1049 44.7557C25.1177 44.6846 25.131 44.613 25.1439 44.5488C25.1567 44.4837 25.1696 44.4194 25.1893 44.3543C25.2155 44.2575 25.2412 44.1667 25.267 44.0759C25.267 44.0694 25.267 44.063 25.2734 44.0562H25.2798C25.2927 43.9529 25.3317 43.8103 25.39 43.6351C25.4291 43.5186 25.481 43.3892 25.5332 43.2466C25.5719 43.1434 25.6237 43.026 25.6821 42.9031C25.7275 42.7802 25.7858 42.6508 25.851 42.5275C25.9805 42.2683 26.1233 41.9959 26.2923 41.7179C26.4608 41.4519 26.6362 41.1992 26.824 40.9662C26.8827 40.8818 26.9475 40.8043 27.0122 40.7263C27.0834 40.6488 27.1486 40.5708 27.2134 40.4997C27.3236 40.3764 27.4402 40.2603 27.5573 40.1494C27.7005 40.0112 27.8517 39.889 28.0017 39.7649C28.6071 39.2743 29.2233 38.9184 29.8142 38.6661C29.9924 38.5921 30.1702 38.517 30.3528 38.4583C30.4695 38.4198 30.5865 38.3808 30.7032 38.3551C31.7023 38.0895 32.7401 38.057 33.7457 38.2583C33.8884 38.2775 34.0312 38.3097 34.174 38.3551C34.3168 38.3876 34.4592 38.4262 34.5956 38.478C34.7384 38.5234 34.8747 38.5749 35.0171 38.6335C35.108 38.6661 35.1989 38.7115 35.2894 38.7565C35.361 38.7826 35.4258 38.8147 35.497 38.8541C35.5879 38.8991 35.6724 38.9449 35.7633 38.9967C35.8019 39.0092 35.8345 39.0289 35.8735 39.0546C35.9708 39.1064 36.0682 39.1647 36.1591 39.2297C36.4382 39.4049 36.7101 39.6054 36.97 39.826C37.0999 39.9425 37.2294 40.059 37.3465 40.1755C37.3465 40.1755 37.3529 40.1755 37.3593 40.1819C37.5604 40.3764 37.7551 40.5901 37.943 40.8171C37.9755 40.8561 38.0081 40.8947 38.0403 40.9401C38.1055 41.0244 38.1702 41.1088 38.2286 41.186C38.2804 41.2639 38.3392 41.3414 38.3975 41.4254C38.4494 41.4969 38.4948 41.5684 38.5339 41.6331C38.5467 41.6592 38.5664 41.6914 38.5857 41.7179C38.6895 41.8923 38.7864 42.0481 38.8778 42.2165C38.9039 42.2619 38.9296 42.3073 38.949 42.3591C38.9944 42.4431 39.0334 42.521 39.0789 42.6118C39.0982 42.6637 39.1239 42.7223 39.1501 42.7802C39.1501 42.7802 39.1501 42.793 39.1569 42.793C39.1698 42.8256 39.1827 42.8581 39.2024 42.8899C39.2088 42.9027 39.2152 42.916 39.2217 42.9353C39.3709 43.292 39.5004 43.6673 39.6042 44.0562C39.6364 44.153 39.669 44.2442 39.6951 44.3414C39.6951 44.3479 39.6951 44.3611 39.7015 44.3676C39.786 44.834 39.8443 45.4495 39.8898 46.3764C39.8898 46.4604 39.8962 46.5451 39.8962 46.6355C39.9075 47.063 39.9159 48.5922 39.922 50.8513C39.9718 50.8794 40.0221 50.9059 40.0712 50.9357C40.3821 51.1253 40.6605 51.3491 40.9143 51.5966C41.1954 51.3181 41.5112 51.0747 41.8615 50.8694C42.563 50.4576 43.3442 50.235 44.182 50.2081L44.2488 50.2069C45.1216 50.2069 45.9333 50.4262 46.661 50.8593C47.3681 51.2808 47.9365 51.8549 48.3524 52.5664C48.7759 53.2952 48.9895 54.0932 48.9895 54.9421V55.9714C50.3885 55.787 51.6708 55.93 52.8116 56.3664C53.6583 56.6918 54.3915 57.1522 54.9933 57.7356C55.0303 57.7714 55.0621 57.8123 55.0983 57.8489C55.1091 57.834 55.118 57.8176 55.1292 57.8027C54.4052 56.9292 54.0243 55.8537 54.0243 54.6645C54.0243 53.366 54.5142 52.1703 55.441 51.2069L55.4912 51.1562C55.9486 50.7127 56.4707 50.366 57.0439 50.1265C57.6291 49.881 58.2518 49.7565 58.8921 49.7565C59.8728 49.7565 60.7818 50.0393 61.569 50.5777V49.3716H62.641L63.0637 48.0783L63.478 46.82H61.569V45.3503H62.641L63.0637 44.0574L63.478 42.7946H61.569V27.6885H62.3019L63.3851 25.6218L64.1377 24.1899L64.4422 23.6001H60.205Z" fill="#A66743"/>
</svg>
