<svg width="86" height="77" viewBox="0 0 86 77" fill="none" xmlns="http://www.w3.org/2000/svg">
<path d="M79.4975 31.2133V28.7604V23.0476H73.0506V19.248V15.8254H66.2182V13.9214V5.54981H54.9877V4.41268V2.70061H49.6648L42.9003 0.261475L36.1358 2.70061H30.8129V4.41268V5.54981H19.5829V13.9214V15.8254H12.7511V19.248V23.0476H6.30361V28.7604V31.2133H0.719879L1.12179 31.9941L2.11382 33.8897L3.5417 36.6256H4.50829V56.6195H2.04542L2.59261 58.2922L3.14881 60.008H4.50829V61.9551H2.04542L2.59261 63.6188L3.14881 65.3256H4.50829V69.2826C5.44678 68.7822 6.46161 68.5263 7.52947 68.5263H12.461C14.4308 68.5263 16.2627 68.7508 17.9048 69.1938C19.6248 69.6576 21.1619 70.3597 22.4721 71.2803C23.804 72.2169 24.9318 73.378 25.8241 74.7321C25.8554 74.7795 25.8814 74.8321 25.9121 74.88C26.8755 73.6875 28.077 72.6674 29.4879 71.8494L29.5298 71.8255C30.6539 71.2 31.8055 70.7575 32.973 70.4905C32.9699 69.2454 32.9677 68.1322 32.9677 67.1493C32.9677 65.3564 32.9757 63.9645 32.9964 62.862C32.9964 62.8535 32.9964 62.8449 32.9964 62.8364C33.0001 62.6322 33.0048 62.4397 33.0096 62.2551C33.0101 62.2381 33.0101 62.2195 33.0112 62.2025C33.016 62.0195 33.0213 61.8466 33.0276 61.6818C33.0282 61.6706 33.0282 61.6584 33.0287 61.6477C33.0351 61.4722 33.042 61.3057 33.0499 61.1488V61.0722C33.0589 60.9345 33.0669 60.7973 33.0759 60.6776C33.0759 60.5654 33.0844 60.4633 33.0929 60.3686C33.1013 60.309 33.1013 60.2574 33.1098 60.1973C33.1268 60.0085 33.1438 59.8458 33.1607 59.6915C33.1692 59.6229 33.1777 59.5543 33.1862 59.4942C33.1947 59.4511 33.2037 59.408 33.2037 59.374C33.2116 59.3224 33.2206 59.2708 33.2291 59.2192C33.2461 59.1251 33.2636 59.0304 33.2806 58.9453C33.2975 58.8592 33.3145 58.7741 33.3405 58.6879C33.3749 58.5597 33.4089 58.4395 33.4428 58.3193C33.4428 58.3108 33.4428 58.3023 33.4513 58.2932H33.4598C33.4767 58.1566 33.5282 57.9677 33.6051 57.7359C33.6565 57.5816 33.7249 57.4103 33.7938 57.2215C33.8447 57.0848 33.9131 56.9295 33.99 56.7668C34.0499 56.604 34.1268 56.4328 34.2127 56.2695C34.3834 55.9264 34.5716 55.5658 34.7943 55.1978C35.0165 54.8457 35.2477 54.5112 35.4953 54.2027C35.5727 54.091 35.6581 53.9883 35.7434 53.8851C35.8373 53.7825 35.9232 53.6793 36.0085 53.5852C36.1538 53.4219 36.3076 53.2682 36.4619 53.1214C36.6506 52.9384 36.85 52.7767 37.0478 52.6124C37.8457 51.963 38.658 51.4918 39.4369 51.1577C39.6718 51.0599 39.9062 50.9604 40.1469 50.8828C40.3006 50.8317 40.4549 50.7801 40.6087 50.7461C41.9258 50.3945 43.2937 50.3514 44.6193 50.6179C44.8075 50.6434 44.9957 50.686 45.1839 50.7461C45.3722 50.7892 45.5599 50.8402 45.7396 50.9088C45.9278 50.9689 46.1076 51.037 46.2953 51.1147C46.4151 51.1577 46.5349 51.2178 46.6542 51.2774C46.7486 51.312 46.834 51.3545 46.9278 51.4067C47.0477 51.4662 47.159 51.5269 47.2788 51.5955C47.3297 51.612 47.3727 51.638 47.4241 51.6721C47.5524 51.7407 47.6807 51.8178 47.8006 51.904C48.1685 52.1358 48.527 52.4012 48.8695 52.6932C49.0408 52.8475 49.2115 53.0017 49.3658 53.156C49.3658 53.156 49.3743 53.156 49.3827 53.1645C49.6478 53.4219 49.9045 53.7048 50.1521 54.0054C50.195 54.0569 50.238 54.108 50.2804 54.1681C50.3663 54.2798 50.4517 54.3915 50.5285 54.4936C50.5969 54.5968 50.6744 54.6994 50.7512 54.8106C50.8196 54.9053 50.8796 54.9999 50.931 55.0856C50.948 55.1201 50.9739 55.1627 50.9994 55.1978C51.1362 55.4286 51.264 55.635 51.3843 55.8578C51.4188 55.9179 51.4527 55.978 51.4782 56.0466C51.5381 56.1578 51.5895 56.261 51.6494 56.3812C51.6749 56.4498 51.7088 56.5275 51.7433 56.604C51.7433 56.604 51.7433 56.6211 51.7523 56.6211C51.7693 56.6641 51.7862 56.7072 51.8122 56.7492C51.8207 56.7663 51.8292 56.7838 51.8376 56.8093C52.0344 57.2816 52.2051 57.7784 52.3419 58.2932C52.3843 58.4214 52.4273 58.5422 52.4617 58.6709C52.4617 58.6794 52.4617 58.6969 52.4702 58.7054C52.5816 59.3229 52.6584 60.1378 52.7183 61.3648C52.7183 61.4759 52.7268 61.5881 52.7268 61.7078C52.7417 62.2737 52.7528 64.298 52.7608 67.2887C52.8265 67.3259 52.8928 67.361 52.9575 67.4004C53.3673 67.6514 53.7342 67.9477 54.0688 68.2753C54.4394 67.9067 54.8557 67.5844 55.3175 67.3126C56.2422 66.7674 57.2719 66.4728 58.3763 66.4372L58.4643 66.4356C59.6149 66.4356 60.6849 66.726 61.644 67.2993C62.5761 67.8572 63.3253 68.6173 63.8736 69.5592C64.4319 70.524 64.7135 71.5803 64.7135 72.7041V74.0668C66.5576 73.8226 68.2479 74.012 69.7516 74.5896C70.8677 75.0204 71.8343 75.6299 72.6275 76.4022C72.6763 76.4495 72.7182 76.5038 72.7659 76.5522C72.7802 76.5325 72.7919 76.5107 72.8067 76.491C71.8523 75.3347 71.3502 73.9109 71.3502 72.3366C71.3502 70.6176 71.996 69.0348 73.2176 67.7594L73.2839 67.6924C73.8868 67.1052 74.575 66.6462 75.3305 66.3292C76.102 66.0042 76.9228 65.8393 77.7669 65.8393C79.0596 65.8393 80.2579 66.2138 81.2955 66.9265V65.3298H82.7085L83.2658 63.6177L83.8119 61.9519H81.2955V60.0064H82.7085L83.2658 58.2948L83.8119 56.6232H81.2955V36.6256H82.2616L83.6894 33.8897L84.6815 31.9941L85.0828 31.2133H79.4975Z" fill="#A66743"/>
</svg>
