<svg width="40" height="35" viewBox="0 0 40 35" fill="none" xmlns="http://www.w3.org/2000/svg">
<path d="M33.1961 14.5058V13.6223V11.5645H30.8636V10.1957V8.96264H28.3919V8.27682V5.26114H24.3289V4.85134V4.23462H22.403L19.9558 3.35596L17.5086 4.23462H15.5831V4.85134V5.26114H11.5202V8.27682V8.96264H9.04842V10.1957V11.5645H6.71587V13.6223V14.5058H4.69585L4.84146 14.7871L5.20024 15.4701L5.71672 16.4556H6.06626V23.6581H5.17531L5.37321 24.2608L5.57432 24.8787H6.06626V25.5802H5.17531L5.37321 26.1796L5.57432 26.7943H6.06626V28.2198C6.40574 28.0394 6.77298 27.9474 7.15953 27.9474H8.94384C9.6566 27.9474 10.3191 28.0282 10.9132 28.1877C11.5354 28.3548 12.0913 28.6075 12.5656 28.9394C13.0474 29.2768 13.4553 29.6951 13.7783 30.1828C13.7896 30.2001 13.7988 30.219 13.8101 30.2363C14.1588 29.8068 14.5932 29.4392 15.1037 29.1447L15.1189 29.1362C15.5256 28.9108 15.9423 28.7517 16.3647 28.6553C16.3635 28.2065 16.3626 27.8056 16.3626 27.4516C16.3626 26.8056 16.3655 26.3046 16.3731 25.9072C16.3731 25.904 16.3731 25.9012 16.3731 25.898C16.3747 25.8245 16.3759 25.755 16.3779 25.6887C16.3779 25.6826 16.3783 25.6758 16.3783 25.6698C16.3799 25.6039 16.382 25.5416 16.3844 25.4821C16.3848 25.4781 16.3848 25.4737 16.3848 25.4697C16.3872 25.4066 16.3896 25.3463 16.3924 25.2901V25.2624C16.3956 25.213 16.3984 25.1635 16.4017 25.1202C16.4017 25.08 16.4049 25.043 16.4077 25.0089C16.4109 24.9876 16.4109 24.9687 16.4137 24.947C16.4198 24.8791 16.4262 24.8204 16.4322 24.7646C16.4355 24.7397 16.4383 24.7152 16.4415 24.6935C16.4447 24.6778 16.4479 24.6625 16.4479 24.6501C16.4507 24.6316 16.454 24.6131 16.4572 24.5942C16.4632 24.5605 16.4696 24.5263 16.4757 24.4954C16.4817 24.4645 16.4881 24.4335 16.4974 24.4026C16.5099 24.3564 16.5219 24.313 16.5344 24.2696C16.5344 24.2664 16.5344 24.2636 16.5376 24.2604H16.5408C16.5469 24.211 16.5654 24.1431 16.5931 24.0595C16.6116 24.004 16.6366 23.9422 16.6615 23.8743C16.68 23.8248 16.7045 23.769 16.7327 23.7104C16.7544 23.6517 16.7822 23.5898 16.8131 23.5312C16.8751 23.4078 16.9431 23.2776 17.0235 23.1451C17.104 23.0181 17.1876 22.8976 17.2769 22.7867C17.3051 22.7465 17.3357 22.7095 17.3666 22.6722C17.4008 22.6352 17.4314 22.5979 17.4624 22.5641C17.515 22.5054 17.5706 22.45 17.6265 22.397C17.6948 22.3311 17.7668 22.2728 17.8384 22.2138C18.1273 21.9799 18.4209 21.81 18.7028 21.6899C18.7877 21.6545 18.8726 21.6187 18.9595 21.591C19.015 21.5725 19.0709 21.5541 19.1264 21.5416C19.603 21.415 20.0978 21.3994 20.5773 21.4954C20.6452 21.5046 20.7132 21.5199 20.7816 21.5416C20.8496 21.5573 20.9175 21.5754 20.9827 21.6003C21.0507 21.622 21.1158 21.6465 21.1838 21.6746C21.2273 21.6903 21.2707 21.7119 21.3137 21.7332C21.3479 21.7457 21.3789 21.761 21.4127 21.7799C21.4561 21.8011 21.4964 21.8232 21.5398 21.8477C21.5583 21.8538 21.574 21.863 21.5925 21.8755C21.6388 21.9004 21.6854 21.9281 21.7285 21.959C21.8616 22.0426 21.9915 22.1382 22.115 22.2435C22.1769 22.2989 22.2389 22.3548 22.2944 22.4102C22.2944 22.4102 22.2976 22.4102 22.3004 22.4134C22.3966 22.5063 22.4891 22.6079 22.5788 22.7164C22.5945 22.7349 22.6097 22.7533 22.625 22.775C22.656 22.8152 22.687 22.8554 22.7147 22.8923C22.7397 22.9297 22.7674 22.9667 22.7952 23.0065C22.8201 23.0406 22.8414 23.0748 22.8599 23.1053C22.866 23.1177 22.8752 23.133 22.8845 23.1455C22.9339 23.2286 22.9802 23.303 23.0236 23.3833C23.0361 23.405 23.0482 23.4267 23.0574 23.4512C23.0792 23.4914 23.0977 23.5283 23.1194 23.5717C23.1286 23.5966 23.1411 23.6244 23.1532 23.6521C23.1532 23.6521 23.1532 23.6581 23.1564 23.6581C23.1624 23.6738 23.1689 23.6891 23.1781 23.7043C23.1813 23.7103 23.1841 23.7168 23.1874 23.726C23.2586 23.896 23.3201 24.0752 23.37 24.2604C23.3853 24.3066 23.4009 24.35 23.4134 24.3962C23.4134 24.3994 23.4134 24.4054 23.4166 24.4086C23.4569 24.6312 23.4846 24.9245 23.5063 25.3664C23.5063 25.4066 23.5095 25.4468 23.5095 25.4898C23.5148 25.6935 23.5188 26.4227 23.5216 27.5002C23.5453 27.5135 23.5695 27.5263 23.5928 27.5404C23.7408 27.6308 23.8736 27.7377 23.995 27.8554C24.129 27.7228 24.2798 27.6067 24.4468 27.5087C24.7814 27.3122 25.1539 27.2061 25.5533 27.1933L25.5851 27.1929C26.0014 27.1929 26.3883 27.2973 26.7355 27.5038C27.0729 27.7047 27.3436 27.9787 27.5419 28.3178C27.7439 28.6654 27.846 29.0458 27.846 29.4508V29.9418C28.5133 29.8538 29.1247 29.9221 29.6686 30.1302C30.0724 30.2853 30.4219 30.5051 30.7091 30.7831C30.7268 30.8004 30.7421 30.8196 30.759 30.8373C30.7642 30.8301 30.7683 30.8224 30.7739 30.8152C30.4288 30.3986 30.247 29.8859 30.247 29.3186C30.247 28.6991 30.4807 28.129 30.9223 27.6698L30.9461 27.6457C31.1641 27.4339 31.413 27.2688 31.6866 27.1547C31.9657 27.0378 32.2626 26.9783 32.5679 26.9783C33.0357 26.9783 33.4689 27.1133 33.8445 27.3701V26.7947H34.3558L34.5573 26.178L34.7548 25.5778H33.8445V24.8767H34.3558L34.5573 24.26L34.7548 23.6577H33.8445V16.4544H34.1941L34.7106 15.4689L35.0694 14.7859L35.2146 14.5046H33.1961V14.5058Z" stroke="white" stroke-width="5" stroke-miterlimit="10"/>
</svg>
