<svg width="32" height="28" viewBox="0 0 32 28" fill="none" xmlns="http://www.w3.org/2000/svg">
<path d="M26.7711 27.9927L26.6882 27.908C26.6794 27.8987 26.6709 27.8895 26.6625 27.8798C26.6553 27.8714 26.648 27.8634 26.64 27.8553C26.3628 27.5865 26.0241 27.3744 25.6336 27.2242C25.097 27.0184 24.5001 26.9574 23.8601 27.0417L23.7463 27.0566V26.4511C23.7463 26.0642 23.6486 25.6998 23.4559 25.3688C23.2664 25.0446 23.007 24.7826 22.6848 24.5906C22.3538 24.3937 21.9841 24.2937 21.5859 24.2937L21.5557 24.2941C21.1748 24.3061 20.8184 24.4078 20.4983 24.5954C20.3402 24.6878 20.195 24.7995 20.0663 24.9268L19.9963 24.9963L19.9255 24.9276C19.8016 24.8071 19.6761 24.7087 19.5409 24.6263C19.5256 24.6171 19.51 24.6082 19.4943 24.5998L19.4219 24.5592V24.5006C19.4187 23.3595 19.4146 22.6838 19.4098 22.4925C19.4098 22.4692 19.409 22.4491 19.4082 22.4294C19.4074 22.409 19.4066 22.3889 19.4066 22.3688C19.3857 21.9441 19.3591 21.6564 19.3205 21.4383C19.3181 21.4311 19.3161 21.4226 19.3149 21.4134C19.3064 21.3836 19.2968 21.3543 19.2863 21.3234L19.2739 21.286C19.2264 21.1092 19.1665 20.9337 19.0957 20.7641L19.0932 20.7581C19.0924 20.7557 19.0916 20.7533 19.0904 20.7517C19.082 20.7368 19.0751 20.7227 19.0695 20.7095C19.0643 20.701 19.0603 20.6922 19.0575 20.6826C19.0474 20.6597 19.0365 20.6351 19.0277 20.6118L19.0204 20.5974C19.0031 20.5632 18.9875 20.5319 18.9698 20.499L18.9637 20.4861C18.9577 20.4692 18.948 20.4527 18.9372 20.4339C18.9042 20.3732 18.8712 20.3178 18.8358 20.2595L18.8008 20.2008C18.7904 20.1864 18.7803 20.1699 18.7719 20.1538C18.7509 20.1193 18.7324 20.0912 18.7135 20.065C18.7011 20.0474 18.6902 20.0321 18.6793 20.0168C18.6633 19.9943 18.6472 19.9722 18.6323 19.9501C18.6053 19.914 18.5752 19.875 18.545 19.836C18.5297 19.8147 18.516 19.7983 18.5016 19.781C18.4187 19.6809 18.3366 19.5906 18.2554 19.5102H18.2522L18.2228 19.4809C18.1677 19.4262 18.1062 19.3708 18.047 19.3177C17.928 19.2169 17.8017 19.1241 17.6742 19.0438L17.6689 19.0405C17.6323 19.0144 17.5917 18.9895 17.5438 18.9642L17.535 18.959C17.5213 18.9497 17.5137 18.9453 17.5076 18.9437L17.4976 18.9405L17.4883 18.9353C17.4445 18.9104 17.4059 18.8895 17.3669 18.8702L17.3632 18.8682C17.3274 18.8485 17.3029 18.8368 17.278 18.828L17.2627 18.8212C17.2225 18.8011 17.1846 18.7826 17.1484 18.7697L17.144 18.7681C17.0716 18.7384 17.0101 18.7155 16.9505 18.6966L16.9453 18.6946C16.8926 18.6745 16.8331 18.6572 16.7579 18.64L16.7494 18.6376C16.6879 18.6179 16.6251 18.6038 16.5624 18.5954L16.5564 18.5942C16.0882 18.5006 15.6151 18.5154 15.151 18.6392L15.1469 18.64C15.0983 18.6508 15.0488 18.6673 14.9961 18.6846L14.9893 18.687C14.9112 18.7119 14.836 18.7432 14.7568 18.7762L14.7399 18.7834C14.4438 18.91 14.1611 19.0815 13.9 19.2928L13.8747 19.3137C13.8115 19.366 13.752 19.415 13.6949 19.4704C13.6325 19.5295 13.5806 19.5825 13.536 19.6323C13.5211 19.6484 13.507 19.6649 13.4925 19.6814C13.4756 19.7006 13.4588 19.7199 13.4407 19.7396L13.4386 19.742C13.4097 19.777 13.3823 19.8099 13.3578 19.8453L13.3534 19.8509C13.2721 19.9517 13.1913 20.0658 13.1064 20.2C13.0227 20.3378 12.9527 20.4744 12.9009 20.5773C12.8711 20.6339 12.8449 20.6918 12.8248 20.7464L12.8216 20.7545C12.7918 20.8171 12.7697 20.8682 12.754 20.9108C12.7452 20.9357 12.7355 20.9602 12.7267 20.9839C12.7122 21.0225 12.6985 21.059 12.6869 21.0928C12.6599 21.1735 12.6438 21.2346 12.639 21.2744L12.6277 21.3624H12.6116C12.6056 21.3845 12.5992 21.4069 12.5931 21.4303C12.5847 21.4588 12.5795 21.4849 12.573 21.5166C12.5674 21.5439 12.5622 21.5741 12.5565 21.6038L12.5469 21.6613C12.5461 21.6789 12.5425 21.6958 12.5396 21.7115C12.5368 21.732 12.534 21.7549 12.5312 21.7782C12.5252 21.832 12.5191 21.8903 12.5131 21.9574L12.5123 21.9626C12.5111 21.971 12.5107 21.9791 12.5099 21.9871C12.5091 21.9984 12.5083 22.0096 12.5067 22.0213C12.5038 22.0526 12.501 22.0859 12.501 22.1213L12.5006 22.1285C12.4982 22.1611 12.4958 22.1976 12.4934 22.235L12.4914 22.2961C12.4886 22.3523 12.4861 22.4118 12.4837 22.4744L12.4833 22.4885C12.4813 22.546 12.4793 22.6078 12.4777 22.6733L12.4773 22.6914C12.4757 22.7585 12.4741 22.8276 12.4725 22.9007V22.908C12.4652 23.284 12.4624 23.7597 12.462 24.4524C12.462 24.8063 12.4628 25.2073 12.464 25.6556L12.4644 25.736L12.386 25.7537C11.9697 25.8485 11.5594 26.0068 11.1668 26.2246L11.1527 26.2326C10.6552 26.5199 10.2292 26.879 9.88731 27.3001L9.79963 27.4078L9.72441 27.2908C9.71838 27.2812 9.71234 27.2712 9.70671 27.2611C9.70229 27.2535 9.69826 27.2459 9.69344 27.2386C9.37768 26.7617 8.97826 26.3523 8.50685 26.0221C8.04227 25.697 7.49724 25.4491 6.88625 25.2852C6.30059 25.1281 5.64656 25.0482 4.94265 25.0482H3.15834C2.79029 25.0482 2.43834 25.1358 2.11253 25.3089L1.96491 25.3873V23.8951H1.50073L1.03535 22.4801H1.96491V21.9795H1.50073L1.03575 20.558H1.96491V13.5564H1.65479L0.529739 11.4057H2.61452V8.46438H4.94707V5.86253H7.4188V2.16064H11.4818V1.13412H13.4905L15.9554 0.249023L18.4203 1.13412H20.4291V2.16064H24.492V5.86253H26.9638V8.46438H29.2963V11.4057H31.3807L31.1599 11.8336L30.2561 13.5564H29.9463V20.5588H30.8948L30.4298 21.9787H29.9463V22.4789H30.8952L30.4298 23.8967H29.9463V24.562L29.7891 24.4544C29.4262 24.2061 29.0156 24.0803 28.5691 24.0803C28.2771 24.0803 27.9935 24.137 27.7268 24.2491C27.4654 24.3583 27.2264 24.5166 27.0177 24.7195L26.9951 24.7424C26.5724 25.1816 26.3488 25.7276 26.3488 26.3206C26.3488 26.8601 26.5229 27.3555 26.8527 27.7533L26.9034 27.8143L26.8527 27.8827C26.8491 27.8883 26.8455 27.8939 26.8419 27.8991L26.7711 27.9927ZM24.406 26.8047C24.8661 26.8047 25.3017 26.8827 25.706 27.0373C25.9517 27.1317 26.1782 27.2495 26.3837 27.3893C26.2285 27.0634 26.1476 26.7015 26.1476 26.3198C26.1476 25.6741 26.391 25.0799 26.8511 24.6014L26.8761 24.5761C27.1045 24.3543 27.3644 24.182 27.6492 24.063C27.9408 23.9409 28.2505 23.8786 28.5695 23.8786C28.9938 23.8786 29.3888 23.9827 29.7456 24.1888V23.695H30.2842L30.6177 22.679H29.7456V21.777H30.2842L30.6177 20.7589H29.7456V13.3547H30.135L31.0517 11.6058H29.096V8.66446H26.7635V6.06261H24.2917V2.36072H20.2288V1.3342H18.3861L15.9562 0.461556L13.5263 1.3342H11.6837V2.36072H7.62073V6.06261H5.149V8.66446H2.81644V11.6058H0.860777L0.930363 11.7404L1.77707 13.3547H2.16643V20.7581H1.31369L1.64715 21.7778H2.16643V22.6802H1.3141L1.64715 23.6934H2.16643V25.0582C2.47977 24.9176 2.81282 24.8461 3.15914 24.8461H4.94345C5.66466 24.8461 6.33639 24.928 6.93894 25.09C7.57246 25.2599 8.1392 25.5178 8.62309 25.8561C9.09532 26.1868 9.49795 26.5934 9.82095 27.0655C10.162 26.6709 10.5759 26.3318 11.0534 26.0566L11.0691 26.0478C11.4548 25.834 11.8558 25.6753 12.2637 25.5749C12.2625 25.1583 12.2621 24.7838 12.2621 24.4507C12.2621 23.7569 12.2653 23.28 12.2726 22.9043V22.8959C12.2742 22.8216 12.2758 22.7521 12.2774 22.685L12.2778 22.6653C12.2794 22.5998 12.2814 22.5371 12.2838 22.4773L12.2842 22.4644C12.2866 22.4021 12.2891 22.3423 12.2919 22.286V22.2543L12.2943 22.2193C12.2967 22.1828 12.2987 22.147 12.3011 22.1149C12.3011 22.0719 12.3043 22.0333 12.308 21.9979L12.3084 21.9931C12.3096 21.9847 12.31 21.9771 12.3108 21.969C12.3116 21.9574 12.3128 21.9461 12.3144 21.9337C12.3204 21.8658 12.3269 21.8075 12.3329 21.7517C12.3361 21.7251 12.3393 21.7002 12.3426 21.6777L12.3434 21.6717C12.3454 21.6625 12.3474 21.6544 12.3478 21.6472L12.349 21.6323L12.3603 21.564C12.3659 21.5331 12.3715 21.5022 12.3775 21.4736C12.3844 21.4383 12.3912 21.4061 12.4013 21.372C12.4121 21.3306 12.4238 21.2896 12.4355 21.2487C12.4375 21.2366 12.4411 21.2257 12.4455 21.2165C12.4544 21.1671 12.4713 21.1052 12.4978 21.0257C12.5099 20.9895 12.5244 20.9505 12.54 20.9096C12.5489 20.8863 12.5577 20.8626 12.567 20.8376C12.5847 20.7898 12.6084 20.7352 12.6398 20.6693C12.6627 20.6078 12.6917 20.5435 12.7243 20.4825C12.7766 20.3776 12.8494 20.2366 12.9375 20.0912C13.0268 19.9501 13.1112 19.8304 13.1965 19.7243C13.2251 19.6834 13.256 19.6464 13.2858 19.6106L13.293 19.6022C13.3103 19.5833 13.3268 19.5644 13.3429 19.546C13.3582 19.5283 13.3735 19.511 13.3888 19.4945C13.4362 19.4415 13.4917 19.3848 13.5577 19.3226C13.6196 19.2627 13.6852 19.2085 13.7488 19.1562L13.7749 19.1346C14.0512 18.9108 14.3497 18.7296 14.6638 18.5954L14.6815 18.5881C14.7616 18.5548 14.844 18.5206 14.9293 18.4933L14.9354 18.4913C14.9897 18.4736 15.0456 18.4552 15.1031 18.4419C15.5958 18.3113 16.0974 18.2952 16.5946 18.3941C16.6666 18.4041 16.7382 18.4202 16.8086 18.4423C16.8902 18.4608 16.9562 18.4805 17.0165 18.503C17.0801 18.5235 17.1448 18.5472 17.2204 18.5781C17.2671 18.595 17.3114 18.6171 17.354 18.6384C17.3942 18.6536 17.4296 18.6717 17.4594 18.6882C17.4992 18.7079 17.5382 18.7288 17.5817 18.7537C17.6042 18.7621 17.6235 18.7734 17.644 18.787C17.6967 18.8151 17.7425 18.8437 17.7844 18.8734C17.9195 18.9582 18.0527 19.0562 18.1802 19.1647C18.2369 19.2157 18.2988 19.2711 18.3547 19.3258C18.3616 19.3302 18.3676 19.3354 18.3732 19.3415C18.465 19.4298 18.5611 19.5347 18.6564 19.6496C18.6729 19.6693 18.6898 19.6894 18.7071 19.7139C18.7361 19.7513 18.7674 19.7918 18.7952 19.8292L18.7984 19.834C18.8125 19.8549 18.8274 19.8758 18.8431 19.8975C18.8547 19.9136 18.8664 19.9296 18.8781 19.9465C18.8998 19.9763 18.9219 20.01 18.9464 20.051L18.9505 20.0582C18.9545 20.0663 18.9605 20.0763 18.9657 20.0831L18.9714 20.092L19.0084 20.1538C19.0446 20.2145 19.0792 20.2715 19.1126 20.3334C19.1242 20.3539 19.1379 20.378 19.1496 20.4069C19.1673 20.4399 19.1829 20.4708 19.2002 20.505L19.2143 20.5347C19.2167 20.5415 19.2196 20.5484 19.2228 20.5556H19.226L19.2509 20.6195C19.2517 20.6219 19.2525 20.6239 19.2533 20.6259L19.2545 20.6287C19.2578 20.6372 19.261 20.644 19.2646 20.6496L19.269 20.6581C19.2734 20.6669 19.2775 20.6753 19.2819 20.6878C19.3555 20.8638 19.4175 21.0458 19.4669 21.2294L19.4762 21.2575C19.4866 21.2888 19.4979 21.3214 19.5071 21.3551L19.51 21.3579L19.5156 21.3885C19.557 21.6171 19.5852 21.9168 19.6069 22.3591V22.364C19.6069 22.3824 19.6077 22.4009 19.6085 22.4198C19.6093 22.4419 19.6101 22.4644 19.6101 22.4877C19.6149 22.6749 19.619 23.3318 19.6222 24.4391C19.6298 24.4435 19.6375 24.4479 19.6455 24.4528C19.7678 24.5275 19.8824 24.6139 19.9947 24.7155C20.1169 24.6038 20.2517 24.505 20.3961 24.4202C20.7456 24.2153 21.1338 24.1044 21.5505 24.0912L21.5839 24.0908C22.0203 24.0908 22.4246 24.2 22.7874 24.4162C23.1393 24.6259 23.4225 24.912 23.6292 25.2659C23.84 25.6283 23.947 26.0265 23.947 26.4495V26.8272C24.1027 26.8127 24.2555 26.8047 24.406 26.8047Z" fill="white"/>
</svg>
