<svg width="50" height="44" viewBox="0 0 50 44" fill="none" xmlns="http://www.w3.org/2000/svg">
<path d="M42.4858 18.0408V16.8713V14.1471H39.4111V12.335V10.7027H36.1529V9.7948V5.80262H30.7972V5.26012V4.44371H28.2585L25.0327 3.28052L21.8068 4.44371H19.2687V5.26012V5.80262H13.9129V9.7948V10.7027H10.6547V12.335V14.1471H7.58V16.8713V18.0408H4.91725L5.10919 18.4131L5.58214 19.3173L6.26294 20.622H6.7237V30.1567H5.54927L5.81014 30.9545L6.07525 31.7725H6.7237V32.7011H5.54927L5.81014 33.4947L6.07525 34.3085H6.7237V36.1955C7.1712 35.9567 7.65529 35.8349 8.16483 35.8349H10.5169C11.4564 35.8349 12.3297 35.9418 13.1128 36.153C13.9331 36.3742 14.6658 36.7088 15.291 37.1481C15.9262 37.5948 16.4638 38.1485 16.8896 38.7942C16.9044 38.8171 16.9166 38.8421 16.9315 38.8649C17.3912 38.2964 17.9638 37.8097 18.6366 37.4199L18.6568 37.4087C19.1928 37.1103 19.7421 36.8997 20.2989 36.772C20.2973 36.1779 20.2962 35.6471 20.2962 35.1786C20.2962 34.3233 20.2999 33.6601 20.31 33.1341C20.31 33.1298 20.31 33.1261 20.31 33.1219C20.3121 33.0245 20.3137 32.9325 20.3164 32.8448C20.3164 32.8368 20.3169 32.8277 20.3169 32.8198C20.319 32.7325 20.3217 32.6501 20.3248 32.5714C20.3254 32.5661 20.3254 32.5602 20.3254 32.5549C20.3286 32.4714 20.3317 32.3916 20.3355 32.3171V32.2804C20.3397 32.215 20.3434 32.1496 20.3476 32.0922C20.3476 32.039 20.3519 31.99 20.3556 31.9448C20.3598 31.9166 20.3598 31.8917 20.3636 31.8629C20.3715 31.7731 20.38 31.6954 20.3879 31.6215C20.3922 31.5885 20.3959 31.5561 20.4001 31.5273C20.4044 31.5066 20.4086 31.4864 20.4086 31.4699C20.4123 31.4454 20.4166 31.421 20.4208 31.396C20.4288 31.3513 20.4373 31.3061 20.4452 31.2651C20.4532 31.2242 20.4616 31.1832 20.4738 31.1423C20.4903 31.0811 20.5062 31.0237 20.5226 30.9662C20.5226 30.962 20.5226 30.9582 20.5269 30.954H20.5311C20.5391 30.8886 20.5634 30.7987 20.6 30.688C20.6244 30.6146 20.6573 30.5327 20.6902 30.4429C20.7146 30.3774 20.7469 30.3035 20.784 30.2259C20.8126 30.1482 20.8492 30.0663 20.8901 29.9886C20.9717 29.8254 21.0613 29.653 21.1674 29.4775C21.2734 29.3095 21.3837 29.1499 21.5014 29.0031C21.5385 28.9499 21.5788 28.901 21.6196 28.8515C21.6647 28.8026 21.705 28.7531 21.7458 28.7084C21.8153 28.6308 21.8885 28.5574 21.9622 28.4872C22.0523 28.4 22.1472 28.3228 22.2416 28.2447C22.6223 27.9351 23.0093 27.7101 23.381 27.5511C23.4929 27.5043 23.6048 27.457 23.7193 27.4203C23.7925 27.3958 23.8662 27.3713 23.9393 27.3549C24.5677 27.1873 25.2198 27.1666 25.8518 27.2937C25.9414 27.3059 26.0311 27.3261 26.1212 27.3549C26.2108 27.3756 26.3004 27.3995 26.3863 27.4325C26.4759 27.4612 26.5618 27.4937 26.6514 27.5309C26.7087 27.5516 26.7659 27.5804 26.8227 27.6085C26.8677 27.625 26.9086 27.6452 26.9531 27.6702C27.0104 27.6984 27.0634 27.7277 27.1206 27.7601C27.145 27.7681 27.1657 27.7803 27.1901 27.7968C27.2511 27.8298 27.3126 27.8665 27.3693 27.9075C27.5448 28.0181 27.7161 28.1447 27.8789 28.284C27.9605 28.3574 28.0422 28.4313 28.1153 28.5047C28.1153 28.5047 28.1196 28.5047 28.1233 28.509C28.25 28.6319 28.372 28.7664 28.4902 28.91C28.5109 28.9345 28.531 28.959 28.5512 28.9877C28.592 29.0409 28.6328 29.094 28.6694 29.143C28.7023 29.1924 28.7389 29.2414 28.7755 29.294C28.8083 29.3392 28.8364 29.3844 28.8608 29.4249C28.8688 29.4414 28.881 29.4616 28.8932 29.4781C28.9584 29.5881 29.0194 29.6865 29.0766 29.7929C29.0931 29.8216 29.109 29.8504 29.1212 29.8828C29.1498 29.936 29.1742 29.9849 29.2028 30.0424C29.215 30.0753 29.2314 30.112 29.2474 30.1487C29.2474 30.1487 29.2474 30.1567 29.2516 30.1567C29.2595 30.1775 29.268 30.1977 29.2802 30.2179C29.2845 30.2259 29.2882 30.2344 29.2924 30.2466C29.3863 30.4716 29.4674 30.7088 29.5331 30.954C29.5533 31.0151 29.574 31.0726 29.5904 31.1337C29.5904 31.138 29.5904 31.146 29.5946 31.1502C29.6477 31.4449 29.6843 31.8332 29.7129 32.4182C29.7129 32.4714 29.7171 32.5246 29.7171 32.5815C29.724 32.8511 29.7293 33.8165 29.733 35.2429C29.7643 35.2605 29.7961 35.2775 29.8269 35.2961C30.022 35.4158 30.197 35.5573 30.3571 35.7131C30.5337 35.5376 30.7325 35.3839 30.9525 35.2541C31.3937 34.994 31.8847 34.8536 32.4112 34.8366L32.4531 34.8361C33.0018 34.8361 33.5119 34.9743 33.9695 35.2477C34.4143 35.5137 34.7712 35.8764 35.0326 36.3253C35.2987 36.7853 35.4334 37.289 35.4334 37.8251V38.4751C36.313 38.3586 37.119 38.449 37.8358 38.7245C38.3682 38.9298 38.8289 39.2207 39.2075 39.5888C39.2308 39.6117 39.251 39.6372 39.2732 39.6606C39.2801 39.651 39.2854 39.6409 39.2929 39.6313C38.8379 39.0798 38.5983 38.4011 38.5983 37.6502C38.5983 36.83 38.9063 36.0753 39.4885 35.4674L39.5198 35.4355C39.8072 35.1552 40.1354 34.9366 40.4959 34.7855C40.8639 34.6308 41.2552 34.552 41.6576 34.552C42.2743 34.552 42.8453 34.7307 43.3405 35.0706V34.309H44.0145L44.2801 33.4926L44.5404 32.698H43.3405V31.7699H44.0145L44.2801 30.9534L44.5404 30.1562H43.3405V20.6204H43.8013L44.4821 19.3157L44.9551 18.4115L45.1465 18.0392H42.4858V18.0408Z" stroke="white" stroke-width="5" stroke-miterlimit="10"/>
</svg>
