<svg width="26" height="4" viewBox="0 0 26 4" fill="none" xmlns="http://www.w3.org/2000/svg">
<path d="M1.17357 3.33912C0.995781 3.33912 0.829256 3.30537 0.67882 3.23827C0.526374 3.17037 0.399267 3.07195 0.301122 2.94579L0.251648 2.88191L0.698127 2.34635L0.77415 2.4492C0.887178 2.60187 1.00865 2.6758 1.14541 2.6758C1.27211 2.6758 1.38916 2.63924 1.38916 2.37327V1.31702H0.533615V0.664551H2.15019V2.34193C2.15019 2.66656 2.06532 2.91646 1.89839 3.0848C1.73147 3.25395 1.48771 3.33912 1.17357 3.33912ZM0.512698 2.88352C0.58148 2.95463 0.664741 3.01249 0.760875 3.05507C0.885166 3.11052 1.02434 3.13863 1.17397 3.13863C1.43221 3.13863 1.62809 3.07315 1.7564 2.94418C1.88472 2.81481 1.94988 2.61273 1.94988 2.34274V0.866239H0.735534V1.11694H1.59109V2.37408C1.59109 2.812 1.31234 2.87748 1.14622 2.87748C0.978887 2.87748 0.827245 2.80637 0.694106 2.66615L0.512698 2.88352Z" fill="white"/>
<path d="M4.6895 3.32566C4.41759 3.32566 4.19716 3.2445 4.03466 3.085C3.87175 2.92469 3.78889 2.68925 3.78889 2.38471V1.22843H4.53263V2.30476C4.53263 2.61412 4.67341 2.6559 4.81097 2.6559C4.91274 2.6559 4.99077 2.62497 5.0503 2.56109C5.11104 2.49601 5.14161 2.39235 5.14161 2.25254V1.22803H5.88534V3.29754H5.16936V3.19106C5.13236 3.21436 5.09334 3.23526 5.05231 3.25253C4.94089 3.30115 4.81861 3.32566 4.6895 3.32566ZM3.99041 1.42891V2.38432C3.99041 2.63301 4.05276 2.82063 4.17584 2.94157C4.30134 3.06491 4.46907 3.12477 4.6895 3.12477C4.79126 3.12477 4.88659 3.10589 4.97307 3.06852C5.05875 3.03156 5.13316 2.97772 5.1951 2.90822L5.37088 2.70974V3.09665H5.68462V1.42891H5.34313V2.25254C5.34313 2.44458 5.29446 2.59443 5.19792 2.69769C5.09977 2.80295 4.96945 2.8564 4.81137 2.8564C4.63238 2.8564 4.33191 2.78447 4.33191 2.30436V1.42891H3.99041Z" fill="white"/>
<path d="M9.63457 3.29801H8.89084V2.21122C8.89084 2.08909 8.8667 1.99989 8.81884 1.94605C8.77339 1.89503 8.70581 1.87052 8.61249 1.87052C8.50308 1.87052 8.42022 1.90186 8.35828 1.96654C8.29593 2.03123 8.26456 2.13489 8.26456 2.2739V3.29841H7.52083V1.2289H8.24002V1.33738C8.28065 1.31287 8.32369 1.29117 8.36954 1.27269C8.4878 1.22528 8.61853 1.20117 8.7585 1.20117C9.01634 1.20117 9.22912 1.28073 9.39041 1.43822C9.55252 1.59612 9.63457 1.82834 9.63457 2.12846V3.29801ZM9.09196 3.09712H9.43345V2.12765C9.43345 1.88378 9.37151 1.69976 9.25003 1.58124C9.12574 1.46031 8.96525 1.40125 8.7585 1.40125C8.64467 1.40125 8.53888 1.42054 8.44476 1.45831C8.35265 1.49527 8.27502 1.5479 8.21388 1.615L8.03891 1.80664V1.42898H7.72195V3.09672H8.06344V2.2731C8.06344 2.08025 8.11372 1.92998 8.21307 1.82673C8.31363 1.72227 8.44798 1.66924 8.61249 1.66924C8.76494 1.66924 8.8848 1.71744 8.96927 1.81226C9.05093 1.90386 9.09196 2.03806 9.09196 2.21082V3.09712Z" fill="white"/>
<path d="M12.2813 3.32556C12.0665 3.32556 11.8702 3.28015 11.6976 3.19096C11.5231 3.10056 11.3847 2.9732 11.2861 2.81209C11.1876 2.65099 11.1373 2.46618 11.1373 2.26288C11.1373 2.05959 11.1872 1.87517 11.2861 1.71366C11.3847 1.55255 11.5231 1.42519 11.6976 1.33479C11.8702 1.2456 12.0665 1.2002 12.2813 1.2002C12.4949 1.2002 12.6851 1.246 12.8468 1.3364C13.0129 1.42921 13.1356 1.5638 13.2116 1.73616L13.249 1.82134L12.6598 2.13752L12.6111 2.05235C12.5311 1.91174 12.4253 1.84624 12.2776 1.84624C12.163 1.84624 12.0713 1.882 11.9977 1.95592C11.9241 2.02945 11.8879 2.1303 11.8879 2.26368C11.8879 2.39707 11.9237 2.49751 11.9977 2.57144C12.0713 2.64496 12.163 2.68112 12.278 2.68112C12.4273 2.68112 12.5331 2.61603 12.6107 2.47581L12.659 2.38863L13.2494 2.71045L13.2108 2.79563C13.1348 2.96276 13.0125 3.09534 12.8472 3.18895C12.6855 3.27894 12.4949 3.32556 12.2813 3.32556ZM12.2813 1.40108C12.0991 1.40108 11.9337 1.43885 11.7901 1.51317C11.6486 1.5863 11.5367 1.68915 11.4575 1.81852C11.3783 1.94789 11.3384 2.09735 11.3384 2.26288C11.3384 2.42841 11.3787 2.57786 11.4575 2.70723C11.5367 2.8366 11.6486 2.93945 11.7901 3.01258C11.9337 3.0869 12.0991 3.12467 12.2813 3.12467C12.4599 3.12467 12.6167 3.0869 12.7483 3.01258C12.8488 2.95553 12.9265 2.88321 12.984 2.79321L12.7326 2.6562C12.6216 2.80365 12.4659 2.8808 12.278 2.8808C12.1095 2.8808 11.9675 2.82415 11.8557 2.71246C11.7439 2.60077 11.6872 2.4497 11.6872 2.26288C11.6872 2.07606 11.7439 1.92499 11.8557 1.81329C11.9675 1.7016 12.1095 1.64496 12.278 1.64496C12.4643 1.64496 12.6195 1.7225 12.7322 1.87075L12.9848 1.73535C12.9277 1.64174 12.8496 1.56862 12.7487 1.51197C12.6171 1.43844 12.4599 1.40108 12.2813 1.40108Z" fill="white"/>
<path d="M15.5571 3.32542C15.3093 3.32542 15.1122 3.25912 14.9722 3.12814C14.8298 2.99556 14.7578 2.80272 14.7578 2.55443V1.88709H14.469V1.26917H14.7578V0.813965H15.5016V1.26917H15.9673V1.88709H15.5016V2.54719C15.5016 2.59902 15.5128 2.63719 15.5349 2.66049C15.5426 2.66853 15.5659 2.69344 15.6339 2.69344C15.6974 2.69344 15.7489 2.67737 15.7916 2.64483L15.8986 2.56246L16.1202 3.14181L16.0586 3.18721C15.9951 3.23422 15.9171 3.26957 15.827 3.29247C15.7417 3.31457 15.6508 3.32542 15.5571 3.32542ZM14.6701 1.6862H14.9589V2.55443C14.9589 2.74728 15.008 2.88669 15.1094 2.9811C15.2111 3.07632 15.362 3.12413 15.5571 3.12413C15.6339 3.12413 15.7083 3.11529 15.7775 3.09761C15.8129 3.08877 15.8455 3.07713 15.8748 3.06347L15.7996 2.86659C15.7489 2.88507 15.6934 2.89432 15.6339 2.89432C15.5313 2.89432 15.4489 2.86218 15.3885 2.7987C15.3298 2.73682 15.3004 2.65245 15.3004 2.54719V1.6862H15.7662V1.47006H15.3004V1.01485H14.9589V1.47006H14.6701V1.6862Z" fill="white"/>
<path d="M18.2798 3.2978H17.5361V1.22829H18.2798V3.2978ZM17.7372 3.09691H18.0787V1.42917H17.7372V3.09691ZM17.9081 1.16843C17.7826 1.16843 17.6776 1.13026 17.5964 1.05472C17.5127 0.977583 17.4701 0.879956 17.4701 0.765854C17.4701 0.65135 17.5127 0.554115 17.5964 0.476975C17.678 0.401443 17.7826 0.363281 17.9081 0.363281C18.0328 0.363281 18.137 0.399841 18.2182 0.472159C18.3019 0.546084 18.3458 0.644118 18.3458 0.75581C18.3458 0.874331 18.3035 0.974367 18.2203 1.05271C18.139 1.12945 18.0336 1.16843 17.9081 1.16843ZM17.9081 0.563763C17.8341 0.563763 17.7766 0.58345 17.7332 0.624029C17.6909 0.663 17.6716 0.707999 17.6716 0.765854C17.6716 0.823709 17.6913 0.868707 17.7332 0.907277C17.777 0.947856 17.8341 0.967542 17.9081 0.967542C17.9817 0.967542 18.0389 0.947453 18.0823 0.906473C18.1249 0.866296 18.1446 0.818485 18.1446 0.755408C18.1446 0.700767 18.1253 0.658579 18.0843 0.622018C18.0409 0.583046 17.9829 0.563763 17.9081 0.563763Z" fill="white"/>
<path d="M20.9056 3.32547C20.6928 3.32547 20.4989 3.28007 20.3284 3.19047C20.1562 3.10007 20.0194 2.97231 19.9221 2.8112C19.8248 2.6501 19.7757 2.46569 19.7757 2.26239C19.7757 2.0595 19.8252 1.87508 19.9221 1.71397C20.0194 1.55286 20.1562 1.4251 20.3284 1.33471C20.4989 1.24511 20.6928 1.19971 20.9056 1.19971C21.1184 1.19971 21.3118 1.24511 21.4812 1.33471C21.6521 1.4251 21.7881 1.55246 21.8854 1.71357C21.9828 1.87468 22.0322 2.0595 22.0322 2.26239C22.0322 2.46529 21.9828 2.64969 21.8854 2.8112C21.7881 2.97231 21.6521 3.09967 21.4812 3.19007C21.3122 3.28007 21.1184 3.32547 20.9056 3.32547ZM20.9056 1.40099C20.7258 1.40099 20.5633 1.43876 20.4221 1.51269C20.2829 1.58581 20.1727 1.68866 20.0943 1.81763C20.0162 1.947 19.9764 2.09646 19.9764 2.26239C19.9764 2.42832 20.0158 2.57777 20.0943 2.70714C20.1723 2.83651 20.2825 2.93897 20.4217 3.01209C20.5629 3.08642 20.7254 3.12378 20.9052 3.12378C21.0846 3.12378 21.2467 3.08642 21.3866 3.01209C21.525 2.93897 21.6344 2.83611 21.7129 2.70674C21.7909 2.57737 21.8307 2.42752 21.8307 2.26199C21.8307 2.09646 21.7913 1.9466 21.7129 1.81723C21.6348 1.68786 21.525 1.585 21.3866 1.51188C21.2475 1.43876 21.0854 1.40099 20.9056 1.40099ZM20.9056 2.88071C20.7386 2.88071 20.5987 2.82285 20.4889 2.70915C20.3803 2.59666 20.3251 2.4464 20.3251 2.26239C20.3251 2.07838 20.3803 1.92852 20.4889 1.81602C20.5987 1.70232 20.7386 1.64447 20.9056 1.64447C21.0725 1.64447 21.2125 1.70232 21.3211 1.81643C21.4285 1.92892 21.4828 2.07919 21.4828 2.26239C21.4828 2.4456 21.4285 2.59585 21.3211 2.70835C21.2125 2.82285 21.0729 2.88071 20.9056 2.88071ZM20.9056 1.84575C20.7937 1.84575 20.7049 1.88151 20.6337 1.95584C20.5613 2.03097 20.5263 2.13142 20.5263 2.2632C20.5263 2.39498 20.5613 2.49541 20.6337 2.57055C20.7049 2.64447 20.7937 2.68063 20.9056 2.68063C21.017 2.68063 21.1051 2.64487 21.1751 2.57135C21.2467 2.49622 21.2813 2.39538 21.2813 2.2636C21.2813 2.13182 21.2467 2.03097 21.1751 1.95584C21.1055 1.88151 21.017 1.84575 20.9056 1.84575Z" fill="white"/>
<path d="M25.6387 3.29801H24.8949V2.21122C24.8949 2.08909 24.8708 1.99989 24.8229 1.94605C24.7775 1.89503 24.7099 1.87052 24.6166 1.87052C24.5072 1.87052 24.4243 1.90186 24.3624 1.96654C24.3 2.03123 24.2686 2.13489 24.2686 2.2739V3.29841H23.5249V1.2289H24.2441V1.33738C24.2847 1.31287 24.3278 1.29117 24.3736 1.27269C24.4919 1.22528 24.6226 1.20117 24.7626 1.20117C25.0204 1.20117 25.2332 1.28073 25.3945 1.43822C25.5566 1.59612 25.6387 1.82834 25.6387 2.12846V3.29801ZM25.096 3.09712H25.4375V2.12765C25.4375 1.88378 25.3756 1.69976 25.2541 1.58124C25.1298 1.46031 24.9693 1.40125 24.7626 1.40125C24.6488 1.40125 24.543 1.42054 24.4488 1.45831C24.3567 1.49527 24.2791 1.5479 24.218 1.615L24.043 1.80664V1.42898H23.726V3.09672H24.0675V2.2731C24.0675 2.08025 24.1178 1.92998 24.2172 1.82673C24.3177 1.72227 24.4521 1.66924 24.6166 1.66924C24.769 1.66924 24.8889 1.71744 24.9734 1.81226C25.055 1.90386 25.096 2.03806 25.096 2.21082V3.09712Z" fill="white"/>
</svg>
