<svg width="70" height="9" viewBox="0 0 70 9" fill="none" xmlns="http://www.w3.org/2000/svg">
<path d="M1.0777 7.87784C0.696473 7.70764 0.383648 7.46512 0.140278 7.14972L1.00559 6.10832C1.37091 6.60349 1.78767 6.85081 2.25532 6.85081C2.88999 6.85081 3.20706 6.47797 3.20706 5.73229V2.52143H0.842286V1.26782H4.75476V5.6456C4.75476 6.47478 4.54957 7.09652 4.13971 7.51138C3.72932 7.92623 3.12699 8.13314 2.3322 8.13314C1.87674 8.13367 1.4584 8.04804 1.0777 7.87784Z" fill="white"/>
<path d="M15.0781 2.83012V8.01793H13.6555V7.40098C13.4567 7.62596 13.2197 7.79775 12.944 7.91688C12.6683 8.03602 12.3703 8.09505 12.05 8.09505C11.3708 8.09505 10.8321 7.89934 10.435 7.50682C10.0378 7.11483 9.83901 6.53297 9.83901 5.76124V2.83012H11.3385V5.53945C11.3385 6.37501 11.6879 6.79305 12.3862 6.79305C12.7451 6.79305 13.0336 6.67604 13.2515 6.44096C13.4694 6.20641 13.5781 5.85751 13.5781 5.39479V2.82959H15.0781V2.83012Z" fill="white"/>
<path d="M24.8495 3.33161C25.2434 3.71721 25.4407 4.28949 25.4407 5.04793V8.01786H23.9412V5.27929C23.9412 4.86816 23.8511 4.56074 23.6719 4.35863C23.4927 4.15599 23.2329 4.05493 22.8935 4.05493C22.5155 4.05493 22.2143 4.17248 21.99 4.40703C21.7657 4.64159 21.6539 4.99049 21.6539 5.45321V8.01786H20.1544V2.83005H21.5865V3.43745C21.7854 3.21885 22.0319 3.05025 22.3267 2.93111C22.6215 2.8125 22.9449 2.75293 23.2975 2.75293C23.9375 2.75293 24.455 2.946 24.8495 3.33161Z" fill="white"/>
<path d="M31.5493 7.7525C31.1103 7.52433 30.7672 7.20788 30.5207 6.8026C30.2741 6.39732 30.1506 5.93778 30.1506 5.42346C30.1506 4.90915 30.2741 4.44962 30.5207 4.04488C30.7672 3.64013 31.1103 3.32313 31.5493 3.09496C31.9883 2.86679 32.483 2.75244 33.0345 2.75244C33.579 2.75244 34.0551 2.86679 34.4618 3.09496C34.8685 3.32313 35.1649 3.64917 35.351 4.0736L34.1877 4.70014C33.9183 4.22465 33.5307 3.9869 33.0244 3.9869C32.6336 3.9869 32.3096 4.11561 32.0535 4.3725C31.7969 4.62992 31.6691 4.97989 31.6691 5.42346C31.6691 5.86704 31.7975 6.21754 32.0535 6.47443C32.3096 6.73132 32.6336 6.86003 33.0244 6.86003C33.5371 6.86003 33.9247 6.62229 34.1877 6.14627L35.351 6.78291C35.1649 7.19458 34.8685 7.51583 34.4618 7.74719C34.0551 7.97855 33.579 8.09449 33.0345 8.09449C32.483 8.09502 31.9883 7.9812 31.5493 7.7525Z" fill="white"/>
<path d="M43.3101 7.76743C43.1627 7.877 42.9813 7.95891 42.7666 8.01316C42.5519 8.06794 42.326 8.09506 42.089 8.09506C41.4739 8.09506 40.9978 7.93763 40.6616 7.62277C40.325 7.3079 40.1569 6.84518 40.1569 6.23406V4.10289H39.3589V2.94555H40.1569V1.68237H41.6563V2.94555H42.9442V4.10289H41.6563V6.21439C41.6563 6.43299 41.7125 6.60159 41.8244 6.72073C41.9363 6.83986 42.0948 6.89889 42.3005 6.89889C42.5375 6.89889 42.7396 6.83454 42.9061 6.70583L43.3101 7.76743Z" fill="white"/>
<path d="M47.9145 1.86577C47.7416 1.70514 47.6547 1.50569 47.6547 1.26795C47.6547 1.03021 47.7411 0.830759 47.9145 0.670136C48.0873 0.509512 48.3116 0.429199 48.5873 0.429199C48.8631 0.429199 49.0873 0.506325 49.2602 0.660566C49.433 0.814806 49.52 1.00787 49.52 1.23923C49.52 1.48974 49.4336 1.69716 49.2602 1.86098C49.0873 2.02479 48.8631 2.1067 48.5873 2.1067C48.3122 2.10723 48.0879 2.02639 47.9145 1.86577ZM47.8376 2.83003H49.3371V8.01784H47.8376V2.83003Z" fill="white"/>
<path d="M55.4081 7.7525C54.9754 7.52433 54.6371 7.20788 54.3938 6.8026C54.1504 6.39732 54.0284 5.93778 54.0284 5.42346C54.0284 4.90915 54.1504 4.44962 54.3938 4.04488C54.6371 3.64013 54.9754 3.32313 55.4081 3.09496C55.8407 2.86679 56.3291 2.75244 56.8741 2.75244C57.4186 2.75244 57.9059 2.86679 58.3354 3.09496C58.7649 3.32313 59.101 3.63959 59.3449 4.04488C59.5883 4.45016 59.7102 4.90968 59.7102 5.42346C59.7102 5.93778 59.5883 6.39732 59.3449 6.8026C59.101 7.20735 58.7649 7.52433 58.3354 7.7525C57.9059 7.98067 57.4186 8.09502 56.8741 8.09502C56.3291 8.09502 55.8402 7.9812 55.4081 7.7525ZM57.8205 6.47018C58.0671 6.2101 58.1906 5.86119 58.1906 5.424C58.1906 4.9868 58.0671 4.63844 57.8205 4.37782C57.574 4.11721 57.258 3.98743 56.8736 3.98743C56.4892 3.98743 56.1721 4.11774 55.9218 4.37782C55.6721 4.63791 55.547 4.9868 55.547 5.424C55.547 5.86119 55.6721 6.2101 55.9218 6.47018C56.1716 6.7308 56.4892 6.86056 56.8736 6.86056C57.258 6.8611 57.574 6.7308 57.8205 6.47018Z" fill="white"/>
<path d="M69.0866 3.33161C69.4806 3.71721 69.6778 4.28949 69.6778 5.04793V8.01786H68.1784V5.27929C68.1784 4.86816 68.0882 4.56074 67.909 4.35863C67.7293 4.15599 67.47 4.05493 67.1306 4.05493C66.7526 4.05493 66.4514 4.17248 66.2272 4.40703C66.0029 4.64159 65.891 4.99049 65.891 5.45321V8.01786H64.3915V2.83005H65.8237V3.43745C66.0225 3.21885 66.269 3.05025 66.5638 2.93111C66.8587 2.8125 67.1821 2.75293 67.5347 2.75293C68.1747 2.75293 68.6927 2.946 69.0866 3.33161Z" fill="white"/>
</svg>
