<svg width="42" height="37" viewBox="0 0 42 37" fill="none" xmlns="http://www.w3.org/2000/svg">
<path d="M35.2892 36.8666L35.18 36.7543C35.1683 36.7421 35.1572 36.7299 35.146 36.7171C35.1365 36.7059 35.1269 36.6953 35.1163 36.6846C34.751 36.3288 34.3046 36.048 33.7897 35.8491C33.0824 35.5768 32.2956 35.4959 31.452 35.6076L31.3019 35.6273V34.8258C31.3019 34.3136 31.1731 33.8312 30.9191 33.3929C30.6694 32.9637 30.3274 32.6169 29.9027 32.3627C29.4663 32.1021 28.9791 31.9697 28.4541 31.9697L28.4144 31.9702C27.9123 31.9862 27.4425 32.1207 27.0204 32.3691C26.8121 32.4914 26.6206 32.6393 26.451 32.8079L26.3587 32.8999L26.2654 32.809C26.1021 32.6494 25.9367 32.5191 25.7585 32.4101C25.7384 32.3978 25.7177 32.3861 25.697 32.3749L25.6016 32.3212V32.2436C25.5973 30.7331 25.592 29.8385 25.5857 29.5853C25.5857 29.5545 25.5846 29.5279 25.5835 29.5018C25.5825 29.4747 25.5814 29.4481 25.5814 29.4215C25.5539 28.8593 25.5189 28.4785 25.468 28.1897C25.4648 28.1801 25.4621 28.169 25.4605 28.1567C25.4494 28.1174 25.4367 28.0786 25.4229 28.0376L25.4065 27.9881C25.3439 27.7541 25.2649 27.5217 25.1716 27.2972L25.1684 27.2893C25.1673 27.2861 25.1663 27.2829 25.1647 27.2808C25.1535 27.2611 25.1445 27.2425 25.1371 27.2249C25.1302 27.2137 25.1249 27.202 25.1212 27.1893C25.1079 27.1589 25.0936 27.1265 25.082 27.0957L25.0724 27.0765C25.0496 27.0313 25.0289 26.9898 25.0056 26.9462L24.9977 26.9292C24.9897 26.9068 24.977 26.885 24.9627 26.86C24.9192 26.7797 24.8757 26.7063 24.829 26.6292L24.7829 26.5516C24.7691 26.5324 24.7559 26.5106 24.7447 26.4893C24.7172 26.4436 24.6928 26.4064 24.6679 26.3718C24.6514 26.3484 24.6371 26.3282 24.6228 26.308C24.6016 26.2782 24.5804 26.2489 24.5608 26.2197C24.5252 26.1718 24.4855 26.1202 24.4457 26.0686C24.4255 26.0404 24.4075 26.0186 24.3884 25.9958C24.2792 25.8633 24.171 25.7437 24.0639 25.6373H24.0597L24.021 25.5985C23.9484 25.5261 23.8672 25.4527 23.7893 25.3825C23.6323 25.249 23.4659 25.1262 23.2978 25.0198L23.2909 25.0155C23.2426 24.981 23.1891 24.948 23.126 24.9145L23.1143 24.9076C23.0963 24.8953 23.0862 24.8895 23.0783 24.8874L23.065 24.8831L23.0528 24.8762C22.995 24.8432 22.9441 24.8156 22.8927 24.79L22.8879 24.7874C22.8407 24.7613 22.8084 24.7459 22.7755 24.7342L22.7554 24.7251C22.7023 24.6985 22.6525 24.6741 22.6048 24.6571L22.5989 24.6549C22.5035 24.6156 22.4224 24.5853 22.3439 24.5603L22.337 24.5576C22.2676 24.531 22.1891 24.5081 22.0899 24.4853L22.0788 24.4821C21.9977 24.456 21.915 24.4374 21.8323 24.4262L21.8243 24.4246C21.2071 24.3007 20.5836 24.3204 19.9717 24.4842L19.9664 24.4853C19.9023 24.4996 19.837 24.5214 19.7676 24.5443L19.7586 24.5475C19.6557 24.5805 19.5566 24.622 19.4521 24.6656L19.4298 24.6751C19.0396 24.8427 18.6669 25.0698 18.3227 25.3496L18.2893 25.3772C18.2061 25.4464 18.1276 25.5112 18.0523 25.5846C17.9701 25.6628 17.9017 25.733 17.8429 25.799C17.8233 25.8202 17.8047 25.8421 17.7856 25.8639C17.7634 25.8894 17.7411 25.9149 17.7172 25.941L17.7146 25.9442C17.6764 25.9904 17.6404 26.0341 17.608 26.0809L17.6022 26.0883C17.4951 26.2218 17.3885 26.3729 17.2766 26.5505C17.1663 26.7329 17.0741 26.9138 17.0057 27.0499C16.9664 27.1249 16.932 27.2015 16.9055 27.2738L16.9012 27.2845C16.862 27.3674 16.8328 27.435 16.8122 27.4914C16.8005 27.5243 16.7878 27.5568 16.7761 27.5882C16.757 27.6392 16.739 27.6876 16.7236 27.7323C16.6881 27.8392 16.6669 27.92 16.6605 27.9727L16.6457 28.0892H16.6245C16.6165 28.1184 16.608 28.1482 16.6001 28.1791C16.5889 28.2168 16.582 28.2514 16.5736 28.2934C16.5661 28.3296 16.5592 28.3695 16.5518 28.4088L16.5391 28.4849C16.538 28.5083 16.5333 28.5306 16.5295 28.5514C16.5258 28.5785 16.5221 28.6088 16.5184 28.6397C16.5105 28.7109 16.5025 28.788 16.4946 28.8769L16.4935 28.8838C16.4919 28.895 16.4914 28.9056 16.4903 28.9162C16.4892 28.9311 16.4882 28.946 16.4861 28.9614C16.4824 29.0029 16.4786 29.0471 16.4786 29.0939L16.4781 29.1034C16.4749 29.1465 16.4718 29.1949 16.4686 29.2444L16.4659 29.3252C16.4622 29.3997 16.459 29.4784 16.4558 29.5614L16.4553 29.58C16.4527 29.6561 16.45 29.738 16.4479 29.8247L16.4474 29.8486C16.4452 29.9374 16.4431 30.0289 16.441 30.1257V30.1353C16.4315 30.6331 16.4277 31.2628 16.4272 32.1798C16.4272 32.6483 16.4283 33.1791 16.4299 33.7727L16.4304 33.8791L16.327 33.9025C15.7782 34.028 15.2374 34.2375 14.7199 34.5258L14.7014 34.5365C14.0455 34.9167 13.484 35.3922 13.0333 35.9496L12.9177 36.0922L12.8186 35.9374C12.8106 35.9246 12.8026 35.9113 12.7952 35.898C12.7894 35.8879 12.7841 35.8778 12.7777 35.8682C12.3615 35.2369 11.835 34.6949 11.2136 34.2578C10.6012 33.8275 9.88273 33.4993 9.07733 33.2823C8.30534 33.0744 7.4432 32.9685 6.51532 32.9685H4.16328C3.67813 32.9685 3.21419 33.0845 2.78471 33.3137L2.59012 33.4174V31.4421H1.97825L1.36478 29.5688H2.59012V28.9061H1.97825L1.36531 27.0244H2.59012V17.7556H2.18132L0.698303 14.9085H3.44642V11.0147H6.52115V7.57037H9.77934V2.66977H15.1351V1.31085H17.783L21.0322 0.13916L24.2813 1.31085H26.9292V2.66977H32.285V7.57037H35.5432V11.0147H38.6179V14.9085H41.3655L41.0744 15.4749L39.883 17.7556H39.4747V27.0255H40.725L40.112 28.9051H39.4747V29.5672H40.7255L40.112 31.4442H39.4747V32.325L39.2674 32.1824C38.7891 31.8537 38.2478 31.6872 37.6593 31.6872C37.2743 31.6872 36.9005 31.7622 36.549 31.9106C36.2043 32.0553 35.8894 32.2648 35.6142 32.5334L35.5845 32.5638C35.0273 33.1451 34.7325 33.8679 34.7325 34.6529C34.7325 35.3672 34.962 36.023 35.3968 36.5496L35.4636 36.6304L35.3968 36.7208C35.392 36.7283 35.3873 36.7357 35.3825 36.7426L35.2892 36.8666ZM32.1715 35.2938C32.7781 35.2938 33.3523 35.397 33.8852 35.6018C34.2091 35.7268 34.5076 35.8826 34.7786 36.0677C34.5739 35.6363 34.4673 35.1571 34.4673 34.6519C34.4673 33.7972 34.7881 33.0105 35.3947 32.3771L35.4276 32.3436C35.7287 32.05 36.0713 31.8218 36.4466 31.6644C36.8311 31.5027 37.2393 31.4203 37.6598 31.4203C38.2192 31.4203 38.7398 31.558 39.2101 31.8308V31.1772H39.9201L40.3597 29.8321H39.2101V28.6381H39.9201L40.3597 27.2903H39.2101V17.4886H39.7234L40.9318 15.1734H38.3538V11.2796H35.2791V7.83524H32.0209V2.93464H26.6652V1.57572H24.2363L21.0332 0.420512L17.8302 1.57572H15.4012V2.93464H10.0455V7.83524H6.78732V11.2796H3.71259V15.1734H1.13467L1.2264 15.3516L2.34251 17.4886H2.85576V27.2893H1.7317L2.17125 28.6391H2.85576V29.8337H1.73223L2.17125 31.1751H2.85576V32.9818C3.2688 32.7957 3.70782 32.701 4.16434 32.701H6.51638C7.46706 32.701 8.35253 32.8095 9.14679 33.0238C9.98189 33.2488 10.729 33.5903 11.3668 34.0381C11.9893 34.4758 12.52 35.0141 12.9458 35.639C13.3954 35.1167 13.941 34.6678 14.5704 34.3035L14.5911 34.2918C15.0995 34.0088 15.6282 33.7987 16.1658 33.6658C16.1642 33.1142 16.1637 32.6185 16.1637 32.1776C16.1637 31.2591 16.1679 30.6278 16.1775 30.1305V30.1193C16.1796 30.0209 16.1817 29.9289 16.1838 29.8401L16.1844 29.814C16.1865 29.7273 16.1891 29.6444 16.1923 29.5651L16.1929 29.5481C16.196 29.4657 16.1992 29.3864 16.2029 29.3119V29.2699L16.2061 29.2236C16.2093 29.1752 16.2119 29.1279 16.2151 29.0854C16.2151 29.0285 16.2194 28.9774 16.2241 28.9306L16.2247 28.9242C16.2263 28.913 16.2268 28.9029 16.2279 28.8923C16.2289 28.8769 16.2305 28.862 16.2326 28.8455C16.2406 28.7556 16.2491 28.6785 16.257 28.6046C16.2613 28.5695 16.2655 28.5365 16.2697 28.5067L16.2708 28.4987C16.2734 28.4865 16.2761 28.4758 16.2766 28.4663L16.2782 28.4466L16.2931 28.3562C16.3005 28.3152 16.3079 28.2743 16.3159 28.2365C16.3249 28.1897 16.3339 28.1472 16.3471 28.102C16.3615 28.0472 16.3768 27.9929 16.3922 27.9387C16.3949 27.9227 16.3996 27.9083 16.4055 27.8961C16.4171 27.8307 16.4394 27.7488 16.4744 27.6435C16.4903 27.5956 16.5094 27.544 16.5301 27.4898C16.5417 27.4589 16.5534 27.4275 16.5656 27.3946C16.5889 27.3313 16.6202 27.2589 16.6616 27.1717C16.6918 27.0903 16.73 27.0052 16.7729 26.9244C16.8418 26.7856 16.9378 26.5989 17.0539 26.4064C17.1716 26.2197 17.283 26.0612 17.3954 25.9208C17.433 25.8665 17.4739 25.8176 17.5131 25.7703L17.5226 25.7591C17.5454 25.7341 17.5672 25.7091 17.5884 25.6846C17.6085 25.6612 17.6287 25.6384 17.6488 25.6165C17.7114 25.5463 17.7846 25.4713 17.8715 25.3889C17.9532 25.3097 18.0396 25.2379 18.1234 25.1687L18.1578 25.14C18.5221 24.8438 18.9155 24.6039 19.3296 24.4262L19.353 24.4167C19.4585 24.3725 19.5672 24.3273 19.6796 24.2911L19.6875 24.2885C19.7591 24.2651 19.8328 24.2406 19.9086 24.2231C20.5581 24.0502 21.2193 24.0289 21.8747 24.1598C21.9696 24.1731 22.064 24.1943 22.1567 24.2236C22.2644 24.2481 22.3513 24.2741 22.4309 24.3039C22.5146 24.331 22.6 24.3624 22.6997 24.4034C22.7612 24.4257 22.8195 24.455 22.8757 24.4831C22.9287 24.5034 22.9754 24.5273 23.0146 24.5491C23.0671 24.5752 23.1186 24.6028 23.1758 24.6358C23.2055 24.6469 23.231 24.6618 23.258 24.6799C23.3275 24.7172 23.3879 24.7549 23.4431 24.7943C23.6212 24.9065 23.7967 25.0363 23.9648 25.1799C24.0396 25.2474 24.1212 25.3208 24.1949 25.3932C24.2039 25.399 24.2119 25.4059 24.2193 25.4139C24.3402 25.5309 24.4669 25.6697 24.5926 25.8218C24.6143 25.8479 24.6366 25.8745 24.6594 25.9069C24.6976 25.9564 24.7389 26.0101 24.7755 26.0596L24.7797 26.066C24.7983 26.0936 24.8179 26.1213 24.8386 26.15C24.854 26.1713 24.8693 26.1926 24.8847 26.2149C24.9133 26.2543 24.9425 26.2989 24.9749 26.3532L24.9802 26.3628C24.9855 26.3734 24.9934 26.3867 25.0003 26.3957L25.0077 26.4074L25.0565 26.4893C25.1042 26.5696 25.1498 26.6452 25.1938 26.7271C25.2092 26.7542 25.2272 26.7861 25.2426 26.8244C25.2659 26.868 25.2866 26.909 25.3094 26.9542L25.328 26.9935C25.3312 27.0026 25.3349 27.0116 25.3391 27.0212H25.3434L25.3762 27.1058C25.3773 27.109 25.3784 27.1116 25.3794 27.1143L25.381 27.118C25.3852 27.1292 25.3895 27.1382 25.3943 27.1457L25.4001 27.1568C25.4059 27.1685 25.4112 27.1797 25.4171 27.1962C25.5141 27.4291 25.5957 27.6701 25.661 27.9131L25.6732 27.9504C25.6869 27.9919 25.7018 28.0349 25.714 28.0796L25.7177 28.0833L25.7251 28.1238C25.7797 28.4264 25.8168 28.8232 25.8455 29.4087V29.4151C25.8455 29.4396 25.8465 29.464 25.8476 29.489C25.8487 29.5183 25.8497 29.5481 25.8497 29.5789C25.8561 29.8268 25.8614 30.6964 25.8656 32.1622C25.8757 32.1681 25.8858 32.1739 25.8964 32.1803C26.0576 32.2792 26.2087 32.3936 26.3566 32.5281C26.5178 32.3803 26.6954 32.2494 26.8858 32.1372C27.3465 31.866 27.8582 31.7192 28.4075 31.7016L28.4515 31.7011C29.0268 31.7011 29.5596 31.8457 30.0379 32.1319C30.5018 32.4095 30.8751 32.7882 31.1477 33.2568C31.4255 33.7365 31.5665 34.2636 31.5665 34.8237V35.3236C31.7717 35.3045 31.9732 35.2938 32.1715 35.2938Z" fill="white"/>
</svg>
