<svg width="66" height="66" viewBox="0 0 66 66" fill="none" xmlns="http://www.w3.org/2000/svg">
<circle cx="33" cy="33" r="33" fill="#FFE0A0"/>
<path d="M27.75 20.5H38.25C42.25 20.5 45.5 23.75 45.5 27.75V38.25C45.5 40.1728 44.7362 42.0169 43.3765 43.3765C42.0169 44.7362 40.1728 45.5 38.25 45.5H27.75C23.75 45.5 20.5 42.25 20.5 38.25V27.75C20.5 25.8272 21.2638 23.9831 22.6235 22.6235C23.9831 21.2638 25.8272 20.5 27.75 20.5ZM27.5 23C26.3065 23 25.1619 23.4741 24.318 24.318C23.4741 25.1619 23 26.3065 23 27.5V38.5C23 40.9875 25.0125 43 27.5 43H38.5C39.6935 43 40.8381 42.5259 41.682 41.682C42.5259 40.8381 43 39.6935 43 38.5V27.5C43 25.0125 40.9875 23 38.5 23H27.5ZM39.5625 24.875C39.9769 24.875 40.3743 25.0396 40.6674 25.3326C40.9604 25.6257 41.125 26.0231 41.125 26.4375C41.125 26.8519 40.9604 27.2493 40.6674 27.5424C40.3743 27.8354 39.9769 28 39.5625 28C39.1481 28 38.7507 27.8354 38.4576 27.5424C38.1646 27.2493 38 26.8519 38 26.4375C38 26.0231 38.1646 25.6257 38.4576 25.3326C38.7507 25.0396 39.1481 24.875 39.5625 24.875ZM33 26.75C34.6576 26.75 36.2473 27.4085 37.4194 28.5806C38.5915 29.7527 39.25 31.3424 39.25 33C39.25 34.6576 38.5915 36.2473 37.4194 37.4194C36.2473 38.5915 34.6576 39.25 33 39.25C31.3424 39.25 29.7527 38.5915 28.5806 37.4194C27.4085 36.2473 26.75 34.6576 26.75 33C26.75 31.3424 27.4085 29.7527 28.5806 28.5806C29.7527 27.4085 31.3424 26.75 33 26.75ZM33 29.25C32.0054 29.25 31.0516 29.6451 30.3483 30.3483C29.6451 31.0516 29.25 32.0054 29.25 33C29.25 33.9946 29.6451 34.9484 30.3483 35.6517C31.0516 36.3549 32.0054 36.75 33 36.75C33.9946 36.75 34.9484 36.3549 35.6517 35.6517C36.3549 34.9484 36.75 33.9946 36.75 33C36.75 32.0054 36.3549 31.0516 35.6517 30.3483C34.9484 29.6451 33.9946 29.25 33 29.25Z" fill="#804A33"/>
</svg>
