<svg width="53" height="7" viewBox="0 0 53 7" fill="none" xmlns="http://www.w3.org/2000/svg">
<path d="M0.783081 6.13087C0.493875 6.00231 0.256559 5.8191 0.0719337 5.58086L0.728378 4.79419C1.00552 5.16824 1.32168 5.35506 1.67645 5.35506C2.15792 5.35506 2.39845 5.07342 2.39845 4.51014V2.08467H0.604491V1.1377H3.57257V4.44465C3.57257 5.07101 3.41691 5.54067 3.10598 5.85405C2.79465 6.16743 2.33772 6.32372 1.73477 6.32372C1.38925 6.32413 1.07189 6.25944 0.783081 6.13087Z" fill="white"/>
<path d="M11.4041 2.3173V6.23615H10.3249V5.7701C10.174 5.94005 9.99424 6.06982 9.78508 6.15982C9.57592 6.24981 9.34987 6.2944 9.10692 6.2944C8.59165 6.2944 8.18298 6.14656 7.88171 5.85005C7.58043 5.55395 7.4296 5.11441 7.4296 4.53145V2.3173H8.56712V4.36391C8.56712 4.99509 8.83219 5.31087 9.36193 5.31087C9.63424 5.31087 9.85306 5.22249 10.0184 5.04491C10.1837 4.86773 10.2662 4.60417 10.2662 4.25463V2.31689H11.4041V2.3173Z" fill="white"/>
<path d="M18.8169 2.69641C19.1157 2.98769 19.2653 3.41999 19.2653 3.99291V6.23638H18.1278V4.16768C18.1278 3.85711 18.0594 3.62489 17.9235 3.47221C17.7875 3.31914 17.5904 3.24281 17.333 3.24281C17.0462 3.24281 16.8177 3.3316 16.6476 3.50878C16.4775 3.68596 16.3926 3.94952 16.3926 4.29906V6.23638H15.2551V2.31753H16.3415V2.77636C16.4923 2.61123 16.6794 2.48387 16.903 2.39387C17.1267 2.30428 17.372 2.25928 17.6395 2.25928C18.125 2.25928 18.5176 2.40512 18.8169 2.69641Z" fill="white"/>
<path d="M23.8995 6.03581C23.5664 5.86346 23.3062 5.62441 23.1191 5.31826C22.9321 5.01211 22.8384 4.66498 22.8384 4.27647C22.8384 3.88796 22.9321 3.54083 23.1191 3.23509C23.3062 2.92934 23.5664 2.68988 23.8995 2.51753C24.2325 2.34517 24.6078 2.25879 25.0261 2.25879C25.4392 2.25879 25.8004 2.34517 26.109 2.51753C26.4175 2.68988 26.6423 2.93617 26.7835 3.25679L25.901 3.73007C25.6967 3.37089 25.4026 3.19129 25.0185 3.19129C24.722 3.19129 24.4763 3.28852 24.282 3.48257C24.0873 3.67703 23.9904 3.94139 23.9904 4.27647C23.9904 4.61154 24.0877 4.87631 24.282 5.07036C24.4763 5.26442 24.722 5.36165 25.0185 5.36165C25.4075 5.36165 25.7015 5.18206 25.901 4.82248L26.7835 5.30339C26.6423 5.61436 26.4175 5.85703 26.109 6.0318C25.8004 6.20657 25.4392 6.29415 25.0261 6.29415C24.6078 6.29455 24.2325 6.20857 23.8995 6.03581Z" fill="white"/>
<path d="M32.8214 6.04731C32.7096 6.13008 32.5721 6.19195 32.4091 6.23293C32.2462 6.27432 32.0749 6.2948 31.8951 6.2948C31.4285 6.2948 31.0673 6.17588 30.8123 5.93803C30.5569 5.70019 30.4294 5.35064 30.4294 4.88901V3.27913H29.824V2.40488H30.4294V1.45068H31.5669V2.40488H32.5439V3.27913H31.5669V4.87415C31.5669 5.03928 31.6095 5.16664 31.6944 5.25663C31.7792 5.34663 31.8995 5.39122 32.0556 5.39122C32.2354 5.39122 32.3886 5.34261 32.5149 5.24538L32.8214 6.04731Z" fill="white"/>
<path d="M36.3144 1.58908C36.1833 1.46775 36.1173 1.31709 36.1173 1.1375C36.1173 0.957905 36.1829 0.807243 36.3144 0.685909C36.4456 0.564574 36.6157 0.503906 36.8249 0.503906C37.034 0.503906 37.2042 0.562167 37.3353 0.678679C37.4664 0.795192 37.5324 0.941029 37.5324 1.1158C37.5324 1.30503 37.4668 1.46172 37.3353 1.58546C37.2042 1.70921 37.034 1.77109 36.8249 1.77109C36.6161 1.77149 36.446 1.71042 36.3144 1.58908ZM36.2561 2.31748H37.3936V6.23633H36.2561V2.31748Z" fill="white"/>
<path d="M41.9992 6.03581C41.671 5.86346 41.4144 5.62441 41.2297 5.31826C41.0451 5.01211 40.9526 4.66498 40.9526 4.27647C40.9526 3.88796 41.0451 3.54083 41.2297 3.23509C41.4144 2.92934 41.671 2.68988 41.9992 2.51753C42.3274 2.34517 42.6979 2.25879 43.1114 2.25879C43.5245 2.25879 43.8941 2.34517 44.22 2.51753C44.5458 2.68988 44.8008 2.92894 44.9858 3.23509C45.1704 3.54124 45.2629 3.88836 45.2629 4.27647C45.2629 4.66498 45.1704 5.01211 44.9858 5.31826C44.8008 5.62401 44.5458 5.86346 44.22 6.03581C43.8941 6.20817 43.5245 6.29455 43.1114 6.29455C42.6979 6.29455 42.327 6.20857 41.9992 6.03581ZM43.8294 5.06716C44.0164 4.87069 44.1101 4.60712 44.1101 4.27687C44.1101 3.94662 44.0164 3.68346 43.8294 3.4866C43.6423 3.28973 43.4026 3.19169 43.111 3.19169C42.8194 3.19169 42.5788 3.29013 42.389 3.4866C42.1995 3.68306 42.1046 3.94662 42.1046 4.27687C42.1046 4.60712 42.1995 4.87069 42.389 5.06716C42.5784 5.26402 42.8194 5.36205 43.111 5.36205C43.4026 5.36245 43.6423 5.26402 43.8294 5.06716Z" fill="white"/>
<path d="M52.3761 2.69641C52.6749 2.98769 52.8246 3.41999 52.8246 3.99291V6.23638H51.687V4.16768C51.687 3.85711 51.6186 3.62489 51.4827 3.47221C51.3463 3.31914 51.1496 3.24281 50.8922 3.24281C50.6054 3.24281 50.377 3.3316 50.2068 3.50878C50.0367 3.68596 49.9518 3.94952 49.9518 4.29906V6.23638H48.8143V2.31753H49.9007V2.77636C50.0516 2.61123 50.2386 2.48387 50.4622 2.39387C50.6859 2.30428 50.9312 2.25928 51.1987 2.25928C51.6842 2.25928 52.0772 2.40512 52.3761 2.69641Z" fill="white"/>
</svg>
