<svg width="34" height="5" viewBox="0 0 34 5" fill="none" xmlns="http://www.w3.org/2000/svg">
<path d="M1.50153 4.47787C1.26717 4.47787 1.04766 4.43319 0.849361 4.34437C0.648409 4.25449 0.480859 4.12419 0.351486 3.95719L0.28627 3.87261L0.874811 3.16363L0.975023 3.2998C1.12401 3.5019 1.28414 3.59976 1.46441 3.59976C1.63143 3.59976 1.78572 3.55137 1.78572 3.19928V1.801H0.657953V0.937256H2.7889V3.15779C2.7889 3.58754 2.67702 3.91836 2.45698 4.14121C2.23694 4.36512 1.91563 4.47787 1.50153 4.47787ZM0.630381 3.87474C0.721048 3.96888 0.830802 4.04547 0.957524 4.10185C1.12136 4.17525 1.30482 4.21247 1.50206 4.21247C1.84246 4.21247 2.10067 4.12578 2.26981 3.95506C2.43895 3.7838 2.52485 3.51627 2.52485 3.15886V1.20425H0.92412V1.53614H2.05189V3.20034C2.05189 3.78008 1.68445 3.86676 1.46547 3.86676C1.2449 3.86676 1.04501 3.77262 0.86951 3.587L0.630381 3.87474Z" fill="white"/>
<path d="M6.13616 4.45973C5.77774 4.45973 5.48718 4.35229 5.27297 4.14114C5.05823 3.92892 4.94901 3.61724 4.94901 3.21409V1.68339H5.92938V3.10825C5.92938 3.51778 6.11495 3.5731 6.29629 3.5731C6.43043 3.5731 6.5333 3.53215 6.61177 3.44759C6.69183 3.36142 6.73213 3.22421 6.73213 3.03912V1.68286H7.7125V4.4225H6.76871V4.28155C6.71993 4.31239 6.6685 4.34005 6.61442 4.36292C6.46755 4.42728 6.30636 4.45973 6.13616 4.45973ZM5.21464 1.94879V3.21357C5.21464 3.54279 5.29683 3.79117 5.45907 3.95126C5.6245 4.11454 5.8456 4.19379 6.13616 4.19379C6.27031 4.19379 6.39597 4.16879 6.50997 4.11932C6.6229 4.07039 6.72099 3.99912 6.80264 3.90711L7.03435 3.64437V4.15657H7.44792V1.94879H6.99777V3.03912C6.99777 3.29335 6.93361 3.49172 6.80636 3.62841C6.67698 3.76776 6.50519 3.83851 6.29682 3.83851C6.06087 3.83851 5.6648 3.74329 5.6648 3.10772V1.94879H5.21464Z" fill="white"/>
<path d="M12.6547 4.42303H11.6743V2.98433C11.6743 2.82265 11.6425 2.70457 11.5794 2.6333C11.5195 2.56575 11.4304 2.53331 11.3074 2.53331C11.1632 2.53331 11.0539 2.57479 10.9723 2.66042C10.8901 2.74605 10.8487 2.88328 10.8487 3.06731V4.42356H9.86836V1.68393H10.8164V1.82753C10.8699 1.79508 10.9267 1.76636 10.9871 1.74189C11.143 1.67913 11.3153 1.64722 11.4998 1.64722C11.8397 1.64722 12.1202 1.75253 12.3328 1.96102C12.5465 2.17005 12.6547 2.47746 12.6547 2.87476V4.42303ZM11.9394 4.1571H12.3895V2.8737C12.3895 2.55086 12.3079 2.30726 12.1478 2.15036C11.9839 1.99027 11.7724 1.91208 11.4998 1.91208C11.3498 1.91208 11.2103 1.93762 11.0863 1.98762C10.9649 2.03655 10.8625 2.10622 10.7819 2.19504L10.5513 2.44874V1.94879H10.1335V4.15656H10.5836V3.06624C10.5836 2.81095 10.6499 2.61202 10.7809 2.47533C10.9134 2.33705 11.0905 2.26685 11.3074 2.26685C11.5083 2.26685 11.6663 2.33066 11.7777 2.45618C11.8853 2.57745 11.9394 2.7551 11.9394 2.9838V4.1571Z" fill="white"/>
<path d="M16.1435 4.45981C15.8604 4.45981 15.6016 4.39971 15.3742 4.28163C15.144 4.16196 14.9616 3.99337 14.8317 3.78009C14.7018 3.56681 14.6356 3.32216 14.6356 3.05303C14.6356 2.78391 14.7013 2.53977 14.8317 2.32597C14.9616 2.11269 15.144 1.94409 15.3742 1.82442C15.6016 1.70635 15.8604 1.64624 16.1435 1.64624C16.425 1.64624 16.6758 1.70688 16.889 1.82655C17.108 1.94941 17.2697 2.12758 17.3699 2.35575L17.4192 2.46851L16.6424 2.88709L16.5783 2.77434C16.4728 2.58818 16.3333 2.50148 16.1387 2.50148C15.9876 2.50148 15.8667 2.54882 15.7697 2.64668C15.6727 2.74401 15.6249 2.87752 15.6249 3.0541C15.6249 3.23068 15.6721 3.36364 15.7697 3.4615C15.8667 3.55883 15.9876 3.6067 16.1393 3.6067C16.336 3.6067 16.4754 3.52053 16.5777 3.33491L16.6414 3.2195L17.4197 3.64552L17.3688 3.75829C17.2686 3.97954 17.1074 4.15505 16.8895 4.27897C16.6764 4.39811 16.425 4.45981 16.1435 4.45981ZM16.1435 1.91217C15.9033 1.91217 15.6854 1.96217 15.4961 2.06057C15.3095 2.15736 15.1621 2.29353 15.0576 2.46479C14.9532 2.63605 14.9007 2.8339 14.9007 3.05303C14.9007 3.27216 14.9537 3.47001 15.0576 3.64127C15.1621 3.81253 15.3095 3.94869 15.4961 4.04549C15.6854 4.14388 15.9033 4.19388 16.1435 4.19388C16.3789 4.19388 16.5857 4.14388 16.7591 4.04549C16.8916 3.96996 16.994 3.87423 17.0698 3.75509L16.7384 3.57372C16.5921 3.76891 16.3869 3.87104 16.1393 3.87104C15.9171 3.87104 15.7299 3.79605 15.5825 3.64819C15.4351 3.50033 15.3604 3.30035 15.3604 3.05303C15.3604 2.80572 15.4351 2.60572 15.5825 2.45787C15.7299 2.31001 15.9171 2.23502 16.1393 2.23502C16.3847 2.23502 16.5894 2.33767 16.7379 2.53393L17.0708 2.35469C16.9956 2.23076 16.8927 2.13396 16.7596 2.05897C16.5862 1.96164 16.3789 1.91217 16.1435 1.91217Z" fill="white"/>
<path d="M20.4616 4.4597C20.135 4.4597 19.8752 4.37193 19.6906 4.19854C19.5029 4.02303 19.408 3.76774 19.408 3.43905V2.55562H19.0273V1.73762H19.408V1.13501H20.3884V1.73762H21.0024V2.55562H20.3884V3.42947C20.3884 3.49808 20.4033 3.54861 20.4324 3.57946C20.4425 3.5901 20.4732 3.62307 20.5629 3.62307C20.6466 3.62307 20.7145 3.6018 20.7707 3.55872L20.9117 3.44969L21.2039 4.21663L21.1228 4.27674C21.039 4.33897 20.9361 4.38576 20.8174 4.41608C20.705 4.44533 20.5851 4.4597 20.4616 4.4597ZM19.2925 2.28969H19.6732V3.43905C19.6732 3.69435 19.7378 3.8789 19.8715 4.00389C20.0056 4.12994 20.2044 4.19323 20.4616 4.19323C20.5629 4.19323 20.6609 4.18152 20.7521 4.15812C20.7988 4.14642 20.8417 4.131 20.8805 4.11292L20.7813 3.8523C20.7145 3.87676 20.6413 3.88901 20.5629 3.88901C20.4277 3.88901 20.319 3.84645 20.2394 3.76242C20.162 3.68051 20.1233 3.56882 20.1233 3.42947V2.28969H20.7373V2.00355H20.1233V1.40094H19.6732V2.00355H19.2925V2.28969Z" fill="white"/>
<path d="M24.0506 4.42307H23.0703V1.68344H24.0506V4.42307ZM23.3354 4.15714H23.7855V1.94937H23.3354V4.15714ZM23.5607 1.60419C23.3953 1.60419 23.2569 1.55366 23.1498 1.45367C23.0395 1.35155 22.9833 1.22231 22.9833 1.07126C22.9833 0.919678 23.0395 0.790957 23.1498 0.688839C23.2574 0.588848 23.3953 0.53833 23.5607 0.53833C23.7251 0.53833 23.8624 0.586728 23.9695 0.682463C24.0798 0.780326 24.1376 0.910105 24.1376 1.05796C24.1376 1.21486 24.0819 1.34729 23.9722 1.45101C23.8651 1.55259 23.7261 1.60419 23.5607 1.60419ZM23.5607 0.80373C23.4632 0.80373 23.3873 0.829791 23.3301 0.88351C23.2744 0.935101 23.2489 0.994671 23.2489 1.07126C23.2489 1.14785 23.2749 1.20742 23.3301 1.25848C23.3879 1.3122 23.4632 1.33826 23.5607 1.33826C23.6577 1.33826 23.733 1.31166 23.7903 1.25741C23.8465 1.20423 23.8725 1.14093 23.8725 1.05743C23.8725 0.985097 23.847 0.929248 23.7929 0.880848C23.7357 0.829257 23.6593 0.80373 23.5607 0.80373Z" fill="white"/>
<path d="M27.5119 4.45986C27.2314 4.45986 26.9759 4.39975 26.751 4.28115C26.5241 4.16148 26.3438 3.99235 26.2155 3.77907C26.0872 3.56579 26.0225 3.32167 26.0225 3.05254C26.0225 2.78395 26.0877 2.53982 26.2155 2.32654C26.3438 2.11326 26.5241 1.94413 26.751 1.82446C26.9759 1.70586 27.2314 1.64575 27.5119 1.64575C27.7924 1.64575 28.0474 1.70586 28.2706 1.82446C28.496 1.94413 28.6752 2.11273 28.8035 2.32601C28.9318 2.53929 28.997 2.78395 28.997 3.05254C28.997 3.32114 28.9318 3.56526 28.8035 3.77907C28.6752 3.99235 28.496 4.16094 28.2706 4.28061C28.048 4.39975 27.7924 4.45986 27.5119 4.45986ZM27.5119 1.91222C27.2749 1.91222 27.0607 1.96221 26.8746 2.06008C26.6911 2.15688 26.5458 2.29304 26.4425 2.46377C26.3396 2.63503 26.2871 2.83288 26.2871 3.05254C26.2871 3.27221 26.3391 3.47005 26.4425 3.64131C26.5453 3.81257 26.6906 3.9482 26.8741 4.045C27.0602 4.1434 27.2744 4.19286 27.5114 4.19286C27.7479 4.19286 27.9615 4.1434 28.146 4.045C28.3284 3.9482 28.4727 3.81204 28.576 3.64078C28.6789 3.46952 28.7314 3.27114 28.7314 3.05201C28.7314 2.83288 28.6794 2.63449 28.576 2.46323C28.4732 2.29197 28.3284 2.15581 28.146 2.05901C27.9626 1.96221 27.7489 1.91222 27.5119 1.91222ZM27.5119 3.87108C27.2919 3.87108 27.1073 3.79449 26.9626 3.64397C26.8194 3.49505 26.7468 3.29614 26.7468 3.05254C26.7468 2.80895 26.8194 2.61056 26.9626 2.46164C27.1073 2.31112 27.2919 2.23453 27.5119 2.23453C27.7319 2.23453 27.9165 2.31112 28.0596 2.46217C28.2012 2.61109 28.2728 2.81001 28.2728 3.05254C28.2728 3.29508 28.2012 3.49398 28.0596 3.64291C27.9165 3.79449 27.7325 3.87108 27.5119 3.87108ZM27.5119 2.50099C27.3645 2.50099 27.2473 2.54833 27.1535 2.64673C27.058 2.74618 27.0119 2.87916 27.0119 3.05361C27.0119 3.22806 27.058 3.36102 27.1535 3.46048C27.2473 3.55834 27.3645 3.60621 27.5119 3.60621C27.6588 3.60621 27.7749 3.55888 27.8671 3.46155C27.9615 3.36209 28.0071 3.22859 28.0071 3.05414C28.0071 2.87969 27.9615 2.74618 27.8671 2.64673C27.7754 2.54833 27.6588 2.50099 27.5119 2.50099Z" fill="white"/>
<path d="M33.751 4.42303H32.7706V2.98433C32.7706 2.82265 32.7388 2.70457 32.6757 2.6333C32.6158 2.56575 32.5267 2.53331 32.4037 2.53331C32.2595 2.53331 32.1502 2.57479 32.0686 2.66042C31.9864 2.74605 31.945 2.88328 31.945 3.06731V4.42356H30.9647V1.68393H31.9127V1.82753C31.9663 1.79508 32.023 1.76636 32.0834 1.74189C32.2393 1.67913 32.4116 1.64722 32.5962 1.64722C32.936 1.64722 33.2165 1.75253 33.4291 1.96102C33.6428 2.17005 33.751 2.47746 33.751 2.87476V4.42303ZM33.0357 4.1571H33.4859V2.8737C33.4859 2.55086 33.4042 2.30726 33.2441 2.15036C33.0802 1.99027 32.8687 1.91208 32.5962 1.91208C32.4461 1.91208 32.3067 1.93762 32.1826 1.98762C32.0612 2.03655 31.9588 2.10622 31.8782 2.19504L31.6476 2.44874V1.94879H31.2298V4.15656H31.6799V3.06624C31.6799 2.81095 31.7462 2.61202 31.8772 2.47533C32.0097 2.33705 32.1868 2.26685 32.4037 2.26685C32.6046 2.26685 32.7626 2.33066 32.874 2.45618C32.9816 2.57745 33.0357 2.7551 33.0357 2.9838V4.1571Z" fill="white"/>
</svg>
