<svg width="1920" height="1208" viewBox="0 0 1920 1208" fill="none" xmlns="http://www.w3.org/2000/svg">
<path d="M0 0.444995L116.536 107.721C148.827 137.446 191.111 153.945 235 153.945V153.945L510 153.5L730.5 153.945L1130 153.5H1341.5H1451.5H1685V153.5C1726.84 153.5 1767.19 137.978 1798.24 109.939L1920 0V1208L1803.36 1139.99C1767.43 1119.04 1726.59 1108 1685 1108V1108H1399H1357H1156H1060.5H832.5H721H620H531H235V1108C190.502 1108 146.837 1120.07 108.66 1142.93L0 1208V0.444995Z" fill="#804A33"/>
</svg>
