<svg width="9" height="10" viewBox="0 0 9 10" fill="none" xmlns="http://www.w3.org/2000/svg">
<path d="M4.33522 9.23647H2.14868C1.76615 9.23647 1.43351 9.09384 1.15999 8.8126C0.887274 8.53257 0.748901 8.19347 0.748901 7.80496V2.26538C0.748901 2.01428 0.81165 1.77483 0.935136 1.55385C1.05943 1.33127 1.23359 1.1553 1.45241 1.03115C1.67042 0.907408 1.90854 0.844727 2.15994 0.844727H3.94425C4.57817 0.844727 5.16222 0.915446 5.6803 1.05446C6.20119 1.19427 6.66215 1.40279 7.0503 1.67438C7.43927 1.94638 7.76829 2.28427 8.02934 2.6776C8.28959 3.07053 8.48427 3.52934 8.60775 4.0408C8.68297 4.37467 8.72078 4.72461 8.72078 5.08178C8.70952 5.86041 8.51404 6.57475 8.13956 7.20673C7.76427 7.83992 7.23694 8.34172 6.57205 8.6989C5.90796 9.05567 5.15538 9.23647 4.33522 9.23647ZM2.15954 1.04601C1.94314 1.04601 1.7384 1.09985 1.55096 1.20632C1.36432 1.31198 1.2163 1.46225 1.11011 1.65188C1.00351 1.84272 0.949616 2.04963 0.949616 2.26579V7.80536C0.949616 8.14446 1.06546 8.42851 1.30399 8.67319C1.54171 8.91746 1.81764 9.03639 2.14868 9.03639H4.33522C5.12199 9.03639 5.84239 8.86363 6.47632 8.52293C7.10823 8.18343 7.60941 7.70613 7.96579 7.10508C8.32217 6.50364 8.508 5.82264 8.51886 5.08098C8.51886 4.73988 8.48266 4.4048 8.41106 4.08701C8.29361 3.60006 8.10818 3.16294 7.86081 2.78929C7.61424 2.41685 7.30251 2.09744 6.93446 1.83951C6.56561 1.58157 6.12597 1.3831 5.62801 1.24931C5.12682 1.11472 4.56048 1.04642 3.94425 1.04642H2.15954V1.04601ZM4.07618 6.9701H3.35337V3.12236H3.97723C4.53594 3.12236 5.00776 3.25815 5.37982 3.52613C5.75551 3.79692 5.99122 4.16213 6.08052 4.61131C6.11833 4.78929 6.13764 4.95161 6.13764 5.09263C6.13764 5.44699 6.04914 5.77201 5.87498 6.05807C5.70081 6.34413 5.45504 6.57033 5.14412 6.73063C4.8352 6.88973 4.47601 6.9701 4.07618 6.9701ZM3.55449 6.76921H4.07618C4.44383 6.76921 4.77205 6.69608 5.0516 6.55225C5.32914 6.40962 5.54836 6.20834 5.70282 5.95402C5.85768 5.6997 5.93612 5.41002 5.93612 5.09303C5.93612 4.96607 5.91842 4.81741 5.88302 4.65188C5.80378 4.25293 5.59502 3.92951 5.26157 3.68925C4.9245 3.44658 4.4921 3.32324 3.97683 3.32324H3.55409V6.76921H3.55449Z" fill="white"/>
</svg>
