<svg width="4" height="11" viewBox="0 0 4 11" fill="none" xmlns="http://www.w3.org/2000/svg">
<path d="M2.19485 10.6459C1.79506 10.6459 1.44247 10.5023 1.14714 10.2199L1.14502 10.2177C0.849687 9.92149 0.700165 9.55929 0.700165 9.14071V2.03447C0.700165 1.77173 0.768564 1.52334 0.90377 1.29517C1.03845 1.0686 1.22349 0.886171 1.45361 0.753737C1.68425 0.620771 1.94141 0.553223 2.21871 0.553223C2.487 0.557478 2.73567 0.629813 2.95995 0.767566C3.18317 0.904787 3.36186 1.08882 3.49017 1.31592C3.61848 1.54303 3.6837 1.793 3.6837 2.0584V9.12901C3.6837 9.55397 3.54054 9.91936 3.259 10.2156L3.25317 10.2215C2.95041 10.5028 2.5941 10.6459 2.19485 10.6459ZM1.33166 10.0284C1.57874 10.2651 1.86134 10.38 2.19485 10.38C2.52836 10.38 2.81467 10.2651 3.06918 10.0289C3.30406 9.78107 3.41806 9.48642 3.41806 9.12901V2.0584C3.41806 1.83927 3.36451 1.63344 3.259 1.44676C3.15295 1.25954 3.00608 1.10743 2.82104 0.994141C2.63758 0.881385 2.43398 0.822346 2.21606 0.818623C1.9886 0.818623 1.77545 0.873942 1.58563 0.983506C1.39528 1.0936 1.24258 1.24358 1.13176 1.4308C1.02148 1.61695 0.965274 1.8196 0.965274 2.03394V9.14018C0.965274 9.49014 1.0851 9.78054 1.33166 10.0284Z" fill="white"/>
</svg>
