<svg width="6" height="20" viewBox="0 0 6 20" fill="none" xmlns="http://www.w3.org/2000/svg">
<path d="M0.782965 18.5123C0.259256 17.9892 -0.00219727 17.3588 -0.00219727 16.6204V2.94015C-0.00219727 2.47892 0.117273 2.04823 0.3562 1.64847C0.594725 1.24871 0.918116 0.931309 1.32598 0.696676C1.73385 0.462445 2.18475 0.344727 2.67709 0.344727C3.1465 0.352762 3.5793 0.477313 3.97631 0.71958C4.37251 0.961846 4.68464 1.28286 4.91191 1.68262C5.13877 2.08238 5.25219 2.51709 5.25219 2.98595V16.5967C5.25219 17.3504 5.002 17.9888 4.50162 18.5115C3.96262 19.0113 3.33916 19.2612 2.63083 19.2612C1.92249 19.2616 1.30627 19.0121 0.782965 18.5123Z" fill="#D22786"/>
</svg>
