<svg width="10" height="13" viewBox="0 0 10 13" fill="none" xmlns="http://www.w3.org/2000/svg">
<path d="M7.40585 12.3142H7.39895C6.90691 12.2881 6.48486 12.0982 6.14605 11.7499C5.80565 11.4004 5.6328 10.9723 5.6328 10.4771V7.33112C5.6328 7.14497 5.56811 6.98221 5.4345 6.83382C5.30406 6.68862 5.1503 6.61576 4.96366 6.61204C4.77279 6.61204 4.60736 6.67906 4.46208 6.81628C4.31892 6.95137 4.24946 7.11518 4.24946 7.31623V10.4766C4.24946 10.7999 4.16622 11.1047 4.00238 11.3818C3.83801 11.6589 3.61479 11.877 3.33908 12.0307C3.06389 12.1844 2.76114 12.2626 2.43983 12.2626C1.95521 12.2626 1.53422 12.0865 1.18851 11.7392C0.842282 11.3919 0.666779 10.9622 0.666779 10.4617V1.8109C0.666779 1.49763 0.747373 1.20032 0.906438 0.928008C1.06497 0.656757 1.28236 0.438682 1.55277 0.279655C1.82212 0.121159 2.12435 0.0350078 2.45043 0.0249023H2.45096C2.78712 0.0249023 3.09306 0.107333 3.36453 0.26902C3.63441 0.430707 3.85127 0.650903 4.01033 0.924281C4.1694 1.19872 4.24946 1.50188 4.24946 1.82526V4.0293C4.37565 3.9708 4.51033 3.91549 4.65242 3.86337L4.65932 3.86124C5.19272 3.69795 5.69643 3.61499 6.15718 3.61499C6.61105 3.61499 7.03364 3.68891 7.41327 3.83518C7.79397 3.98197 8.12058 4.1862 8.3841 4.44256C8.64815 4.70052 8.85758 5.01804 9.00604 5.38769C9.15451 5.7568 9.2298 6.1557 9.2298 6.57322V10.4909C9.2298 10.9962 9.05164 11.4307 8.70117 11.7828C8.35016 12.136 7.91433 12.3142 7.40585 12.3142ZM4.96685 6.34664C5.2293 6.35249 5.45199 6.45674 5.63121 6.65672C5.80777 6.85351 5.89738 7.08062 5.89738 7.33219V10.4782C5.89738 10.9074 6.04054 11.2627 6.33534 11.5648C6.62961 11.8674 6.98114 12.0259 7.40903 12.0488C7.84911 12.0482 8.21019 11.8998 8.51294 11.5961C8.81676 11.2914 8.96416 10.9308 8.96416 10.4925V6.57481C8.96416 6.19134 8.89523 5.82595 8.75949 5.48875C8.62482 5.15367 8.43606 4.86646 8.19852 4.6351C7.96099 4.40374 7.66459 4.21865 7.31783 4.08515C6.96895 3.95059 6.57818 3.88251 6.15665 3.88251C5.72347 3.88251 5.2468 3.96123 4.73991 4.116C4.53472 4.19153 4.34596 4.27449 4.17894 4.36225L3.98435 4.46491V1.82685C3.98435 1.55082 3.91596 1.29287 3.78075 1.05991C3.64501 0.825889 3.45891 0.637075 3.22826 0.499322C2.99815 0.3621 2.73781 0.292419 2.45414 0.292419C2.17684 0.301461 1.91703 0.374864 1.68639 0.511021C1.45574 0.646647 1.27017 0.832794 1.13443 1.06416C0.999756 1.29498 0.931357 1.54709 0.931357 1.81249V10.4633C0.931357 10.8967 1.07664 11.2526 1.37568 11.5525C1.67419 11.852 2.02255 11.9977 2.43983 11.9977C2.71554 11.9977 2.97482 11.9312 3.21024 11.7999C3.44459 11.669 3.63441 11.4834 3.77438 11.2472C3.91383 11.0116 3.98435 10.7531 3.98435 10.4776V7.31729C3.98435 7.04232 4.08403 6.80883 4.28021 6.62374C4.4748 6.43971 4.70545 6.34664 4.96685 6.34664Z" fill="white"/>
</svg>
