<svg width="14" height="16" viewBox="0 0 14 16" fill="none" xmlns="http://www.w3.org/2000/svg">
<path d="M2.55594 14.1844C1.45362 13.4978 0.902725 12.7564 0.902725 11.9602C0.902725 11.7176 0.939834 11.5038 1.01566 11.3198C1.15722 10.8672 1.42446 10.5092 1.81682 10.2454C2.20918 9.98216 2.68531 9.84972 3.24469 9.84972C3.58668 9.84972 4.0045 9.92949 4.49707 10.0885L5.01085 10.239L5.37406 10.3651C5.94139 10.5997 6.45516 10.7465 6.91486 10.805H7.06492H7.37774C7.60361 10.805 7.75366 10.7294 7.82842 10.5784C7.82842 10.3188 7.7367 10.1305 7.55324 10.013C7.54476 10.005 7.52833 9.99385 7.50288 9.98162C7.47796 9.96885 7.45515 9.95609 7.43448 9.94386C7.41274 9.93109 7.39471 9.92099 7.37774 9.91248L7.13967 9.82472L6.62589 9.69921L5.96206 9.49816L5.4732 9.37263C4.70491 9.16308 4.06812 8.93492 3.56335 8.6876C3.05859 8.44028 2.66146 8.16212 2.37408 7.85204C2.08564 7.54196 1.84545 7.16487 1.65351 6.7213C1.46104 6.24421 1.3656 5.76233 1.3656 5.27621C1.3656 4.47256 1.6201 3.71626 2.12911 3.00834C2.63812 2.30043 3.36717 1.73772 4.31467 1.31861C5.2627 0.900032 6.36662 0.689941 7.62801 0.689941C8.6052 0.689941 9.47794 0.795259 10.2457 1.00428C11.4562 1.33936 12.2791 1.7957 12.7128 2.37383C12.9302 2.66689 13.0389 3.02695 13.0389 3.45404C13.0389 3.86464 12.909 4.24333 12.6508 4.59064C12.3915 4.93848 12.041 5.16665 11.5983 5.27568C11.3979 5.32621 11.1932 5.35121 10.9843 5.35121C10.6587 5.35121 10.233 5.2842 9.70646 5.1507L8.93022 4.96188L8.5543 4.86137L8.14126 4.78583C8.00764 4.75233 7.91168 4.73584 7.85282 4.73584C7.35972 4.73584 7.08029 4.74382 7.01349 4.76084L6.96365 4.81136L6.88835 4.88689C6.83002 4.9454 6.80087 4.99964 6.80087 5.05017C6.80087 5.15867 6.88835 5.27622 7.06385 5.40227C7.09726 5.41876 7.12641 5.43577 7.15133 5.45226C7.17678 5.46928 7.20596 5.4863 7.23936 5.50279L7.47743 5.59055L7.85282 5.71606L8.75473 6.01764L9.3931 6.20644L9.95726 6.40749C10.4917 6.57503 11.059 6.85958 11.6603 7.26167C12.2282 7.65525 12.6603 8.14297 12.9567 8.72536C13.2526 9.30775 13.401 9.90875 13.401 10.5284C13.401 11.8352 12.821 12.9579 11.6603 13.8956C10.5834 14.7673 9.14283 15.2024 7.33903 15.2024C7.10521 15.2024 6.72981 15.1854 6.21179 15.1519C4.66833 15.0343 3.44936 14.712 2.55594 14.1844Z" fill="#ED7D21"/>
</svg>
