<svg width="9" height="10" viewBox="0 0 9 10" fill="none" xmlns="http://www.w3.org/2000/svg">
<path d="M6.72209 9.67586C6.16696 9.67586 5.69347 9.38175 5.3149 8.80095L3.73061 6.44266V8.10473C3.73061 8.39141 3.66115 8.65415 3.52382 8.88551C3.38808 9.11527 3.20251 9.30143 2.97293 9.43812C2.74175 9.57588 2.47982 9.64554 2.19404 9.64554H2.19138C1.77145 9.63703 1.40613 9.47748 1.1055 9.17166C0.804866 8.86584 0.652161 8.49459 0.652161 8.06857V1.98085C0.652161 1.64896 0.716316 1.35697 0.843569 1.11337C0.972411 0.864992 1.1564 0.673522 1.38916 0.543215C1.61928 0.415036 1.89817 0.349609 2.21842 0.349609H4.9008C5.47661 0.349609 5.9941 0.440562 6.43737 0.619801C6.88593 0.800635 7.2592 1.06763 7.54658 1.41281C7.83343 1.75692 8.03544 2.17816 8.14732 2.66375C8.21307 2.96213 8.24647 3.23179 8.24647 3.46687C8.24647 4.31839 7.95379 5.00928 7.37691 5.5204L7.31753 5.58475L6.96705 5.85973L7.92675 7.13781C8.14679 7.42714 8.25814 7.75636 8.25814 8.11643C8.25814 8.3563 8.20193 8.58873 8.09165 8.80839C7.98136 9.02805 7.81805 9.21846 7.6065 9.37377C7.32919 9.57481 7.03174 9.67586 6.72209 9.67586ZM3.4655 5.57252L5.53547 8.65362C5.86738 9.16315 6.2555 9.40993 6.72156 9.40993C6.97448 9.40993 7.21997 9.3259 7.45061 9.15943C7.62717 9.02965 7.76344 8.87115 7.85464 8.68925C7.94637 8.50735 7.9925 8.31482 7.9925 8.11697C7.9925 7.81221 7.90183 7.54469 7.71466 7.29896L6.59537 5.80814L6.87427 5.59646L7.14362 5.38372L7.19505 5.3268C7.72368 4.86142 7.9803 4.25297 7.9803 3.46741C7.9803 3.252 7.94902 3.00149 7.88751 2.72333C7.78518 2.27975 7.60173 1.89627 7.34192 1.5846C7.08264 1.27346 6.74436 1.03252 6.33663 0.867645C5.92465 0.701172 5.44109 0.616607 4.8992 0.616607H2.21683C1.94271 0.616607 1.70677 0.670325 1.51642 0.776698C1.3266 0.88254 1.18291 1.03305 1.07687 1.23729C0.969762 1.44312 0.915677 1.69363 0.915677 1.9819V8.06964C0.915677 8.42811 1.03922 8.72808 1.29266 8.98604C1.54611 9.24399 1.84091 9.37323 2.19404 9.38068C2.43104 9.38068 2.64684 9.32324 2.83613 9.21048C3.02701 9.09666 3.1813 8.94188 3.29424 8.75041C3.40717 8.56054 3.4639 8.34354 3.4639 8.10527V5.57252H3.4655ZM4.7868 4.16308H3.47769V2.83077H4.83452C4.98616 2.83077 5.1219 2.89033 5.23855 3.00734C5.35413 3.12381 5.41564 3.26902 5.42094 3.43922C5.42094 3.64771 5.36049 3.8195 5.2412 3.95406C5.11765 4.09288 4.96495 4.16308 4.7868 4.16308ZM3.7428 3.89715H4.7868C4.88913 3.89715 4.97026 3.85885 5.04343 3.77694C5.11925 3.69131 5.15583 3.58229 5.15583 3.44294C5.15265 3.34508 5.11871 3.26316 5.05138 3.19509C4.9851 3.1286 4.91405 3.09617 4.83452 3.09617H3.7428V3.89715Z" fill="white"/>
</svg>
