<svg width="11" height="10" viewBox="0 0 11 10" fill="none" xmlns="http://www.w3.org/2000/svg">
<path d="M5.03061 9.52232C4.72149 9.52232 4.42033 9.49147 4.12871 9.42978C3.546 9.30639 3.01313 9.06492 2.54495 8.71229C2.07836 8.36073 1.68122 7.90332 1.36362 7.35231C1.09321 6.85289 0.930433 6.31465 0.877411 5.74928C0.82439 5.18337 0.879534 4.63129 1.04125 4.109C1.20244 3.58671 1.47126 3.08836 1.84135 2.6267C2.21091 2.16557 2.67856 1.76933 3.23052 1.44968C3.97229 1.03695 4.73528 0.824742 5.49985 0.818359C5.97386 0.821019 6.43781 0.897609 6.88107 1.046C7.3238 1.19386 7.72518 1.39596 8.07353 1.64646C8.42506 1.89963 8.70449 2.18844 8.90438 2.5049L8.90703 2.50968C9.16684 2.96017 9.2522 3.34737 9.16101 3.65904C9.07087 3.96806 8.79781 4.25633 8.3503 4.51588L5.26496 6.30454C5.28617 6.31039 5.30897 6.31678 5.33389 6.32316C5.49243 6.34231 5.63453 6.34336 5.75595 6.32528C5.88161 6.30666 6.04385 6.25773 6.23685 6.18008C6.43303 6.10136 6.66474 5.98488 6.92561 5.83383C7.16845 5.67693 7.45636 5.42963 7.78191 5.09934C8.05656 4.83447 8.25539 4.66799 8.39166 4.58874C8.76016 4.37493 9.12442 4.31164 9.47489 4.3994C9.82696 4.48769 10.099 4.69565 10.284 5.01636C10.3513 5.13284 10.3938 5.22911 10.4144 5.31102C10.4643 5.51313 10.4754 5.71683 10.4473 5.91628C10.4192 6.11519 10.3482 6.31943 10.2368 6.52473C10.1276 6.7263 9.95686 6.96352 9.71561 7.24807L9.71137 7.25286C9.41127 7.57411 9.07829 7.87354 8.72252 8.14267C8.4749 8.33148 8.19442 8.51709 7.88954 8.69367C7.25487 9.06172 6.6096 9.30958 5.97121 9.43137C5.65202 9.49148 5.3376 9.52232 5.03061 9.52232ZM5.49985 1.08376C4.78194 1.08961 4.06137 1.29012 3.36095 1.68051C2.83922 1.98314 2.39649 2.35757 2.0476 2.79317C1.69872 3.22823 1.44528 3.69787 1.29417 4.18772C1.14305 4.67703 1.09162 5.19401 1.14146 5.72481C1.1913 6.25455 1.34347 6.75822 1.59533 7.22307C1.89331 7.74004 2.26711 8.17086 2.70454 8.50061C3.14144 8.82984 3.63879 9.05482 4.18385 9.17023C4.73051 9.28618 5.31534 9.28618 5.92244 9.17023C6.53113 9.05429 7.14883 8.81654 7.75752 8.46338C8.05285 8.29212 8.32432 8.11288 8.56345 7.93045C8.9065 7.6709 9.22728 7.38263 9.51678 7.07308C9.74159 6.80715 9.90596 6.57951 10.0051 6.39708C10.1011 6.21997 10.1621 6.04552 10.1859 5.87852C10.2092 5.71257 10.2002 5.54344 10.1583 5.37484C10.1488 5.33655 10.1228 5.26528 10.056 5.1488C9.90649 4.88925 9.696 4.72809 9.41233 4.65682C9.12707 4.58502 8.83757 4.63821 8.52633 4.81851C8.41022 4.88606 8.22305 5.04401 7.97014 5.28814C7.63186 5.63119 7.32804 5.89129 7.06824 6.05882L7.06293 6.06201C6.78987 6.2205 6.54544 6.34284 6.33707 6.42634C6.12445 6.51197 5.94258 6.56622 5.79624 6.58803C5.64884 6.60983 5.4797 6.6093 5.2936 6.5859L5.2761 6.58217C4.96115 6.4976 4.90495 6.4758 4.87684 6.46144L4.65627 6.35082L8.21987 4.28505C8.6064 4.06114 8.8381 3.82499 8.90862 3.58352C8.97808 3.34418 8.90173 3.02825 8.68063 2.64424C8.49929 2.35757 8.24373 2.0943 7.92083 1.86187C7.59421 1.62732 7.2167 1.43745 6.79888 1.29757C6.38054 1.15822 5.94417 1.08589 5.49985 1.08376ZM4.10114 5.10305L4.03486 4.98817C4.01259 4.94935 3.99562 4.89776 3.97972 4.82011C3.87738 4.3643 3.97601 3.98667 4.27293 3.7L4.28459 3.68883L4.29838 3.68085C5.02 3.26227 5.45743 3.52714 5.69762 3.82604C5.73156 3.86168 5.76443 3.90796 5.79784 3.96646L5.86411 4.08187L4.10114 5.10305ZM4.44525 3.90264C4.23422 4.11326 4.1637 4.38132 4.22998 4.72118L5.49031 3.99093C5.32594 3.78776 5.04015 3.56384 4.44525 3.90264Z" fill="white"/>
</svg>
