<svg width="5" height="17" viewBox="0 0 5 17" fill="none" xmlns="http://www.w3.org/2000/svg">
<path d="M0.758682 15.675C0.327487 15.2447 0.112701 14.726 0.112701 14.1181V2.86138C0.112701 2.48171 0.210839 2.12735 0.40713 1.79831C0.60342 1.46926 0.8693 1.20811 1.20517 1.01526C1.54103 0.822411 1.91189 0.725586 2.31694 0.725586C2.70348 0.732014 3.05987 0.834864 3.38568 1.03414C3.71189 1.23342 3.96852 1.49778 4.15556 1.82683C4.3426 2.15588 4.43591 2.51345 4.43591 2.89915V14.0988C4.43591 14.7192 4.22997 15.2443 3.81848 15.6746C3.37482 16.086 2.86197 16.2913 2.27913 16.2913C1.69629 16.2913 1.18907 16.0864 0.758682 15.675Z" fill="#ED7D21"/>
</svg>
