<svg width="7" height="10" viewBox="0 0 7 10" fill="none" xmlns="http://www.w3.org/2000/svg">
<path d="M5.34237 9.37407H5.33714C4.96387 9.35439 4.64369 9.21096 4.38666 8.9478C4.12843 8.68384 3.9973 8.36041 3.9973 7.98636V5.60991C3.9973 5.46929 3.94823 5.34634 3.84686 5.23425C3.74791 5.12457 3.63127 5.06953 3.48968 5.06672C3.34488 5.06672 3.21938 5.11734 3.10917 5.221C3.00056 5.32305 2.94787 5.44679 2.94787 5.59866V7.98596C2.94787 8.23024 2.88472 8.46045 2.76043 8.66977C2.63574 8.87909 2.4664 9.04383 2.25723 9.15994C2.04847 9.27605 1.8188 9.3351 1.57504 9.3351C1.2074 9.3351 0.888029 9.20212 0.625772 8.93977C0.363113 8.67741 0.229973 8.35278 0.229973 7.97472V1.43995C0.229973 1.20331 0.291113 0.978728 0.411783 0.773022C0.532052 0.56812 0.696968 0.403388 0.902107 0.283259C1.10644 0.163532 1.33572 0.0984539 1.58309 0.0908203H1.58349C1.83851 0.0908203 2.0706 0.153088 2.27654 0.275226C2.48128 0.397363 2.64579 0.563698 2.76646 0.770207C2.88713 0.97752 2.94787 1.20653 2.94787 1.4508V3.11573C3.0436 3.07153 3.14577 3.02975 3.25357 2.99038L3.2588 2.98877C3.66344 2.86543 4.04557 2.80276 4.39511 2.80276C4.73942 2.80276 5.06 2.8586 5.348 2.96908C5.63681 3.07997 5.88458 3.23425 6.08449 3.4279C6.28481 3.62276 6.44369 3.86262 6.55631 4.14184C6.66894 4.42067 6.72606 4.722 6.72606 5.03739V7.99681C6.72606 8.37849 6.5909 8.70674 6.32503 8.97271C6.05875 9.23948 5.72811 9.37407 5.34237 9.37407ZM3.49209 4.86623C3.6912 4.87065 3.86014 4.9494 3.99609 5.10047C4.13004 5.24912 4.19801 5.42068 4.19801 5.61071V7.98717C4.19801 8.3114 4.30662 8.57978 4.53026 8.80799C4.7535 9.03659 5.02018 9.15632 5.34478 9.17359C5.67864 9.17319 5.95256 9.0611 6.18224 8.83169C6.41272 8.60147 6.52454 8.32907 6.52454 7.99802V5.03859C6.52454 4.74892 6.47225 4.47291 6.36927 4.21819C6.26711 3.96507 6.12391 3.74812 5.94371 3.57335C5.76351 3.39858 5.53866 3.25876 5.2756 3.15791C5.01093 3.05627 4.71448 3.00484 4.39471 3.00484C4.06608 3.00484 3.70447 3.0643 3.31994 3.18122C3.16427 3.23827 3.02108 3.30094 2.89437 3.36723L2.74675 3.44478V1.45201C2.74675 1.24349 2.69487 1.04863 2.5923 0.87266C2.48932 0.695882 2.34814 0.553253 2.17317 0.449195C1.9986 0.345538 1.8011 0.292901 1.58591 0.292901C1.37554 0.299731 1.17844 0.35518 1.00347 0.458032C0.828499 0.560483 0.687716 0.701098 0.584744 0.875868C0.482576 1.05023 0.430687 1.24068 0.430687 1.44116V7.97592C0.430687 8.30336 0.5409 8.57215 0.76776 8.79875C0.994218 9.02494 1.25849 9.13502 1.57504 9.13502C1.78421 9.13502 1.9809 9.0848 2.15949 8.98557C2.33728 8.88673 2.48128 8.74652 2.58747 8.56813C2.69325 8.39015 2.74675 8.19488 2.74675 7.98677V5.59946C2.74675 5.39175 2.82237 5.21537 2.9712 5.07555C3.11882 4.93654 3.29379 4.86623 3.49209 4.86623Z" fill="white"/>
</svg>
