<svg width="25" height="23" viewBox="0 0 25 23" fill="none" xmlns="http://www.w3.org/2000/svg">
<path d="M23.967 9.28815C23.8101 8.52198 23.5732 7.78192 23.2547 7.06677C22.9361 6.35243 22.5326 5.6642 22.0451 5.00169C21.5576 4.33917 20.9889 3.72928 20.3381 3.17002C19.2713 2.24796 18.0686 1.53644 16.7288 1.03624C15.3898 0.536838 13.9397 0.286133 12.3791 0.286133C10.1812 0.286133 8.17771 0.79959 6.37087 1.8253C4.56243 2.85182 3.14174 4.24516 2.108 6.0049C1.07425 7.76585 0.557381 9.66542 0.557381 11.7048C0.56985 13.7442 1.09678 15.6248 2.13736 17.3456C3.17754 19.0668 4.59863 20.4276 6.40024 21.428C8.20104 22.4284 10.1937 22.9278 12.3791 22.9278C14.5897 22.9278 16.6126 22.4087 18.4463 21.3689C19.6679 20.6678 20.7158 19.8004 21.587 18.7679C22.4582 17.7353 23.1111 16.6019 23.5467 15.3677C23.9823 14.1335 24.2007 12.8735 24.2007 11.5875C24.2007 10.8217 24.1223 10.0551 23.967 9.28815ZM12.1711 20.2159C7.95326 20.1158 4.38022 16.8406 3.89915 12.6542C3.76279 11.4686 3.88547 10.3312 4.1976 9.2753C4.30258 9.11781 4.37579 8.93581 4.3951 8.73251C4.40113 8.7064 4.40676 8.67987 4.41279 8.65336C4.79411 7.65737 5.35563 6.753 6.05914 5.97759C7.11139 4.81768 8.72435 4.33997 10.2452 4.71844L10.2762 4.72607C13.5166 5.54287 17.1612 7.59953 16.1178 12.7594C15.7264 14.6948 14.7587 15.8518 13.3187 16.1054C11.4233 16.4396 8.99988 15.1335 8.68895 13.3428C8.61132 12.8948 8.80479 12.4585 9.10003 12.1126C9.56461 11.5678 9.4548 10.7454 8.86593 10.3412C8.33056 9.97357 7.57878 10.1315 7.19224 10.653C6.0881 12.1415 6.00967 13.9001 6.97945 15.4854C8.11898 17.348 10.4515 18.561 12.7049 18.5606C13.0524 18.5606 13.3983 18.5316 13.737 18.4722C16.1629 18.0447 17.8905 16.1359 18.4765 13.2355C19.1704 9.80483 18.2299 6.90165 15.9054 4.87794C15.5121 4.53523 15.9296 3.92133 16.3901 4.16641C19.0823 5.60032 20.9149 8.43319 20.9149 11.6935C20.9141 16.4706 16.9798 20.33 12.1711 20.2159Z" fill="#ED7D21"/>
</svg>
