<svg width="7" height="8" viewBox="0 0 7 8" fill="none" xmlns="http://www.w3.org/2000/svg">
<path d="M3.5039 7.65774C3.3915 7.65774 3.21281 7.64977 2.95778 7.63328C2.20222 7.57584 1.59618 7.41468 1.15451 7.15407L1.15186 7.15247C0.587175 6.80091 0.300858 6.40573 0.300858 5.97864C0.300858 5.8478 0.321535 5.72974 0.362361 5.62815C0.439243 5.38615 0.585054 5.19202 0.79555 5.05054C1.00393 4.91066 1.2579 4.83939 1.55005 4.83939C1.7282 4.83939 1.93711 4.87875 2.1879 4.95959L2.43551 5.03246L2.61632 5.09522C2.87135 5.20053 3.10465 5.26808 3.30931 5.2952H3.52193C3.56541 5.2952 3.58927 5.28775 3.60199 5.27924C3.59351 5.20957 3.56223 5.18032 3.53466 5.16277L3.52193 5.15425C3.50708 5.1468 3.4933 5.13883 3.48057 5.13138C3.47686 5.12926 3.47262 5.1266 3.46838 5.12448L3.37029 5.0883L3.12586 5.02821L2.81197 4.933L2.58185 4.87397C2.20699 4.77185 1.89257 4.65909 1.64549 4.53783C1.39098 4.41337 1.18685 4.26923 1.03945 4.11074C0.89258 3.95277 0.768509 3.75864 0.671479 3.53366C0.572859 3.289 0.523548 3.04009 0.523548 2.79171C0.523548 2.38164 0.654512 1.99125 0.912728 1.63224C1.16829 1.27696 1.5368 0.991347 2.00922 0.782325C2.47687 0.575961 3.02618 0.471191 3.64282 0.471191C4.1179 0.471191 4.54949 0.523309 4.92595 0.625959C5.53888 0.795624 5.94662 1.02485 6.17355 1.32749C6.29444 1.49077 6.35594 1.69075 6.35594 1.92264C6.35594 2.14655 6.2849 2.35559 6.14439 2.5444C6.00229 2.73481 5.80823 2.86138 5.56751 2.92095C5.46306 2.94701 5.35383 2.96084 5.24302 2.96084C5.07494 2.96084 4.86497 2.9284 4.60092 2.86086L4.23242 2.77151L4.05533 2.72416L3.85491 2.68747C3.77909 2.66832 3.75364 2.66725 3.74939 2.66725C3.54579 2.66725 3.453 2.67045 3.41058 2.67311L3.39097 2.69279C3.39998 2.70343 3.41589 2.71885 3.44293 2.73852C3.45989 2.74757 3.47527 2.75661 3.48906 2.76565C3.49542 2.76991 3.50231 2.77416 3.50974 2.77788L3.61631 2.81724L4.22182 3.01935L4.52881 3.1103L4.79763 3.20604C5.0585 3.28794 5.34323 3.43048 5.63909 3.62833C5.92859 3.82885 6.15075 4.08042 6.30186 4.37614C6.45191 4.67186 6.52827 4.9814 6.52827 5.2968C6.52827 5.9595 6.2324 6.53444 5.64863 7.00621C5.11258 7.43808 4.39096 7.65774 3.5039 7.65774ZM1.29077 6.9259C1.69692 7.16523 2.26425 7.31416 2.97634 7.36841C3.22395 7.38437 3.3968 7.39234 3.5039 7.39234C4.32945 7.39234 4.99488 7.19237 5.48162 6.79879C6.00706 6.37436 6.26263 5.88291 6.26263 5.29627C6.26263 5.02342 6.19635 4.7543 6.06539 4.49687C5.93442 4.24051 5.74089 4.02192 5.48957 3.848C5.21651 3.66557 4.95511 3.53366 4.71333 3.45814L4.44292 3.36187L4.14175 3.27305L3.52776 3.06828L3.39733 3.01935C3.37506 3.00818 3.3565 2.99755 3.33901 2.98585C3.33211 2.98106 3.32257 2.97627 3.31249 2.97096L3.295 2.96031C3.17305 2.87308 3.11419 2.78267 3.11419 2.68427C3.11419 2.62417 3.14123 2.5662 3.19479 2.51248L3.28015 2.42633L3.31568 2.41728C3.34749 2.4093 3.40687 2.40132 3.74833 2.40132C3.78757 2.40132 3.84006 2.40983 3.91376 2.42791L4.11736 2.46568L4.29658 2.51355L4.66402 2.6029C4.90421 2.66406 5.09827 2.69491 5.24196 2.69491C5.3305 2.69491 5.41852 2.68428 5.50229 2.663C5.68522 2.61833 5.82467 2.52738 5.93018 2.3859C6.03675 2.2423 6.08871 2.09071 6.08871 1.92317C6.08871 1.74712 6.0463 1.60459 5.95934 1.48705C5.77218 1.2376 5.39996 1.0339 4.85384 0.882854C4.50018 0.786587 4.09191 0.737656 3.6407 0.737656C3.06117 0.737656 2.54739 0.834451 2.1142 1.02592C1.68579 1.21527 1.35334 1.47163 1.12588 1.78809C0.901064 2.10083 0.786536 2.43855 0.786536 2.79171C0.786536 3.00605 0.829484 3.22093 0.914318 3.43101C0.998093 3.62461 1.10573 3.79375 1.23192 3.92938C1.35705 4.06447 1.5352 4.18892 1.76055 4.29902C1.99278 4.41284 2.29129 4.51974 2.64813 4.61707L2.88461 4.6777L3.19744 4.77238L3.45353 4.83566L3.58184 4.88407C3.59139 4.88886 3.60252 4.89523 3.61472 4.90268C3.62426 4.90853 3.63222 4.91279 3.6407 4.91704C3.65661 4.92449 3.67092 4.93353 3.68312 4.9431C3.76954 5.00054 3.86816 5.11224 3.86816 5.31967V5.35105L3.85438 5.37871C3.81355 5.46168 3.72235 5.5606 3.52087 5.5606L3.28333 5.55954C3.05428 5.53029 2.79712 5.45742 2.51823 5.34253L2.35174 5.2851L2.10996 5.21436C1.88515 5.14202 1.69798 5.10586 1.55005 5.10586C1.31145 5.10586 1.10679 5.16171 0.942951 5.2718C0.780174 5.38137 0.67201 5.52603 0.613686 5.71377L0.609974 5.72442C0.580812 5.79516 0.565966 5.88078 0.565966 5.97917C0.565966 6.30733 0.809866 6.62592 1.29077 6.9259Z" fill="white"/>
</svg>
