<svg width="8" height="26" viewBox="0 0 8 26" fill="none" xmlns="http://www.w3.org/2000/svg">
<path d="M1.30482 24.3165C0.614471 23.624 0.269829 22.7895 0.269829 21.812V3.70197C0.269829 3.09138 0.427312 2.52122 0.742261 1.99202C1.05668 1.46281 1.48297 1.04264 2.02061 0.732027C2.55825 0.42195 3.15263 0.266113 3.80162 0.266113C4.42038 0.276751 4.9909 0.441633 5.51422 0.762347C6.03649 1.08306 6.44794 1.50802 6.74751 2.03723C7.04655 2.56643 7.19607 3.14191 7.19607 3.76259V21.7806C7.19607 22.7784 6.86627 23.6235 6.20668 24.3155C5.49618 24.9771 4.67435 25.3079 3.74063 25.3079C2.80692 25.3084 1.99463 24.9781 1.30482 24.3165Z" fill="#D22786"/>
</svg>
