<svg width="4" height="11" viewBox="0 0 4 11" fill="none" xmlns="http://www.w3.org/2000/svg">
<path d="M1.61742 10.6459C1.2171 10.6459 0.865035 10.5023 0.570234 10.2199L0.568114 10.2177C0.272783 9.92149 0.12326 9.55929 0.12326 9.14071V2.03447C0.12326 1.77173 0.19166 1.52334 0.326866 1.29517C0.461011 1.0686 0.646056 0.886703 0.87617 0.753737C1.10682 0.620771 1.3645 0.553223 1.64127 0.553223C1.90956 0.557478 2.15824 0.629813 2.38252 0.767566C2.60574 0.904787 2.78442 1.08882 2.91274 1.31592C3.04105 1.54303 3.10627 1.79247 3.10627 2.0584V9.12901C3.10627 9.55397 2.96311 9.91936 2.68156 10.2156L2.67573 10.2215C2.37245 10.5028 2.01667 10.6459 1.61742 10.6459ZM0.754752 10.0284C1.00183 10.2651 1.28391 10.38 1.61794 10.38C1.95145 10.38 2.23777 10.2651 2.49228 10.0289C2.72716 9.78107 2.84116 9.48642 2.84116 9.12901V2.0584C2.84116 1.83927 2.78761 1.63344 2.68209 1.44676C2.57605 1.25954 2.42918 1.10743 2.24413 0.994141C2.06068 0.881385 1.85707 0.822346 1.63915 0.818623C1.41116 0.818623 1.19854 0.873942 1.00872 0.983506C0.818377 1.0936 0.665674 1.24412 0.554859 1.4308C0.444573 1.61695 0.388369 1.8196 0.388369 2.03394V9.14018C0.388369 9.49014 0.5082 9.78054 0.754752 10.0284Z" fill="white"/>
</svg>
