<svg width="6" height="22" viewBox="0 0 6 22" fill="none" xmlns="http://www.w3.org/2000/svg">
<path d="M1.09099 20.36C0.522598 19.7903 0.239471 19.1037 0.239471 18.299V3.39721C0.239471 2.8946 0.368835 2.4255 0.627582 1.9899C0.886328 1.5543 1.23681 1.20859 1.67954 0.953297C2.12227 0.698002 2.61113 0.569824 3.14505 0.569824C3.65459 0.578334 4.12437 0.714488 4.55385 0.978293C4.98385 1.2421 5.32214 1.59206 5.56869 2.02766C5.81524 2.46326 5.93825 2.93661 5.93825 3.4472V18.2735C5.93825 19.0947 5.66677 19.7898 5.12436 20.3594C4.53953 20.9041 3.8635 21.1759 3.09522 21.1759C2.32693 21.1759 1.65832 20.9046 1.09099 20.36Z" fill="#ED7D21"/>
</svg>
