<svg width="13" height="16" viewBox="0 0 13 16" fill="none" xmlns="http://www.w3.org/2000/svg">
<path d="M2.65481 15.292C2.0406 15.2796 1.51327 15.0502 1.07322 14.6038C0.632375 14.1578 0.412758 13.6247 0.412758 13.0044V3.36113C0.412758 2.86776 0.506075 2.44188 0.693114 2.08431C0.879751 1.72713 1.1408 1.45473 1.47667 1.26831C1.81253 1.08189 2.21798 0.988281 2.69302 0.988281H6.95992C7.85328 0.988281 8.64166 1.12569 9.32546 1.4013C10.0097 1.67651 10.5704 2.07507 11.0076 2.59696C11.4448 3.11926 11.7485 3.75044 11.9199 4.49049C12.0208 4.9461 12.0719 5.35429 12.0719 5.71508C12.0719 7.01239 11.6311 8.04654 10.751 8.81874L10.675 8.90432L10.2285 9.25587L9.95295 9.46439L11.6061 11.6568C11.9295 12.0807 12.0908 12.5556 12.0908 13.0807C12.0908 13.4286 12.01 13.7625 11.8487 14.0819C11.6874 14.4017 11.4513 14.6753 11.1407 14.9027C10.7353 15.1936 10.3077 15.3394 9.85802 15.3394C9.04712 15.3394 8.3597 14.9096 7.79576 14.049L4.88841 9.7396V13.0614C4.88841 13.4789 4.78866 13.8553 4.58875 14.1908C4.38965 14.5263 4.12176 14.7934 3.78589 14.9931C3.44963 15.1924 3.07273 15.292 2.65481 15.292ZM4.90692 6.60741H6.77851C7.00014 6.60741 7.18879 6.52063 7.34406 6.34626C7.49892 6.17229 7.57655 5.94932 7.57655 5.67732C7.57011 5.46237 7.49409 5.28158 7.34848 5.13614C7.20287 4.9907 7.03836 4.91798 6.85454 4.91798H4.90692V6.60741Z" fill="#ED7D21"/>
</svg>
