<svg width="18" height="26" viewBox="0 0 18 26" fill="none" xmlns="http://www.w3.org/2000/svg">
<path d="M3.43249 25.3085C2.4887 25.3085 1.67959 24.9703 1.00462 24.2932C0.329652 23.6161 -0.00810242 22.7891 -0.00810242 21.812V3.67173C-0.00810242 3.06114 0.147252 2.49098 0.456369 1.96125C0.765486 1.43204 1.18437 1.0124 1.71246 0.701794C2.24003 0.391185 2.82379 0.225777 3.46323 0.205566C4.11275 0.205566 4.70129 0.363525 5.22939 0.678921C5.75696 0.994849 6.17477 1.41981 6.48547 1.95381C6.79459 2.48833 6.94941 3.07125 6.94941 3.70205V8.77178C7.31473 8.57871 7.72036 8.40053 8.16734 8.23725C9.2633 7.90164 10.2829 7.73358 11.2272 7.73358C12.1503 7.73358 12.9955 7.88144 13.7617 8.17662C14.5278 8.47234 15.1752 8.87656 15.7028 9.39034C16.2298 9.90465 16.6439 10.5333 16.943 11.2763C17.242 12.0193 17.3921 12.8134 17.3921 13.6586V21.8737C17.3921 22.8609 17.0495 23.6986 16.3645 24.3852C15.6795 25.0724 14.8396 25.416 13.8454 25.416C12.881 25.3649 12.0666 24.999 11.4022 24.3166C10.7373 23.6347 10.4049 22.8098 10.4049 21.8429V15.2462C10.4049 14.7882 10.2426 14.3782 9.9181 14.017C9.59361 13.6559 9.19701 13.4697 8.73095 13.4596C8.25323 13.4596 7.83806 13.6277 7.48282 13.9638C7.12757 14.2994 6.94995 14.717 6.94995 15.2153V21.8424C6.94995 22.4731 6.78983 23.0587 6.47064 23.5986C6.15039 24.1379 5.72197 24.5581 5.1838 24.858C4.6451 25.1585 4.06133 25.3085 3.43249 25.3085Z" fill="#D22786"/>
</svg>
