<svg width="40" height="7" viewBox="0 0 40 7" fill="none" xmlns="http://www.w3.org/2000/svg">
<path d="M39.9508 6.33366H0.123535V4.48063H1.59171V0.253906H12.9543L12.9871 0.275721C13.1722 0.397518 13.3392 0.499629 13.4983 0.587919C14.6907 1.25328 16.0301 1.59049 17.4797 1.59049C18.9463 1.59049 20.3052 1.23999 21.5194 0.548561C21.6605 0.467186 21.7988 0.37571 21.9325 0.28742L21.9834 0.253906H38.4546V4.48063H39.9508V6.33366ZM0.388644 6.06772H39.6857V4.74657H38.1895V0.519839H22.0624C21.9303 0.607064 21.7935 0.696956 21.6504 0.779395C20.3953 1.49422 18.9919 1.85642 17.4792 1.85642C15.9839 1.85642 14.6011 1.50805 13.3689 0.82035C13.2141 0.734188 13.0524 0.635785 12.8747 0.519839H1.85628V4.74657H0.388113V6.06772H0.388644Z" fill="white"/>
</svg>
