<svg width="3" height="4" viewBox="0 0 3 4" fill="none" xmlns="http://www.w3.org/2000/svg">
<path d="M1.56949 3.75691C1.17289 3.75691 0.83421 3.61911 0.5623 3.34791C0.286769 3.07311 0.147194 2.72718 0.147194 2.31979C0.147194 1.93128 0.289987 1.58615 0.571953 1.29327C0.711126 1.15787 0.865987 1.05502 1.03533 0.984308C1.20467 0.913597 1.38447 0.877441 1.56949 0.877441C1.95966 0.877441 2.29915 1.02489 2.5783 1.31537C2.849 1.59781 2.98616 1.93931 2.98616 2.33104C2.98616 2.73441 2.8482 3.07672 2.57669 3.34832C2.30518 3.61911 1.9661 3.75691 1.56949 3.75691ZM1.56949 1.07792C1.41101 1.07792 1.25736 1.10846 1.11296 1.16913C0.96735 1.23019 0.833406 1.31938 0.714747 1.43429C0.468982 1.68981 0.348714 1.97989 0.348714 2.31938C0.348714 2.67656 0.465362 2.96623 0.704691 3.20569C0.940803 3.44153 1.22357 3.55603 1.56949 3.55603C1.91582 3.55603 2.19859 3.44153 2.4347 3.20569C2.67041 2.97025 2.78545 2.68379 2.78545 2.33063C2.78545 1.98752 2.67041 1.70106 2.43349 1.45397C2.18974 1.20086 1.90737 1.07792 1.56949 1.07792Z" fill="white"/>
</svg>
