<svg width="20" height="19" viewBox="0 0 20 19" fill="none" xmlns="http://www.w3.org/2000/svg">
<path d="M16.3956 4.36864C16.903 5.24941 17.0716 5.98072 16.9024 6.56151C16.7328 7.14178 16.2084 7.68641 15.3303 8.1954L8.30548 12.2674C8.37123 12.3003 8.63316 12.3775 9.09074 12.5003C9.45712 12.5466 9.7832 12.5487 10.0695 12.5062C10.3558 12.4636 10.7132 12.3567 11.1411 12.1844C11.57 12.0126 12.0653 11.7632 12.6273 11.4377C13.1575 11.0957 13.7731 10.5681 14.4762 9.85482C15.026 9.32402 15.4327 8.98256 15.6967 8.82939C16.4083 8.41666 17.097 8.29433 17.7614 8.46133C18.4263 8.62834 18.9342 9.01608 19.2847 9.624C19.4114 9.84419 19.4931 10.0271 19.5286 10.1702C19.6251 10.5611 19.6458 10.9489 19.5917 11.3329C19.5371 11.7174 19.4008 12.111 19.1818 12.5141C18.9629 12.9178 18.6097 13.4077 18.1214 13.9842C17.4984 14.6512 16.8187 15.2623 16.0838 15.8181C15.5711 16.209 14.9984 16.5877 14.3653 16.9547C13.0562 17.7137 11.7445 18.2184 10.4301 18.4689C9.11513 18.7194 7.86381 18.7194 6.67507 18.4673C5.48685 18.2157 4.41633 17.7307 3.46406 17.0132C2.51179 16.2957 1.71064 15.3729 1.06059 14.2443C0.513404 13.2332 0.185197 12.1504 0.0770322 10.9962C-0.0311322 9.84259 0.0791536 8.73206 0.408949 7.66513C0.737684 6.59875 1.28063 5.59299 2.03778 4.6484C2.79493 3.70434 3.74031 2.90388 4.87339 2.24649C6.39087 1.40189 7.93168 0.973214 9.49529 0.960449C10.4592 0.965768 11.3951 1.12001 12.3017 1.42317C13.2084 1.72633 14.0175 2.13374 14.7285 2.64433C15.4364 3.15758 15.9931 3.73199 16.3956 4.36864ZM6.65916 9.28945L9.87493 7.42526C9.81396 7.31942 9.75457 7.23592 9.69625 7.17635C9.06157 6.37962 8.19944 6.29771 7.11037 6.92904C6.56054 7.45984 6.38185 8.15711 6.57485 9.02086C6.60083 9.14638 6.6284 9.23627 6.65916 9.28945Z" fill="#D22786"/>
</svg>
