<svg width="6" height="22" viewBox="0 0 6 22" fill="none" xmlns="http://www.w3.org/2000/svg">
<path d="M0.913438 20.36C0.345575 19.7903 0.0619049 19.1037 0.0619049 18.299V3.39721C0.0619049 2.8946 0.191282 2.4255 0.450028 1.9899C0.709305 1.5543 1.05977 1.20859 1.5025 0.953297C1.94523 0.698002 2.43357 0.569824 2.9675 0.569824C3.47704 0.578334 3.94682 0.714488 4.37682 0.978293C4.80683 1.2421 5.1451 1.59206 5.39166 2.02766C5.63821 2.46326 5.76122 2.93661 5.76122 3.4472V18.2735C5.76122 19.0947 5.48974 19.7898 4.94733 20.3594C4.3625 20.9041 3.68648 21.1759 2.91819 21.1759C2.14938 21.1769 1.48183 20.9046 0.913438 20.36Z" fill="#ED7D21"/>
</svg>
