<svg width="32" height="5" viewBox="0 0 32 5" fill="none" xmlns="http://www.w3.org/2000/svg">
<path d="M31.0661 4.98568H0.852325V3.58592H1.96611V0.393066H10.586L10.6109 0.409545C10.7513 0.50155 10.878 0.578685 10.9987 0.645378C11.9033 1.14799 12.9193 1.40272 14.0191 1.40272C15.1316 1.40272 16.1626 1.13795 17.0837 0.615648C17.1907 0.554177 17.2957 0.485076 17.397 0.418383L17.4356 0.393066H29.931V3.58592H31.0661V4.98568ZM1.05344 4.7848H30.865V3.7868H29.7299V0.593951H17.4956C17.3954 0.659841 17.2916 0.727745 17.183 0.790019C16.2309 1.33 15.1662 1.6036 14.0187 1.6036C12.8844 1.6036 11.8353 1.34044 10.9005 0.820956C10.7831 0.755869 10.6604 0.681536 10.5257 0.593951H2.16682V3.7868H1.05304V4.7848H1.05344Z" fill="white"/>
</svg>
