<svg width="1286" height="685" viewBox="0 0 1286 685" fill="none" xmlns="http://www.w3.org/2000/svg">
<g filter="url(#filter0_f_1_615)">
<path d="M245.796 357.988H161.65H154V414.51C173.266 420.884 213.582 433.634 220.722 433.634H260.67C266.62 433.634 270.87 464.657 270.87 473.581C270.87 480.721 286.736 491.288 294.669 495.68L359.691 519.478C386.89 522.878 449.277 529.678 481.236 529.678C521.184 529.678 500.36 532.653 544.558 529.678C579.917 527.298 599.806 517.07 605.33 512.254L661.853 486.755L732.825 473.581C756.482 480.947 808.812 495.68 828.871 495.68H926.617H976.764L1052.41 414.51L1059.64 369.887L1092.36 322.715C1101.28 309.824 1120.92 281.153 1128.06 269.593C1135.2 258.034 1131.03 236.162 1128.06 226.671V176.099L1092.36 154L1083.43 186.723L1052.41 226.671L985.689 284.042C972.373 297.358 945.486 325.52 944.466 331.64C943.446 337.759 932.141 360.821 926.617 371.587L911.742 405.585H870.519L774.048 371.587H652.928L576.007 387.736L553.483 448.508H500.36L352.466 433.634C342.55 430.659 322.123 422.669 319.743 414.51C317.363 406.35 312.801 373.429 310.818 357.988H245.796Z" fill="black"/>
</g>
<defs>
<filter id="filter0_f_1_615" x="0" y="0" width="1286" height="685" filterUnits="userSpaceOnUse" color-interpolation-filters="sRGB">
<feFlood flood-opacity="0" result="BackgroundImageFix"/>
<feBlend mode="normal" in="SourceGraphic" in2="BackgroundImageFix" result="shape"/>
<feGaussianBlur stdDeviation="77" result="effect1_foregroundBlur_1_615"/>
</filter>
</defs>
</svg>
