<svg width="17" height="16" viewBox="0 0 17 16" fill="none" xmlns="http://www.w3.org/2000/svg">
<path d="M8.47912 15.3101C7.08889 15.3101 5.80258 14.9856 4.65625 14.3463C3.50833 13.706 2.59052 12.8231 1.92775 11.7216C1.26391 10.6196 0.923511 9.39841 0.915558 8.09268C0.915558 6.78642 1.2496 5.55355 1.90866 4.426C2.56772 3.29951 3.48605 2.39535 4.63716 1.73903C5.78879 1.08271 7.08146 0.749756 8.47965 0.749756C9.47115 0.749756 10.407 0.911978 11.2601 1.23163C12.1127 1.55128 12.8895 2.01241 13.5692 2.60278C13.9838 2.96072 14.3518 3.35696 14.6625 3.78085C14.9732 4.20528 15.2341 4.65205 15.4372 5.10945C15.6397 5.56579 15.7935 6.0466 15.8937 6.53911C15.9928 7.03108 16.0432 7.52837 16.0432 8.01715C16.0432 8.83941 15.9022 9.65743 15.6243 10.4478C15.346 11.2392 14.9239 11.9753 14.3688 12.6359C13.8136 13.2964 13.1376 13.8592 12.3593 14.3075C11.1917 14.9734 9.88631 15.3101 8.47912 15.3101ZM8.47912 1.01622C7.12759 1.01622 5.87893 1.33746 4.76759 1.97038C3.65732 2.6033 2.77185 3.47449 2.13665 4.56056C1.50198 5.6461 1.18014 6.83429 1.18014 8.09162C1.18809 9.34788 1.51577 10.5233 2.15415 11.5838C2.79253 12.6449 3.678 13.4964 4.78509 14.1134C5.89165 14.7304 7.13448 15.0436 8.47912 15.0436C9.83966 15.0436 11.101 14.7181 12.2278 14.0767C12.9785 13.6438 13.6312 13.1013 14.1662 12.4646C14.7007 11.8285 15.1074 11.1206 15.3746 10.3595C15.6424 9.59732 15.7781 8.80963 15.7781 8.01715C15.7781 7.54592 15.7293 7.06619 15.6339 6.59176C15.5374 6.1184 15.3894 5.65568 15.1949 5.21689C14.9992 4.77704 14.7484 4.34675 14.4488 3.93775C14.1503 3.52981 13.7961 3.14846 13.3964 2.80328C12.7399 2.23365 11.9902 1.78849 11.1673 1.48001C10.3434 1.17259 9.43934 1.01622 8.47912 1.01622ZM8.48071 13.5996C8.43564 13.5996 8.39057 13.5991 8.3455 13.598C7.03162 13.5666 5.76493 13.0502 4.7782 12.1439C3.79252 11.2381 3.16686 10.0175 3.01681 8.70646C2.93304 7.97355 2.99772 7.23797 3.20875 6.52049L3.21458 6.50134L3.22572 6.48486C3.28457 6.39657 3.31904 6.30136 3.32858 6.20297L3.33123 6.18648L3.34767 6.11786C3.59157 5.47803 3.9484 4.89564 4.4081 4.38717C5.1011 3.61969 6.15941 3.30004 7.17001 3.55268L7.1891 3.55747C8.46215 3.87978 9.44146 4.39942 10.0995 5.10307C10.9738 6.03703 11.2628 7.27521 10.9589 8.78464C10.7013 10.0648 10.056 10.8313 9.09205 11.0014C8.40595 11.1232 7.58464 10.9206 6.94891 10.4728C6.44096 10.1148 6.11382 9.64466 6.02792 9.14896C5.97755 8.85643 6.07935 8.54158 6.31583 8.26341C6.43248 8.12619 6.48338 7.9528 6.46005 7.77463C6.43672 7.59911 6.34022 7.44114 6.19441 7.34062C5.92134 7.15234 5.53057 7.22681 5.32379 7.5071C4.66367 8.40063 4.61754 9.4585 5.19654 10.4095C5.88052 11.5328 7.28136 12.2875 8.68219 12.2875C8.68219 12.2875 8.68219 12.2875 8.68272 12.2875C8.8964 12.2875 9.1069 12.2694 9.30838 12.2338C10.7771 11.9742 11.8237 10.8073 12.1811 9.03249C12.6037 6.93321 12.0597 5.15253 10.6079 3.88297C10.4457 3.74096 10.4165 3.51864 10.538 3.34206C10.6578 3.16708 10.8736 3.11548 11.0618 3.21654C12.8598 4.17815 13.9764 6.04393 13.9764 8.08576C13.9764 9.58349 13.3879 10.985 12.3195 12.0317C11.284 13.0454 9.92502 13.5996 8.48071 13.5996ZM8.35186 13.3321C9.77444 13.3645 11.118 12.8364 12.135 11.8402C13.1519 10.844 13.7124 9.5101 13.7124 8.0847C13.7124 6.14126 12.6493 4.36537 10.9383 3.45003C10.8322 3.39366 10.7691 3.47503 10.7575 3.49205C10.7453 3.50961 10.6907 3.60054 10.7834 3.68139C11.5342 4.33771 12.0591 5.13392 12.3423 6.04713C12.6286 6.96939 12.6625 7.99162 12.4425 9.08407C12.0629 10.9717 10.9377 12.2152 9.3561 12.4949C9.13977 12.5332 8.91336 12.5529 8.68431 12.5529C8.68431 12.5529 8.68431 12.5529 8.68378 12.5529C7.19387 12.5529 5.70236 11.7471 4.97172 10.5478C4.33334 9.49946 4.38477 8.33362 5.11223 7.34861C5.40332 6.95449 5.95687 6.85291 6.34605 7.1215C6.55337 7.26457 6.69122 7.49007 6.7241 7.73952C6.75697 7.9895 6.68221 8.24267 6.5189 8.4352C6.41233 8.56072 6.24054 8.81496 6.29038 9.1027C6.36408 9.52819 6.65252 9.93719 7.10267 10.2542C7.68273 10.6626 8.42768 10.8483 9.04751 10.7387C9.8948 10.5887 10.4658 9.89464 10.7002 8.73092C11.3354 5.5759 9.10689 4.3159 7.12547 3.81435L7.10638 3.80958C6.19123 3.58087 5.23259 3.87021 4.60535 4.56482C4.17004 5.04669 3.83176 5.59824 3.59952 6.20297L3.5921 6.23594C3.57831 6.3689 3.53324 6.49549 3.45848 6.61357C3.26177 7.29063 3.20186 7.98418 3.28086 8.67507C3.57725 11.2684 5.75751 13.2699 8.35186 13.3321Z" fill="white"/>
</svg>
