<svg width="3" height="8" viewBox="0 0 3 8" fill="none" xmlns="http://www.w3.org/2000/svg">
<path d="M1.3892 7.93402C1.08592 7.93402 0.81843 7.82554 0.594386 7.6122L0.592778 7.61059C0.368733 7.38681 0.255302 7.1132 0.255302 6.79701V1.42899C0.255302 1.23051 0.307192 1.04288 0.409761 0.870524C0.511929 0.69937 0.652308 0.561566 0.826878 0.461526C1.00185 0.361084 1.19693 0.310059 1.4073 0.310059C1.61083 0.313273 1.79948 0.367914 1.96962 0.471972C2.13897 0.575629 2.27452 0.714643 2.37186 0.886198C2.4692 1.05775 2.51868 1.24658 2.51868 1.44707V6.78817C2.51868 7.10918 2.41007 7.3852 2.19649 7.60898L2.19206 7.61341C1.96239 7.82594 1.69208 7.93402 1.3892 7.93402ZM0.734365 7.46756C0.921806 7.64635 1.1362 7.73313 1.3892 7.73313C1.64221 7.73313 1.85941 7.64635 2.05248 7.46796C2.23067 7.28074 2.31716 7.05816 2.31716 6.78817V1.44707C2.31716 1.28154 2.27653 1.12605 2.19649 0.985031C2.11604 0.843609 2.00462 0.728703 1.86424 0.643126C1.72507 0.557951 1.57061 0.513353 1.40529 0.510541C1.23273 0.510541 1.07103 0.552328 0.927034 0.635093C0.782632 0.718259 0.666789 0.831554 0.582722 0.972976C0.499057 1.1136 0.45642 1.26667 0.45642 1.42859V6.79661C0.45642 7.06097 0.547326 7.28033 0.734365 7.46756Z" fill="white"/>
</svg>
