<svg width="4" height="8" viewBox="0 0 4 8" fill="none" xmlns="http://www.w3.org/2000/svg">
<path d="M1.98563 7.93402C1.68194 7.93402 1.41486 7.82554 1.19122 7.6122L1.18961 7.61059C0.965565 7.38681 0.852135 7.1132 0.852135 6.79701V1.42899C0.852135 1.23051 0.904024 1.04288 1.00659 0.870524C1.10836 0.69937 1.24874 0.561968 1.42331 0.461526C1.59828 0.361084 1.79377 0.310059 2.00373 0.310059C2.20726 0.313273 2.39591 0.367914 2.56606 0.471972C2.7354 0.575629 2.87095 0.714643 2.96829 0.886198C3.06563 1.05775 3.1151 1.24618 3.1151 1.44707V6.78817C3.1151 7.10918 3.0065 7.3852 2.79291 7.60898L2.78849 7.61341C2.55841 7.82594 2.28851 7.93402 1.98563 7.93402ZM1.3312 7.46756C1.51864 7.64635 1.73263 7.73313 1.98603 7.73313C2.23904 7.73313 2.45625 7.64635 2.64932 7.46796C2.82751 7.28074 2.91399 7.05816 2.91399 6.78817V1.44707C2.91399 1.28154 2.87336 1.12605 2.79332 0.985031C2.71287 0.843609 2.60145 0.728703 2.46107 0.643126C2.3219 0.557951 2.16744 0.513353 2.00212 0.510541C1.82916 0.510541 1.66787 0.552328 1.52387 0.635093C1.37946 0.718259 1.26362 0.831956 1.17955 0.972976C1.09589 1.1136 1.05325 1.26667 1.05325 1.42859V6.79661C1.05325 7.06097 1.14416 7.28033 1.3312 7.46756Z" fill="white"/>
</svg>
