<svg width="11" height="12" viewBox="0 0 11 12" fill="none" xmlns="http://www.w3.org/2000/svg">
<path d="M5.03281 11.1323H2.15055C1.64631 11.1323 1.20783 10.9434 0.847277 10.5711C0.487789 10.2004 0.305389 9.75153 0.305389 9.23722V1.90387C0.305389 1.57146 0.388104 1.25447 0.550881 0.961943C0.714718 0.667289 0.944301 0.434332 1.23274 0.269986C1.52012 0.106172 1.83401 0.0231934 2.16539 0.0231934H4.51744C5.35307 0.0231934 6.12294 0.116813 6.80586 0.300838C7.49249 0.485927 8.10012 0.761961 8.61178 1.1215C9.12451 1.48157 9.55822 1.92887 9.90234 2.44957C10.2454 2.96973 10.502 3.57712 10.6648 4.25418C10.7639 4.69616 10.8138 5.15942 10.8138 5.63225C10.7989 6.663 10.5412 7.60865 10.0476 8.44528C9.55292 9.2835 8.8578 9.94779 7.98135 10.4206C7.10597 10.8929 6.11393 11.1323 5.03281 11.1323ZM2.16486 0.289658C1.87961 0.289658 1.60973 0.360928 1.36265 0.501872C1.11663 0.641752 0.921502 0.840674 0.781524 1.09171C0.641016 1.34435 0.569968 1.61826 0.569968 1.90441V9.23775C0.569968 9.68664 0.722673 10.0627 1.03709 10.3866C1.35045 10.71 1.71418 10.8674 2.15055 10.8674H5.03281C6.06992 10.8674 7.01954 10.6387 7.85516 10.1877C8.68813 9.73824 9.34879 9.10638 9.81856 8.31071C10.2883 7.51451 10.5333 6.61301 10.5476 5.63119C10.5476 5.17963 10.4999 4.73606 10.4055 4.31535C10.2507 3.67073 10.0063 3.09206 9.68017 2.59743C9.35515 2.10439 8.94423 1.68155 8.45908 1.34009C7.97287 0.998634 7.39334 0.735896 6.73693 0.558785C6.07628 0.38061 5.32974 0.290191 4.51744 0.290191H2.16486V0.289658ZM4.69135 8.13202H3.73855V3.03834H4.56092C5.29739 3.03834 5.91934 3.2181 6.40979 3.57286C6.90501 3.93134 7.21572 4.4148 7.33343 5.00943C7.38327 5.24504 7.40872 5.45993 7.40872 5.64661C7.40872 6.11572 7.29207 6.54598 7.06249 6.92467C6.83291 7.30336 6.50894 7.6028 6.09908 7.81501C5.69187 8.02563 5.21839 8.13202 4.69135 8.13202ZM4.00366 7.86608H4.69135C5.17597 7.86608 5.60863 7.76928 5.97713 7.57887C6.34298 7.39006 6.63195 7.1236 6.83555 6.78693C7.03969 6.45026 7.14308 6.06677 7.14308 5.64713C7.14308 5.47906 7.11975 5.28227 7.07309 5.06314C6.96864 4.535 6.69346 4.10685 6.25391 3.7888C5.80958 3.46755 5.2396 3.30428 4.56039 3.30428H4.00313V7.86608H4.00366Z" fill="white"/>
</svg>
