<svg width="33" height="31" viewBox="0 0 33 31" fill="none" xmlns="http://www.w3.org/2000/svg">
<path d="M31.8202 12.6103C31.6134 11.5961 31.3011 10.6164 30.8811 9.66964C30.4612 8.72398 29.9294 7.8129 29.2868 6.93586C28.6441 6.05881 27.8944 5.25144 27.0365 4.51108C25.6304 3.29045 24.045 2.34853 22.2789 1.68635C20.5138 1.02525 18.6024 0.693359 16.5451 0.693359C13.648 0.693359 11.007 1.37308 8.62525 2.73093C6.24139 4.08984 4.36866 5.93435 3.006 8.26392C1.64334 10.5951 0.962006 13.1097 0.962006 15.8095C0.978442 18.5092 1.67303 20.9989 3.0447 23.2769C4.41585 25.5554 6.2891 27.3568 8.66395 28.6812C11.0377 30.0055 13.6644 30.6666 16.5451 30.6666C19.4592 30.6666 22.1256 29.9794 24.5429 28.603C26.1532 27.6749 27.5344 26.5266 28.6829 25.1597C29.8313 23.7928 30.6919 22.2924 31.2661 20.6585C31.8403 19.0246 32.1282 17.3567 32.1282 15.6542C32.1282 14.6404 32.0248 13.6256 31.8202 12.6103ZM16.271 27.0765C10.7111 26.9441 6.0012 22.6083 5.36706 17.0663C5.18732 15.4968 5.34903 13.9911 5.76048 12.5933C5.89886 12.3848 5.99537 12.1439 6.02082 11.8748C6.02877 11.8402 6.03619 11.8051 6.04414 11.77C6.54679 10.4515 7.28698 9.25426 8.21433 8.22776C9.60138 6.69226 11.7276 6.05987 13.7323 6.56089L13.7731 6.57099C18.0446 7.65227 22.8489 10.3749 21.4735 17.2056C20.9576 19.7676 19.6819 21.2994 17.7837 21.635C15.2853 22.0775 12.0907 20.3484 11.6809 17.9779C11.5786 17.3849 11.8336 16.8073 12.2228 16.3493C12.8352 15.6281 12.6904 14.5394 11.9142 14.0043C11.2085 13.5177 10.2175 13.7267 9.70795 14.4171C8.2525 16.3876 8.14911 18.7156 9.42747 20.8143C10.9296 23.2801 14.0043 24.8858 16.9746 24.8852C17.4327 24.8852 17.8887 24.8469 18.3351 24.7682C21.5329 24.2023 23.8102 21.6754 24.5827 17.8359C25.4973 13.2943 24.2577 9.45104 21.1935 6.77204C20.675 6.31836 21.2253 5.50567 21.8324 5.83011C25.3812 7.72833 27.7969 11.4785 27.7969 15.7946C27.7958 22.1185 22.6097 27.2276 16.271 27.0765Z" fill="#ED7D21"/>
</svg>
