<svg width="3" height="11" viewBox="0 0 3 11" fill="none" xmlns="http://www.w3.org/2000/svg">
<path d="M1.56948 10.4012C1.19822 10.4012 0.877239 10.2682 0.61458 10.0059C0.351921 9.7435 0.218781 9.41887 0.218781 9.0408V2.1798C0.218781 1.93191 0.279921 1.7009 0.400591 1.49399C0.520859 1.28708 0.686982 1.12115 0.894132 1.00102C1.10128 0.880893 1.33217 0.819824 1.58075 0.819824C1.82651 0.823842 2.05458 0.887722 2.26012 1.00986C2.46486 1.132 2.62977 1.29753 2.74964 1.50203C2.87031 1.70733 2.93145 1.93915 2.93145 2.19065V9.02955C2.93145 9.41123 2.7975 9.73868 2.53283 10.0026C2.26816 10.2674 1.94437 10.4012 1.56948 10.4012ZM1.57873 1.02071C1.36796 1.02071 1.17127 1.07253 0.995093 1.17458C0.818513 1.27703 0.676926 1.41846 0.574357 1.59484C0.471787 1.77081 0.419898 1.96767 0.419898 2.1798V9.0408C0.419898 9.36784 0.530111 9.63703 0.756569 9.86362C0.983027 10.0898 1.2489 10.1999 1.56948 10.1999C1.89368 10.1999 2.16197 10.089 2.39044 9.86082C2.61891 9.63261 2.72993 9.36061 2.72993 9.02955V2.19065C2.72993 1.9753 2.67804 1.77764 2.57587 1.60367C2.4729 1.42891 2.33212 1.28708 2.15675 1.18262C1.98177 1.07856 1.78749 1.02392 1.57873 1.02071Z" fill="white"/>
</svg>
