<svg width="5" height="6" viewBox="0 0 5 6" fill="none" xmlns="http://www.w3.org/2000/svg">
<path d="M2.69262 5.94285C2.60735 5.94285 2.4718 5.93682 2.27832 5.92437C1.70514 5.88098 1.24538 5.75924 0.910322 5.56238L0.908311 5.56117C0.479932 5.2956 0.262726 4.99708 0.262726 4.67446C0.262726 4.57563 0.278412 4.48644 0.309384 4.4097C0.367708 4.2269 0.478323 4.08025 0.63801 3.97338C0.796088 3.86771 0.988759 3.81388 1.21039 3.81388C1.34554 3.81388 1.50402 3.84361 1.69428 3.90468L1.88212 3.95973L2.01928 4.00713C2.21276 4.08668 2.38974 4.13771 2.545 4.1582H2.7063C2.73928 4.1582 2.75738 4.15257 2.76704 4.14614C2.7606 4.09351 2.73687 4.07142 2.71595 4.05816L2.7063 4.05172C2.69504 4.0461 2.68458 4.04007 2.67492 4.03445C2.67211 4.03284 2.66889 4.03084 2.66567 4.02923L2.59126 4.0019L2.40583 3.95651L2.16771 3.88459L1.99314 3.84C1.70876 3.76286 1.47023 3.67768 1.28279 3.58608C1.08972 3.49207 0.934859 3.38319 0.823038 3.26346C0.711619 3.14413 0.617496 2.99748 0.543887 2.82754C0.469072 2.64272 0.431663 2.4547 0.431663 2.26707C0.431663 1.95731 0.531015 1.66241 0.726903 1.39121C0.92078 1.12283 1.20033 0.907084 1.55872 0.749189C1.9135 0.593303 2.33021 0.51416 2.79801 0.51416C3.15841 0.51416 3.48583 0.55353 3.77141 0.631071C4.2364 0.759235 4.54572 0.932395 4.71787 1.161C4.80958 1.28434 4.85624 1.43541 4.85624 1.61058C4.85624 1.77972 4.80234 1.93762 4.69575 2.08025C4.58795 2.22409 4.44073 2.3197 4.25812 2.3647C4.17888 2.38438 4.09602 2.39483 4.01195 2.39483C3.88444 2.39483 3.72516 2.37033 3.52484 2.3193L3.24529 2.25181L3.11095 2.21605L2.9589 2.18833C2.90138 2.17386 2.88207 2.17305 2.87886 2.17305C2.7244 2.17305 2.65401 2.17547 2.62183 2.17748L2.60695 2.19235C2.61378 2.20038 2.62585 2.21203 2.64637 2.22689C2.65924 2.23372 2.6709 2.24055 2.68136 2.24738C2.68619 2.2506 2.69142 2.25381 2.69705 2.25662L2.7779 2.28636L3.23725 2.43903L3.47014 2.50773L3.67407 2.58005C3.87197 2.64192 4.08797 2.74959 4.31242 2.89905C4.53204 3.05052 4.70058 3.24056 4.81521 3.46394C4.92904 3.68732 4.98697 3.92116 4.98697 4.1594C4.98697 4.66001 4.76252 5.09431 4.31966 5.45068C3.913 5.77692 3.36556 5.94285 2.69262 5.94285ZM1.0137 5.39002C1.32181 5.57081 1.7522 5.68331 2.2924 5.72429C2.48024 5.73634 2.61137 5.74237 2.69262 5.74237C3.3189 5.74237 3.82371 5.59131 4.19296 5.294C4.59157 4.97339 4.78545 4.60215 4.78545 4.159C4.78545 3.95289 4.73517 3.7496 4.63582 3.55514C4.53646 3.36149 4.38965 3.19637 4.19899 3.06499C3.99184 2.92718 3.79354 2.82754 3.61012 2.77049L3.40498 2.69777L3.17651 2.63067L2.71072 2.47599L2.61177 2.43903C2.59488 2.43059 2.5808 2.42256 2.56753 2.41372C2.5623 2.41011 2.55506 2.40649 2.54742 2.40247L2.53414 2.39443C2.44163 2.32854 2.39698 2.26024 2.39698 2.18591C2.39698 2.14051 2.41749 2.09672 2.45812 2.05614L2.52288 1.99106L2.54983 1.98422C2.57396 1.9782 2.61901 1.97217 2.87805 1.97217C2.90782 1.97217 2.94764 1.9786 3.00355 1.99226L3.15801 2.02079L3.29396 2.05695L3.57271 2.12444C3.75492 2.17064 3.90214 2.19395 4.01115 2.19395C4.07832 2.19395 4.14509 2.18592 4.20864 2.16985C4.34741 2.1361 4.4532 2.0674 4.53325 1.96053C4.6141 1.85205 4.65351 1.73754 4.65351 1.61098C4.65351 1.47799 4.62134 1.37032 4.55537 1.28153C4.41338 1.0931 4.13101 0.939231 3.71671 0.825128C3.44842 0.752408 3.1387 0.715447 2.7964 0.715447C2.35676 0.715447 1.96699 0.788565 1.63837 0.933202C1.31336 1.07623 1.06116 1.26989 0.888602 1.50894C0.718055 1.74518 0.631171 2.0003 0.631171 2.26707C0.631171 2.42898 0.663752 2.5913 0.72811 2.75C0.791663 2.89624 0.873317 3.02401 0.969049 3.12646C1.06398 3.22851 1.19913 3.32252 1.37008 3.40569C1.54626 3.49166 1.77271 3.57242 2.04342 3.64594L2.22281 3.69174L2.46013 3.76326L2.65441 3.81106L2.75175 3.84763C2.75899 3.85125 2.76744 3.85606 2.77669 3.86169C2.78393 3.86611 2.78996 3.86932 2.7964 3.87254C2.80847 3.87816 2.81933 3.88499 2.82858 3.89222C2.89414 3.93561 2.96896 4.01999 2.96896 4.17668V4.20039L2.9585 4.22128C2.92753 4.28395 2.85834 4.35868 2.70549 4.35868L2.52529 4.35788C2.35153 4.33578 2.15644 4.28073 1.94487 4.19395L1.81857 4.15057L1.63515 4.09713C1.4646 4.04249 1.32261 4.01517 1.21039 4.01517C1.02938 4.01517 0.874121 4.05736 0.749831 4.14052C0.626345 4.22329 0.54429 4.33256 0.500044 4.47438L0.497228 4.48243C0.475105 4.53586 0.463843 4.60054 0.463843 4.67487C0.463843 4.92276 0.64887 5.16342 1.0137 5.39002Z" fill="white"/>
</svg>
