<svg width="23" height="24" viewBox="0 0 23 24" fill="none" xmlns="http://www.w3.org/2000/svg">
<path d="M0.906464 19.3387V3.96191C0.906464 3.31038 1.06606 2.69713 1.38578 2.12219C1.7055 1.54724 2.14717 1.09942 2.71027 0.778171C3.27336 0.457457 3.87993 0.297363 4.52945 0.297363H9.46153C11.1969 0.297363 12.7727 0.488304 14.1879 0.870183C15.6036 1.25153 16.8363 1.81158 17.8872 2.54981C18.9376 3.28857 19.8156 4.19114 20.5203 5.26019C21.2255 6.32871 21.7456 7.56051 22.0807 8.95559C22.2833 9.86189 22.3851 10.8033 22.3851 11.7803C22.3543 13.8982 21.832 15.8172 20.8177 17.5372C19.8024 19.2578 18.3941 20.604 16.593 21.5762C14.7913 22.5485 12.7749 23.0346 10.5426 23.0346H4.49869C3.51514 23.0346 2.66997 22.6708 1.96478 21.9427C1.258 21.2145 0.906464 20.3465 0.906464 19.3387ZM8.10682 16.7426H9.82632C10.8921 16.7426 11.8332 16.5315 12.6503 16.1086C13.4673 15.6863 14.1041 15.0986 14.5606 14.345C15.0177 13.5919 15.2462 12.7473 15.2462 11.8106C15.2462 11.4341 15.1948 11.0065 15.0935 10.5283C14.8602 9.34757 14.2515 8.40032 13.2669 7.68762C12.2828 6.97546 11.0442 6.61911 9.55326 6.61911H8.10682V16.7426Z" fill="#D22786"/>
</svg>
