<svg width="17" height="20" viewBox="0 0 17 20" fill="none" xmlns="http://www.w3.org/2000/svg">
<path d="M3.59044 19.1769C2.78079 19.1604 2.08567 18.8567 1.50562 18.2658C0.924497 17.6754 0.635002 16.9697 0.635002 16.1485V3.38265C0.635002 2.72952 0.758011 2.16574 1.00456 1.69238C1.25058 1.21956 1.59469 0.858949 2.03743 0.612163C2.48016 0.365378 3.01462 0.241455 3.6408 0.241455H9.26535C10.443 0.241455 11.4822 0.423354 12.3836 0.788214C13.2855 1.15254 14.0246 1.68015 14.6009 2.37104C15.1773 3.06247 15.5776 3.89802 15.8035 4.87772C15.9366 5.48085 16.0039 6.02123 16.0039 6.49884C16.0039 8.21623 15.4228 9.58525 14.2627 10.6075L14.1625 10.7208L13.5739 11.1862L13.2107 11.4622L15.3899 14.3646C15.8162 14.9257 16.0288 15.5544 16.0288 16.2495C16.0288 16.7101 15.9222 17.1521 15.7096 17.5749C15.497 17.9983 15.1858 18.3605 14.7764 18.6615C14.242 19.0466 13.6784 19.2397 13.0856 19.2397C12.0167 19.2397 11.1105 18.6706 10.3671 17.5313L6.53473 11.8265V16.224C6.53473 16.7766 6.40324 17.275 6.13972 17.7191C5.87726 18.1632 5.52414 18.5169 5.08141 18.7812C4.63815 19.045 4.14133 19.1769 3.59044 19.1769ZM6.55913 7.68011H9.02622C9.31837 7.68011 9.56705 7.56523 9.77171 7.3344C9.97585 7.1041 10.0782 6.80892 10.0782 6.44885C10.0697 6.1643 9.96948 5.92496 9.77754 5.73243C9.58561 5.53989 9.36875 5.44363 9.12644 5.44363H6.55913V7.68011Z" fill="#ED7D21"/>
</svg>
