<svg width="3" height="10" viewBox="0 0 3 10" fill="none" xmlns="http://www.w3.org/2000/svg">
<path d="M1.43078 9.33556C1.06757 9.33556 0.747791 9.20578 0.480305 8.95026L0.478697 8.94866C0.210809 8.68108 0.074852 8.35363 0.074852 7.97557V1.45166C0.074852 1.21422 0.1372 0.989622 0.259881 0.784319C0.381758 0.579818 0.549891 0.415096 0.75865 0.294967C0.967812 0.174839 1.20151 0.11377 1.45331 0.11377C1.69586 0.117787 1.92151 0.182876 2.12544 0.307425C2.32817 0.431169 2.49027 0.597906 2.60651 0.802808C2.72276 1.00811 2.78189 1.2339 2.78189 1.47416V7.96513C2.78189 8.34963 2.65197 8.68028 2.39615 8.94786L2.39172 8.95187C2.11659 9.20619 1.7932 9.33556 1.43078 9.33556ZM0.620282 8.80563C0.852371 9.027 1.11744 9.13427 1.43119 9.13427C1.74453 9.13427 2.01322 9.0266 2.25255 8.80563C2.47338 8.57381 2.58037 8.2986 2.58037 7.96393V1.47295C2.58037 1.26805 2.53009 1.07561 2.43114 0.900837C2.33179 0.726068 2.19342 0.583439 2.02006 0.477774C1.8475 0.372511 1.65604 0.317064 1.4513 0.313849C1.23691 0.313849 1.037 0.365681 0.858806 0.468132C0.680214 0.570985 0.536617 0.7116 0.432439 0.886369C0.328662 1.06033 0.275566 1.25037 0.275566 1.45086V7.97478C0.275969 8.30222 0.388595 8.57381 0.620282 8.80563Z" fill="white"/>
</svg>
