<svg width="18" height="19" viewBox="0 0 18 19" fill="none" xmlns="http://www.w3.org/2000/svg">
<path d="M0.860077 15.2631V3.64758C0.860077 3.15541 0.981151 2.69217 1.2237 2.25786C1.46625 1.82355 1.80131 1.48526 2.22848 1.24259C2.65565 1.00033 3.11581 0.879395 3.60855 0.879395H7.35013C8.66664 0.879395 9.86208 1.02363 10.9356 1.3121C12.0096 1.60017 12.9448 2.02323 13.742 2.58088C14.5389 3.13894 15.205 3.82074 15.7395 4.62829C16.2745 5.43545 16.6691 6.36594 16.9233 7.41978C17.077 8.1044 17.1542 8.81553 17.1542 9.55357C17.1309 11.1534 16.7347 12.603 15.9652 13.9023C15.1949 15.202 14.1266 16.2189 12.7602 16.9533C11.3934 17.6878 9.86369 18.055 8.17029 18.055H3.58521C2.83907 18.055 2.19791 17.7802 1.66294 17.2302C1.12676 16.6801 0.860077 16.0245 0.860077 15.2631ZM6.32242 13.3021H7.62687C8.43536 13.3021 9.14932 13.1426 9.76917 12.8232C10.389 12.5042 10.8721 12.0602 11.2184 11.4909C11.5651 10.922 11.7385 10.284 11.7385 9.57647C11.7385 9.29202 11.6995 8.969 11.6227 8.60781C11.4457 7.71588 10.9839 7.00033 10.237 6.46196C9.49042 5.924 8.5508 5.65481 7.41972 5.65481H6.32242V13.3021Z" fill="#D22786"/>
</svg>
