<svg width="9" height="8" viewBox="0 0 9 8" fill="none" xmlns="http://www.w3.org/2000/svg">
<path d="M3.91978 7.02025C3.68528 7.02025 3.45681 6.99695 3.23558 6.95034C2.79352 6.85713 2.38928 6.67473 2.03411 6.40836C1.68014 6.14279 1.37887 5.79726 1.13793 5.38103C0.932789 5.00377 0.809302 4.59719 0.769078 4.17011C0.728855 3.74262 0.770688 3.32558 0.89337 2.93105C1.01565 2.53651 1.21958 2.16006 1.50034 1.81133C1.7807 1.46299 2.13547 1.16367 2.55419 0.922206C3.11692 0.610434 3.69573 0.450134 4.27576 0.445312C4.63535 0.447321 4.98731 0.505177 5.32358 0.617271C5.65944 0.728962 5.96393 0.881626 6.2282 1.07086C6.49488 1.2621 6.70686 1.48027 6.8585 1.71932L6.86051 1.72293C7.05761 2.06323 7.12237 2.35572 7.05318 2.59115C6.9848 2.82458 6.77765 3.04234 6.43817 3.23841L4.09757 4.58955C4.11366 4.59397 4.13095 4.59879 4.14986 4.60362C4.27013 4.61808 4.37792 4.61887 4.47004 4.60521C4.56536 4.59115 4.68845 4.55419 4.83486 4.49553C4.98369 4.43607 5.15946 4.34808 5.35736 4.23398C5.54159 4.11546 5.76 3.92864 6.00697 3.67915C6.21533 3.47907 6.36617 3.35331 6.46954 3.29344C6.7491 3.13193 7.02543 3.08412 7.29131 3.15041C7.55839 3.21711 7.76474 3.3742 7.90512 3.61647C7.9562 3.70445 7.98838 3.77718 8.00406 3.83905C8.04187 3.99172 8.05032 4.14559 8.029 4.29626C8.00768 4.44652 7.95379 4.60079 7.86932 4.75588C7.78646 4.90815 7.65694 5.08734 7.47392 5.30229L7.4707 5.30591C7.24304 5.54857 6.99044 5.77477 6.72054 5.97806C6.53269 6.12069 6.31991 6.2609 6.08863 6.39429C5.60715 6.67231 5.11763 6.85954 4.63334 6.95155C4.3912 6.99695 4.15267 7.02025 3.91978 7.02025ZM4.27576 0.645795C3.73113 0.650214 3.1845 0.801679 2.65314 1.09658C2.25735 1.32518 1.92148 1.60803 1.65681 1.93707C1.39214 2.26572 1.19987 2.62048 1.08524 2.99051C0.970599 3.36014 0.931582 3.75066 0.969392 4.15163C1.0072 4.55179 1.12264 4.93226 1.3137 5.2834C1.53976 5.67392 1.82333 5.99936 2.15518 6.24845C2.48662 6.49715 2.86392 6.6671 3.27741 6.75428C3.69212 6.84187 4.13578 6.84187 4.59634 6.75428C5.0581 6.6667 5.5267 6.48711 5.98847 6.22033C6.21251 6.09096 6.41846 5.95556 6.59987 5.81776C6.86011 5.6217 7.10346 5.40393 7.32308 5.1701C7.49363 4.96922 7.61832 4.79726 7.69354 4.65946C7.76635 4.52567 7.8126 4.39389 7.8307 4.26773C7.8484 4.14238 7.84156 4.01462 7.80979 3.88726C7.80255 3.85833 7.78284 3.80449 7.73216 3.71651C7.61873 3.52044 7.45904 3.39871 7.24384 3.34487C7.02744 3.29063 6.80782 3.33081 6.57171 3.46701C6.48362 3.51804 6.34163 3.63735 6.14977 3.82177C5.89314 4.08091 5.66266 4.27738 5.46557 4.40394L5.46154 4.40634C5.25439 4.52607 5.06896 4.61848 4.91089 4.68156C4.74959 4.74624 4.61162 4.78722 4.50061 4.8037C4.38878 4.82017 4.26047 4.81976 4.11929 4.80209L4.10601 4.79927C3.86709 4.73539 3.82445 4.71892 3.80313 4.70807L3.6358 4.62451L6.33922 3.06404C6.63245 2.89489 6.80822 2.71651 6.86172 2.53411C6.91441 2.35331 6.85649 2.11465 6.68876 1.82458C6.5512 1.60802 6.35732 1.40915 6.11236 1.23358C5.86458 1.0564 5.57819 0.912971 5.26123 0.807306C4.94387 0.702043 4.61283 0.647402 4.27576 0.645795ZM3.21466 3.68195L3.16438 3.59517C3.14749 3.56584 3.13462 3.52688 3.12255 3.46822C3.04492 3.1239 3.11974 2.83864 3.34499 2.62209L3.35384 2.61366L3.36429 2.60762C3.91173 2.29143 4.24358 2.49151 4.42579 2.7173C4.45153 2.74422 4.47647 2.77918 4.50181 2.82338L4.55209 2.91056L3.21466 3.68195ZM3.47571 2.77517C3.31562 2.93427 3.26213 3.13675 3.31241 3.39348L4.26852 2.84186C4.14382 2.68838 3.92702 2.51924 3.47571 2.77517Z" fill="white"/>
</svg>
