<svg width="16" height="14" viewBox="0 0 16 14" fill="none" xmlns="http://www.w3.org/2000/svg">
<path d="M13.0587 2.71027C13.4436 3.3756 13.5715 3.92803 13.4432 4.36676C13.3145 4.80509 12.9167 5.2165 12.2506 5.60099L6.9214 8.67694C6.97128 8.70185 7.16998 8.7601 7.51711 8.85291C7.79506 8.88786 8.04243 8.88947 8.25964 8.85733C8.47684 8.82519 8.74795 8.74443 9.07255 8.61426C9.39796 8.48449 9.77364 8.29606 10.2 8.05018C10.6022 7.79184 11.0692 7.39329 11.6026 6.85451C12.0197 6.45355 12.3282 6.19561 12.5285 6.0799C13.0683 5.76813 13.5908 5.67572 14.0948 5.80188C14.5993 5.92803 14.9846 6.22093 15.2505 6.68015C15.3466 6.84648 15.4085 6.98468 15.4355 7.09276C15.5087 7.38806 15.5244 7.68095 15.4834 7.97103C15.4419 8.26151 15.3385 8.55882 15.1724 8.86336C15.0063 9.1683 14.7384 9.53833 14.368 9.97385C13.8953 10.4777 13.3797 10.9393 12.8222 11.3591C12.4332 11.6544 11.9988 11.9405 11.5185 12.2177C10.5254 12.791 9.53029 13.1723 8.53316 13.3616C7.53562 13.5508 6.58634 13.5508 5.68453 13.3603C4.78312 13.1703 3.97101 12.8039 3.2486 12.2619C2.52619 11.7199 1.91841 11.0229 1.42527 10.1703C1.01017 9.40655 0.761182 8.58855 0.679126 7.71671C0.597071 6.84527 0.680736 6.00638 0.930925 5.20043C1.18031 4.39489 1.5922 3.63514 2.16659 2.9216C2.74098 2.20846 3.45817 1.6038 4.31774 1.10722C5.46893 0.469207 6.63782 0.145385 7.82401 0.135742C8.55527 0.13976 9.26521 0.256271 9.95304 0.485279C10.6409 0.714287 11.2547 1.02204 11.7941 1.40774C12.331 1.79544 12.7534 2.22936 13.0587 2.71027ZM5.67246 6.42743L8.11202 5.01923C8.06576 4.93928 8.02071 4.87621 7.97646 4.83121C7.49499 4.22936 6.84095 4.16749 6.01476 4.64439C5.59765 5.04535 5.4621 5.57207 5.60851 6.22454C5.62822 6.31936 5.64913 6.38726 5.67246 6.42743Z" fill="#D22786"/>
</svg>
