<svg width="8" height="27" viewBox="0 0 8 27" fill="none" xmlns="http://www.w3.org/2000/svg">
<path d="M3.76478 26.8183C2.81092 26.8183 1.99651 26.48 1.32155 25.803C0.64711 25.1259 0.309357 24.2988 0.309357 23.3218V4.27626C0.309357 3.63483 0.464181 3.04713 0.773828 2.5126C1.08294 1.97808 1.50394 1.55578 2.03734 1.24517C2.56968 0.93509 3.15557 0.779785 3.79501 0.779785C4.42385 0.789891 5.00284 0.953176 5.53041 1.26804C6.05798 1.58397 6.47632 2.00573 6.78649 2.53547C7.09561 3.06468 7.25043 3.65505 7.25043 4.30658V23.2915C7.25043 24.2797 6.91056 25.1137 6.23083 25.796C5.55056 26.4774 4.72872 26.8183 3.76478 26.8183Z" fill="#D22786"/>
</svg>
