<svg width="14" height="20" viewBox="0 0 14 20" fill="none" xmlns="http://www.w3.org/2000/svg">
<path d="M3.22465 19.262C2.50867 19.262 1.89486 19.0065 1.38282 18.495C0.870775 17.9836 0.614548 17.3588 0.614548 16.6208V2.91764C0.614548 2.45641 0.732403 2.02571 0.966905 1.62555C1.20141 1.22579 1.51918 0.908797 1.91981 0.674165C2.32003 0.439532 2.76288 0.314584 3.24797 0.299316C3.74071 0.299316 4.18719 0.418638 4.58782 0.656886C4.98804 0.895537 5.305 1.21655 5.54071 1.61993C5.77521 2.02371 5.89266 2.46404 5.89266 2.94054V6.7702C6.1698 6.62435 6.47752 6.48976 6.8166 6.36642C7.64802 6.1129 8.42152 5.98594 9.1379 5.98594C9.83819 5.98594 10.4793 6.09764 11.0606 6.32062C11.6418 6.544 12.1329 6.84934 12.5332 7.23745C12.933 7.62596 13.2471 8.10085 13.474 8.66212C13.7008 9.22339 13.8147 9.82323 13.8147 10.4616V16.6674C13.8147 17.413 13.5548 18.0458 13.0351 18.5645C12.5155 19.0836 11.8783 19.3431 11.1241 19.3431C10.3925 19.3046 9.77463 19.0281 9.27064 18.5127C8.76623 17.9976 8.51403 17.3745 8.51403 16.6441V11.6609C8.51403 11.315 8.39094 11.0052 8.14477 10.7324C7.89861 10.4596 7.59774 10.319 7.24417 10.3114C6.88176 10.3114 6.56681 10.4383 6.29731 10.6923C6.02782 10.9458 5.89307 11.2612 5.89307 11.6376V16.6437C5.89307 17.1202 5.7716 17.5625 5.52945 17.9703C5.28651 18.3777 4.9615 18.6951 4.55323 18.9217C4.14456 19.1487 3.7017 19.262 3.22465 19.262Z" fill="#D22786"/>
</svg>
