<svg width="10" height="12" viewBox="0 0 10 12" fill="none" xmlns="http://www.w3.org/2000/svg">
<path d="M1.42175 10.5423C0.585506 10.0236 0.167587 9.46356 0.167587 8.86211C0.167587 8.6789 0.195739 8.51739 0.253258 8.37838C0.360655 8.03648 0.563385 7.76609 0.861039 7.56681C1.15869 7.36793 1.5199 7.26789 1.94425 7.26789C2.20369 7.26789 2.52066 7.32815 2.89433 7.44828L3.2841 7.56198L3.55963 7.65721C3.99002 7.83439 4.37978 7.94528 4.72852 7.98947H4.84235H5.07967C5.25102 7.98947 5.36485 7.93242 5.42157 7.81832C5.42157 7.62225 5.35198 7.48002 5.21281 7.39123C5.20637 7.38521 5.19391 7.37677 5.1746 7.36752C5.15569 7.35788 5.1384 7.34824 5.12271 7.339C5.10622 7.32936 5.09254 7.32173 5.07967 7.3153L4.89906 7.249L4.5093 7.15419L4.0057 7.00232L3.63484 6.9075C3.05201 6.7492 2.56892 6.57685 2.186 6.39003C1.80307 6.20321 1.5018 5.99308 1.28379 5.75885C1.06497 5.52462 0.882756 5.23977 0.737147 4.90469C0.591136 4.54431 0.518737 4.1803 0.518737 3.81308C0.518737 3.20601 0.711805 2.6347 1.09795 2.09994C1.4841 1.56519 2.03717 1.14012 2.75596 0.823526C3.47515 0.507334 4.31261 0.348633 5.26953 0.348633C6.01085 0.348633 6.67292 0.428189 7.25535 0.586084C8.17366 0.839198 8.79792 1.18392 9.12695 1.62064C9.29187 1.84201 9.37432 2.114 9.37432 2.43662C9.37432 2.74679 9.27578 3.03285 9.07989 3.29521C8.8832 3.55796 8.61732 3.73032 8.28145 3.81268C8.12941 3.85085 7.97414 3.86974 7.81566 3.86974C7.56869 3.86974 7.2457 3.81911 6.84629 3.71827L6.25741 3.57564L5.97223 3.49971L5.65889 3.44265C5.55753 3.41734 5.48472 3.40489 5.44008 3.40489C5.066 3.40489 4.85402 3.41091 4.80334 3.42377L4.76553 3.46194L4.7084 3.51899C4.66416 3.56319 4.64204 3.60416 4.64204 3.64233C4.64204 3.72429 4.70841 3.81309 4.84155 3.9083C4.86689 3.92076 4.88901 3.93361 4.90791 3.94607C4.92722 3.95893 4.94935 3.97178 4.97469 3.98423L5.15529 4.05053L5.44008 4.14534L6.12428 4.37315L6.60856 4.51577L7.03654 4.66764C7.44199 4.7942 7.87238 5.00915 8.32851 5.31289C8.75931 5.61019 9.08713 5.97862 9.31198 6.41855C9.53643 6.85849 9.64905 7.31248 9.64905 7.78054C9.64905 8.76769 9.209 9.61582 8.32851 10.3241C7.51157 10.9826 6.4187 11.3113 5.0503 11.3113C4.87292 11.3113 4.58814 11.2984 4.19515 11.2731C3.02425 11.1843 2.09952 10.9409 1.42175 10.5423Z" fill="#ED7D21"/>
</svg>
