<svg width="6" height="8" viewBox="0 0 6 8" fill="none" xmlns="http://www.w3.org/2000/svg">
<path d="M4.61675 7.95663C4.19562 7.95663 3.83642 7.73446 3.54923 7.29573L2.34735 5.51428V6.76981C2.34735 6.98636 2.29466 7.18483 2.19048 7.3596C2.08751 7.53317 1.94673 7.67379 1.77256 7.77705C1.59718 7.8811 1.39848 7.93373 1.18168 7.93373H1.17966C0.861093 7.9273 0.583957 7.80678 0.35589 7.57576C0.127824 7.34474 0.0119781 7.06431 0.0119781 6.74249V2.14385C0.0119781 1.89315 0.0606479 1.67257 0.157184 1.48856C0.254927 1.30094 0.394504 1.1563 0.571085 1.05787C0.745654 0.961044 0.957228 0.911621 1.20018 0.911621H3.23508C3.67191 0.911621 4.06449 0.980327 4.40076 1.11572C4.74105 1.25232 5.02422 1.45401 5.24223 1.71476C5.45984 1.9747 5.61309 2.2929 5.69796 2.65972C5.74784 2.88511 5.77318 3.08881 5.77318 3.26639C5.77318 3.90962 5.55115 4.43151 5.11352 4.81761L5.06847 4.86622L4.80259 5.07395L5.53063 6.0394C5.69756 6.25796 5.78203 6.50665 5.78203 6.77865C5.78203 6.95984 5.73939 7.13542 5.65573 7.30135C5.57206 7.46728 5.44817 7.61112 5.28768 7.72843C5.07731 7.8803 4.85166 7.95663 4.61675 7.95663ZM2.14623 4.85699L3.71655 7.18444C3.96835 7.56933 4.26279 7.75575 4.61635 7.75575C4.80822 7.75575 4.99445 7.69227 5.16942 7.56652C5.30337 7.46849 5.40674 7.34876 5.47593 7.21135C5.54551 7.07395 5.58051 6.92851 5.58051 6.77905C5.58051 6.54884 5.51173 6.34675 5.36974 6.16113L4.52062 5.03498L4.7322 4.87507L4.93653 4.71437L4.97555 4.67137C5.37658 4.31983 5.57126 3.8602 5.57126 3.26679C5.57126 3.10408 5.54753 2.91484 5.50087 2.70472C5.42324 2.36964 5.28406 2.07996 5.08697 1.84453C4.89027 1.60949 4.63365 1.42749 4.32433 1.30294C4.0118 1.17719 3.64496 1.11331 3.23387 1.11331H1.19897C0.991017 1.11331 0.812024 1.15389 0.667622 1.23424C0.523622 1.31419 0.414615 1.42789 0.334168 1.58217C0.252917 1.73765 0.211887 1.92689 0.211887 2.14465V6.7433C0.211887 7.01409 0.305607 7.24068 0.497875 7.43554C0.690143 7.6304 0.913788 7.72803 1.18168 7.73365C1.36147 7.73365 1.52518 7.69026 1.66878 7.60509C1.81359 7.51911 1.93064 7.40219 2.01631 7.25755C2.10199 7.11412 2.14503 6.9502 2.14503 6.77021V4.85699H2.14623ZM3.1486 3.7923H2.15548V2.78588H3.1848C3.29984 2.78588 3.40281 2.83087 3.4913 2.91926C3.57899 3.00724 3.62565 3.11693 3.62967 3.2455C3.62967 3.40299 3.58382 3.53276 3.49331 3.63441C3.39959 3.73927 3.28375 3.7923 3.1486 3.7923ZM2.3566 3.59141H3.1486C3.22623 3.59141 3.28777 3.56249 3.34328 3.50061C3.4008 3.43593 3.42856 3.35358 3.42856 3.24831C3.42614 3.17439 3.4004 3.11251 3.34931 3.06108C3.29904 3.01086 3.24514 2.98636 3.1848 2.98636H2.3566V3.59141Z" fill="white"/>
</svg>
