<svg width="5" height="5" viewBox="0 0 5 5" fill="none" xmlns="http://www.w3.org/2000/svg">
<path d="M2.65979 4.5543C2.137 4.5543 1.69056 4.37188 1.33213 4.01287C0.968929 3.64907 0.784943 3.19113 0.784943 2.65182C0.784943 2.13751 0.97317 1.68063 1.34485 1.2929C1.52831 1.11367 1.73244 0.977511 1.95566 0.883903C2.17889 0.790295 2.41589 0.742432 2.65979 0.742432C3.1741 0.742432 3.62161 0.937621 3.98958 1.32216C4.34642 1.69606 4.52722 2.14815 4.52722 2.66671C4.52722 3.20071 4.34536 3.65386 3.98746 4.0134C3.62956 4.37188 3.18259 4.5543 2.65979 4.5543ZM2.65979 1.00783C2.45089 1.00783 2.24834 1.04825 2.058 1.12857C1.86606 1.20941 1.6895 1.32748 1.53308 1.47959C1.20912 1.81786 1.05058 2.20186 1.05058 2.65129C1.05058 3.12412 1.20435 3.50759 1.51983 3.82459C1.83106 4.13679 2.20381 4.28837 2.65979 4.28837C3.11631 4.28837 3.48905 4.13679 3.80029 3.82459C4.111 3.51291 4.26264 3.13369 4.26264 2.66618C4.26264 2.21197 4.111 1.83275 3.7987 1.50565C3.47739 1.17058 3.10518 1.00783 2.65979 1.00783Z" fill="white"/>
</svg>
