<svg width="6" height="20" viewBox="0 0 6 20" fill="none" xmlns="http://www.w3.org/2000/svg">
<path d="M2.89052 19.6899C2.1669 19.6899 1.54908 19.4344 1.03703 18.9229C0.525392 18.4115 0.269165 17.7867 0.269165 17.0487V2.66173C0.269165 2.1772 0.386618 1.73325 0.621523 1.32947C0.856025 0.925695 1.1754 0.606688 1.58005 0.372055C1.98389 0.137824 2.42836 0.0205078 2.91345 0.0205078C3.3905 0.0281414 3.82974 0.151486 4.22996 0.389333C4.63019 0.627984 4.94755 0.946584 5.18285 1.34675C5.41736 1.74651 5.53481 2.19247 5.53481 2.68464V17.0258C5.53481 17.7722 5.27698 18.4022 4.76131 18.9177C4.24525 19.4324 3.62178 19.6899 2.89052 19.6899Z" fill="#D22786"/>
</svg>
