<svg width="5" height="17" viewBox="0 0 5 17" fill="none" xmlns="http://www.w3.org/2000/svg">
<path d="M1.31364 15.675C0.882846 15.2447 0.667648 14.726 0.667648 14.1181V2.86138C0.667648 2.48171 0.765796 2.12735 0.962087 1.79831C1.15878 1.46926 1.42465 1.20811 1.76052 1.01526C2.09638 0.822411 2.46684 0.725586 2.87189 0.725586C3.25844 0.732014 3.61482 0.834864 3.94104 1.03414C4.26725 1.23342 4.52387 1.49778 4.71091 1.82683C4.89795 2.15588 4.99126 2.51345 4.99126 2.89915V14.0988C4.99126 14.7192 4.78532 15.2443 4.37383 15.6746C3.93017 16.086 3.41733 16.2913 2.83449 16.2913C2.25125 16.2921 1.74483 16.0864 1.31364 15.675Z" fill="#ED7D21"/>
</svg>
