<svg width="12" height="12" viewBox="0 0 12 12" fill="none" xmlns="http://www.w3.org/2000/svg">
<path d="M6.01865 11.1912C4.96399 11.1912 3.98817 10.9461 3.11854 10.4632C2.2477 9.97946 1.55144 9.31253 1.04864 8.48046C0.545046 7.648 0.28681 6.72554 0.280777 5.7392C0.280777 4.75246 0.534186 3.82115 1.03416 2.9694C1.53414 2.11846 2.23081 1.43546 3.10406 0.939676C3.97771 0.443894 4.95836 0.192383 6.01905 0.192383C6.77123 0.192383 7.48117 0.314925 8.12837 0.556387C8.77516 0.79785 9.36443 1.14618 9.8801 1.59215C10.1946 1.86254 10.4738 2.16185 10.7095 2.48206C10.9452 2.80267 11.1431 3.14016 11.2972 3.48568C11.4508 3.83039 11.5675 4.1936 11.6435 4.56564C11.7187 4.93727 11.7569 5.31292 11.7569 5.68214C11.7569 6.30328 11.6499 6.9212 11.4392 7.51823C11.228 8.11606 10.9078 8.67211 10.4867 9.1711C10.0655 9.6701 9.55268 10.0952 8.9622 10.4339C8.07648 10.9369 7.08618 11.1912 6.01865 11.1912ZM6.01865 0.393669C4.99335 0.393669 4.04609 0.636335 3.20301 1.11444C2.36073 1.59254 1.689 2.25064 1.20712 3.07105C0.725649 3.89106 0.481491 4.78861 0.481491 5.7384C0.487525 6.68737 0.736108 7.57528 1.2204 8.3764C1.70469 9.17793 2.37642 9.82116 3.21628 10.2872C4.05575 10.7533 4.99858 10.9899 6.01865 10.9899C7.05078 10.9899 8.0077 10.744 8.86245 10.2595C9.43201 9.93246 9.92716 9.52265 10.333 9.04173C10.7385 8.56122 11.047 8.02646 11.2497 7.45153C11.4528 6.8758 11.5558 6.28078 11.5558 5.68214C11.5558 5.32617 11.5188 4.96379 11.4464 4.60541C11.3732 4.24784 11.261 3.89829 11.1133 3.56684C10.9649 3.23457 10.7747 2.90954 10.5474 2.60058C10.3209 2.29242 10.0523 2.00435 9.74897 1.74361C9.251 1.31331 8.68224 0.977036 8.05798 0.74401C7.43291 0.511788 6.7471 0.393669 6.01865 0.393669ZM6.01985 9.89911C5.98566 9.89911 5.95148 9.89871 5.91729 9.8979C4.92055 9.8742 3.95961 9.48408 3.21105 8.79947C2.4633 8.11525 1.98866 7.1932 1.87483 6.20284C1.81128 5.6492 1.86035 5.09356 2.02044 4.55157L2.02487 4.5371L2.03331 4.52465C2.07796 4.45796 2.10411 4.38604 2.11135 4.31172L2.11336 4.29926L2.12583 4.24743C2.31085 3.7641 2.58156 3.32416 2.93029 2.94007C3.45601 2.36032 4.25887 2.11886 5.02553 2.3097L5.04001 2.31332C6.00578 2.55679 6.7487 2.94932 7.24788 3.48086C7.91116 4.18637 8.13038 5.12168 7.8999 6.2619C7.70441 7.22896 7.21489 7.8079 6.48363 7.93647C5.96314 8.02847 5.34008 7.8754 4.8578 7.53711C4.47246 7.26672 4.22428 6.91155 4.15912 6.53711C4.12091 6.31613 4.19814 6.07829 4.37753 5.86817C4.46603 5.76451 4.50464 5.63354 4.48694 5.49894C4.46924 5.36636 4.39604 5.24703 4.28542 5.17109C4.07827 5.02887 3.78182 5.08512 3.62495 5.29685C3.12417 5.97182 3.08918 6.77093 3.52842 7.4893C4.0473 8.33783 5.11 8.90794 6.17271 8.90794C6.17271 8.90794 6.1727 8.90794 6.17311 8.90794C6.33521 8.90794 6.4949 8.89428 6.64774 8.86736C7.76193 8.6713 8.55594 7.78982 8.82705 6.44912C9.14763 4.86334 8.73494 3.51822 7.63362 2.5592C7.51054 2.45192 7.48841 2.28399 7.58053 2.1506C7.67143 2.01842 7.83514 1.97944 7.97793 2.05578C9.34191 2.78218 10.189 4.19158 10.189 5.73397C10.189 6.86535 9.74253 7.92401 8.93203 8.71469C8.14647 9.48046 7.11554 9.89911 6.01985 9.89911ZM5.92211 9.69702C7.00131 9.72153 8.02057 9.32257 8.79205 8.57006C9.56354 7.81755 9.9887 6.80991 9.9887 5.73317C9.9887 4.26511 9.18222 2.92361 7.88421 2.23216C7.80377 2.18957 7.7559 2.25105 7.74705 2.2639C7.7378 2.27716 7.69637 2.34586 7.76676 2.40693C8.33632 2.90271 8.73453 3.50416 8.94933 4.194C9.16653 4.89067 9.19228 5.66286 9.02535 6.48809C8.73735 7.91397 7.88381 8.85331 6.68394 9.06464C6.51983 9.09356 6.34808 9.10842 6.17431 9.10842C6.17431 9.10842 6.17431 9.10842 6.17391 9.10842C5.04363 9.10842 3.91215 8.49975 3.35787 7.59376C2.87358 6.80187 2.9126 5.9212 3.46446 5.17713C3.68529 4.87942 4.10522 4.80268 4.40046 5.00557C4.55774 5.11365 4.66232 5.28399 4.68725 5.47242C4.71219 5.66125 4.65548 5.8525 4.53159 5.99794C4.45074 6.09275 4.32042 6.2848 4.35823 6.50216C4.41414 6.82357 4.63295 7.13253 4.97445 7.37198C5.41449 7.68054 5.97963 7.82076 6.44984 7.738C7.09261 7.6247 7.52582 7.10039 7.70361 6.22132C8.18549 3.83803 6.49489 2.88623 4.99174 2.50737L4.97726 2.50376C4.28301 2.331 3.55577 2.54956 3.07993 3.07427C2.74969 3.43827 2.49307 3.8549 2.31689 4.31172L2.31126 4.33662C2.3008 4.43706 2.26661 4.53269 2.20989 4.62188C2.06066 5.13333 2.01521 5.65724 2.07515 6.17913C2.29999 8.13816 3.95398 9.65001 5.92211 9.69702Z" fill="white"/>
</svg>
