<svg width="5" height="13" viewBox="0 0 5 13" fill="none" xmlns="http://www.w3.org/2000/svg">
<path d="M2.29512 12.2636C1.81633 12.2636 1.39481 12.0918 1.04221 11.7535L1.04009 11.7514C0.686967 11.3972 0.507751 10.9637 0.507751 10.4632V1.82678C0.507751 1.51244 0.589937 1.21513 0.751654 0.943343C0.91231 0.672624 1.13394 0.454563 1.40912 0.295536C1.68483 0.136508 1.99289 0.0556641 2.32481 0.0556641C2.64453 0.0609827 2.94198 0.147148 3.2108 0.312027C3.47803 0.475841 3.69171 0.696569 3.84494 0.96782C3.99818 1.2396 4.07612 1.53851 4.07612 1.85656V10.4494C4.07612 10.9584 3.90486 11.3961 3.56764 11.7503L3.56181 11.7556C3.19914 12.0923 2.77284 12.2636 2.29512 12.2636ZM1.22673 11.562C1.53266 11.8551 1.88208 11.9971 2.29565 11.9971C2.70869 11.9971 3.06287 11.8546 3.37835 11.562C3.66944 11.2551 3.81048 10.8908 3.81048 10.4478V1.85497C3.81048 1.58372 3.7442 1.32895 3.61377 1.09759C3.4828 0.866231 3.30041 0.677417 3.07188 0.537537C2.84442 0.398188 2.59204 0.324787 2.32216 0.320532C2.03955 0.320532 1.77603 0.389147 1.54115 0.524772C1.30573 0.66093 1.11644 0.847078 0.979116 1.07844C0.84232 1.30874 0.77233 1.56031 0.77233 1.82571V10.4621C0.77286 10.8956 0.921321 11.2551 1.22673 11.562Z" fill="white"/>
</svg>
