<svg width="5" height="14" viewBox="0 0 5 14" fill="none" xmlns="http://www.w3.org/2000/svg">
<path d="M2.65978 13.3216C2.17038 13.3216 1.74727 13.1456 1.40104 12.7982C1.05481 12.4509 0.879303 12.0212 0.879303 11.5207V2.43805C0.879303 2.10989 0.959897 1.80408 1.11896 1.53017C1.2775 1.25626 1.49648 1.03659 1.76954 0.877567C2.0426 0.718539 2.34695 0.637695 2.67462 0.637695C2.99858 0.643014 3.29922 0.727579 3.57016 0.889266C3.84004 1.05095 4.05743 1.27008 4.21543 1.5408C4.3745 1.81258 4.45509 2.11946 4.45509 2.45241V11.5058C4.45509 12.0111 4.27853 12.4446 3.92965 12.794C3.58076 13.1445 3.15394 13.3216 2.65978 13.3216ZM2.67197 0.903628C2.39414 0.903628 2.13486 0.972229 1.90262 1.10732C1.66986 1.24295 1.48322 1.43018 1.34802 1.66366C1.21281 1.89662 1.14441 2.15723 1.14441 2.43805V11.5207C1.14441 11.9536 1.28969 12.31 1.58821 12.61C1.88672 12.9094 2.23719 13.0551 2.65978 13.0551C3.08713 13.0551 3.44079 12.9083 3.74195 12.6063C4.04311 12.3042 4.18945 11.9441 4.18945 11.5058V2.45241C4.18945 2.16733 4.12106 1.90566 3.98638 1.67536C3.85064 1.444 3.66507 1.25626 3.43389 1.11797C3.20325 0.980218 2.94715 0.907883 2.67197 0.903628Z" fill="white"/>
</svg>
